<?xml version="1.0" encoding="UTF-8"?>
<svg id="Capa_1" data-name="Capa 1" xmlns="http://www.w3.org/2000/svg" viewBox="0 0 2682.35 673.19">
  <defs>
    <style>
      .cls-1 {
        fill: #8700e0;
      }

      .cls-1, .cls-2, .cls-3 {
        stroke-width: 0px;
      }

      .cls-2 {
        fill: #091633;
      }

      .cls-3 {
        fill: #fff;
      }
    </style>
  </defs>
  <g>
    <path class="cls-2" d="M1947.85,120.85l-105.72-104.93h-431.32s0,106.64,0,106.64h-107.68v535.69h107.98v-215.68h319.36l108.86,104.56.41,110.96,107.32.33-.51-111.29-105.23-109.25,106.54-100.89V120.85ZM1839.87,336.24h-267.74l-83.98,83-77.03-.03V122.55h428.76v213.69Z"/>
    <polygon class="cls-2" points="659.84 15.91 659.91 441.56 767.88 441.56 767.88 122.46 1088.89 122.46 1088.89 549.55 824 549.55 740.02 634.21 662.52 634.16 662.89 657.53 985.16 657.53 1088.89 552.15 1088.89 552.17 1196.88 444.93 1196.88 123.1 1088.89 15.91 659.84 15.91"/>
    <path class="cls-2" d="M16.59,15.72v213.46h106.23v-106.91h322.83v163.02H177.91l-83.98,84.65-77.5-.05v288.36l429.95-.72,107.26-106.58v-157.75l-55.78-55.03,55.78-55.39V122.91L445.65,15.72H16.59ZM445.65,549.2H123.89v-155.93h321.75v155.93Z"/>
  </g>
  <polygon class="cls-1" points="2665.93 175.68 2665.93 15.42 2207.97 14.77 2053.35 175.73 2054.15 336.98 2512.3 336.44 2665.93 175.68"/>
  <g>
    <path class="cls-3" d="M2253.2,81.43c28.07,0,45.53,17.46,45.53,45.36s-17.46,45.36-45.53,45.36-45.7-17.46-45.7-45.36,17.63-45.36,45.7-45.36ZM2253.2,155.03c16.77,0,25.5-10.1,25.5-28.24s-8.73-28.24-25.5-28.24-25.5,10.1-25.5,28.24,8.56,28.24,25.5,28.24Z"/>
    <path class="cls-3" d="M2404.67,41.21v106.12c0,4.79.34,5.99,5.13,5.13l9.76-1.71v18.83h-11.47c-12.67,0-22.25-8.39-22.25-19.68h-3.42c-4.28,13.86-14.38,22.25-31.84,22.25-25.5,0-39.54-17.46-39.54-45.36s14.03-45.36,39.54-45.36c18.31,0,27.56,8.39,31.84,22.25h3.42l-1.71-15.58v-46.9h20.54ZM2356.4,99.4c-16.43,0-24.82,9.76-24.82,27.39s8.39,27.39,24.82,27.39c18.31,0,26.87-11.13,26.87-27.39s-9.93-27.39-26.87-27.39Z"/>
    <path class="cls-3" d="M2472.1,81.43c28.07,0,45.53,17.46,45.53,45.36s-17.46,45.36-45.53,45.36-45.7-17.46-45.7-45.36,17.63-45.36,45.7-45.36ZM2472.1,155.03c16.77,0,25.5-10.1,25.5-28.24s-8.73-28.24-25.5-28.24-25.5,10.1-25.5,28.24,8.56,28.24,25.5,28.24Z"/>
    <path class="cls-3" d="M2575.65,81.43c28.07,0,45.53,17.46,45.53,45.36s-17.46,45.36-45.53,45.36-45.7-17.46-45.7-45.36,17.63-45.36,45.7-45.36ZM2575.65,155.03c16.77,0,25.5-10.1,25.5-28.24s-8.73-28.24-25.5-28.24-25.5,10.1-25.5,28.24,8.56,28.24,25.5,28.24Z"/>
  </g>
</svg>