<svg xmlns="http://www.w3.org/2000/svg" xmlns:xlink="http://www.w3.org/1999/xlink" width="50" zoomAndPan="magnify" viewBox="0 0 37.5 37.499999" height="50" preserveAspectRatio="xMidYMid meet" version="1.0"><defs><clipPath id="c24e262571"><path d="M 0 0 L 37.007812 0 L 37.007812 37.007812 L 0 37.007812 Z M 0 0 " clip-rule="nonzero"/></clipPath></defs><g clip-path="url(#c24e262571)"><path fill="#ffffff" d="M 0 0 L 37.007812 0 L 37.007812 37.007812 L 0 37.007812 Z M 0 0 " fill-opacity="1" fill-rule="nonzero"/><path fill="#ffffff" d="M 0 0 L 37.007812 0 L 37.007812 37.007812 L 0 37.007812 Z M 0 0 " fill-opacity="1" fill-rule="nonzero"/></g><path fill="#7e84ff" d="M 20.886719 11.417969 C 20.886719 15.742188 17.378906 19.246094 13.054688 19.246094 C 8.730469 19.246094 5.226562 15.742188 5.226562 11.417969 C 5.226562 7.09375 8.730469 3.585938 13.054688 3.585938 C 17.378906 3.585938 20.886719 7.09375 20.886719 11.417969 Z M 20.886719 11.417969 " fill-opacity="1" fill-rule="nonzero"/><path fill="#5217a1" d="M 32.628906 17.679688 C 32.628906 17.9375 32.605469 18.191406 32.554688 18.445312 C 32.503906 18.695312 32.429688 18.941406 32.332031 19.179688 C 32.234375 19.414062 32.113281 19.640625 31.96875 19.855469 C 31.828125 20.070312 31.664062 20.265625 31.484375 20.449219 C 31.300781 20.628906 31.101562 20.792969 30.890625 20.933594 C 30.675781 21.078125 30.449219 21.199219 30.210938 21.296875 C 29.976562 21.394531 29.730469 21.46875 29.476562 21.519531 C 29.226562 21.570312 28.972656 21.59375 28.714844 21.59375 C 28.457031 21.59375 28.203125 21.570312 27.949219 21.519531 C 27.699219 21.46875 27.453125 21.394531 27.214844 21.296875 C 26.980469 21.199219 26.753906 21.078125 26.539062 20.933594 C 26.328125 20.792969 26.128906 20.628906 25.945312 20.449219 C 25.765625 20.265625 25.601562 20.070312 25.460938 19.855469 C 25.316406 19.640625 25.195312 19.414062 25.097656 19.179688 C 25 18.941406 24.925781 18.695312 24.875 18.445312 C 24.824219 18.191406 24.800781 17.9375 24.800781 17.679688 C 24.800781 17.421875 24.824219 17.167969 24.875 16.917969 C 24.925781 16.664062 25 16.417969 25.097656 16.183594 C 25.195312 15.945312 25.316406 15.71875 25.460938 15.503906 C 25.601562 15.292969 25.765625 15.09375 25.945312 14.910156 C 26.128906 14.730469 26.328125 14.566406 26.539062 14.425781 C 26.753906 14.28125 26.980469 14.160156 27.214844 14.0625 C 27.453125 13.964844 27.699219 13.890625 27.949219 13.839844 C 28.203125 13.789062 28.457031 13.765625 28.714844 13.765625 C 28.972656 13.765625 29.226562 13.789062 29.476562 13.839844 C 29.730469 13.890625 29.976562 13.964844 30.210938 14.0625 C 30.449219 14.160156 30.675781 14.28125 30.890625 14.425781 C 31.101562 14.566406 31.300781 14.730469 31.484375 14.910156 C 31.664062 15.09375 31.828125 15.292969 31.96875 15.503906 C 32.113281 15.71875 32.234375 15.945312 32.332031 16.183594 C 32.429688 16.417969 32.503906 16.664062 32.554688 16.917969 C 32.605469 17.167969 32.628906 17.421875 32.628906 17.679688 Z M 11.492188 23.160156 L 31.847656 23.160156 C 32.261719 23.160156 32.660156 23.238281 33.042969 23.398438 C 33.429688 23.558594 33.765625 23.785156 34.0625 24.078125 C 34.355469 24.371094 34.582031 24.710938 34.738281 25.09375 C 34.898438 25.476562 34.976562 25.875 34.976562 26.292969 L 34.976562 30.207031 C 34.976562 30.621094 34.898438 31.019531 34.738281 31.40625 C 34.582031 31.789062 34.355469 32.128906 34.0625 32.421875 C 33.765625 32.714844 33.429688 32.941406 33.042969 33.101562 C 32.660156 33.257812 32.261719 33.339844 31.847656 33.339844 L 11.492188 33.339844 Z M 11.492188 23.160156 " fill-opacity="1" fill-rule="nonzero"/><path fill="#7e84ff" d="M 2.09375 23.160156 L 14.621094 23.160156 C 20.242188 23.160156 24.800781 27.71875 24.800781 33.339844 L 12.273438 33.339844 C 6.652344 33.339844 2.09375 28.78125 2.09375 23.160156 Z M 2.09375 23.160156 " fill-opacity="1" fill-rule="nonzero"/><path fill="#ffffff" d="M 17.402344 8.386719 L 16.519531 7.5 L 12.191406 11.851562 L 9.589844 9.242188 L 8.710938 10.125 C 8.597656 10.238281 8.511719 10.371094 8.449219 10.519531 C 8.390625 10.667969 8.359375 10.820312 8.359375 10.980469 C 8.359375 11.140625 8.390625 11.296875 8.449219 11.445312 C 8.511719 11.59375 8.597656 11.722656 8.710938 11.835938 L 12.1875 15.332031 L 17.402344 10.097656 C 17.515625 9.984375 17.601562 9.851562 17.664062 9.703125 C 17.722656 9.554688 17.753906 9.402344 17.753906 9.242188 C 17.753906 9.082031 17.722656 8.925781 17.664062 8.777344 C 17.601562 8.628906 17.515625 8.5 17.402344 8.386719 Z M 17.402344 8.386719 " fill-opacity="1" fill-rule="nonzero"/></svg>