<svg xmlns="http://www.w3.org/2000/svg" xmlns:xlink="http://www.w3.org/1999/xlink" width="50" zoomAndPan="magnify" viewBox="0 0 37.5 37.499999" height="50" preserveAspectRatio="xMidYMid meet" version="1.0"><defs><clipPath id="95d2038fa1"><path d="M 12 0.667969 L 31 0.667969 L 31 27 L 12 27 Z M 12 0.667969 " clip-rule="nonzero"/></clipPath><clipPath id="2eb8c348dd"><path d="M 6 10 L 25 10 L 25 36.191406 L 6 36.191406 Z M 6 10 " clip-rule="nonzero"/></clipPath></defs><g clip-path="url(#95d2038fa1)"><path fill="#088bf5" d="M 12.792969 3.511719 C 12.792969 2.09375 14.21875 0.667969 15.644531 0.667969 L 30.625 0.667969 L 30.625 25.632812 C 30.625 25.917969 30.496094 26.128906 30.242188 26.265625 C 29.984375 26.398438 29.738281 26.382812 29.503906 26.214844 L 23.492188 22.066406 C 22.421875 21.351562 20.996094 21.351562 19.925781 22.066406 L 13.914062 26.214844 C 13.675781 26.382812 13.429688 26.398438 13.175781 26.265625 C 12.921875 26.128906 12.792969 25.917969 12.792969 25.632812 Z M 12.792969 3.511719 " fill-opacity="1" fill-rule="nonzero"/></g><g clip-path="url(#2eb8c348dd)"><path fill="#7e84ff" d="M 6.371094 13.5 C 6.371094 12.078125 7.800781 10.652344 9.226562 10.652344 L 24.203125 10.652344 L 24.203125 35.617188 C 24.203125 35.90625 24.078125 36.117188 23.820312 36.25 C 23.566406 36.382812 23.320312 36.367188 23.082031 36.203125 L 17.070312 32.050781 C 16.003906 31.339844 14.574219 31.339844 13.503906 32.050781 L 7.492188 36.203125 C 7.257812 36.367188 7.011719 36.382812 6.757812 36.25 C 6.5 36.117188 6.371094 35.90625 6.371094 35.617188 Z M 6.371094 13.5 " fill-opacity="1" fill-rule="nonzero"/></g><path fill="#5217a1" d="M 24.203125 22.535156 L 23.492188 22.066406 C 22.421875 21.351562 20.996094 21.351562 19.925781 22.066406 L 13.914062 26.214844 C 13.675781 26.382812 13.429688 26.398438 13.175781 26.265625 C 12.921875 26.128906 12.792969 25.917969 12.792969 25.632812 L 12.792969 10.652344 L 24.203125 10.652344 Z M 24.203125 22.535156 " fill-opacity="1" fill-rule="nonzero"/></svg>