<svg xmlns="http://www.w3.org/2000/svg" xmlns:xlink="http://www.w3.org/1999/xlink" width="50" zoomAndPan="magnify" viewBox="0 0 37.5 37.499999" height="50" preserveAspectRatio="xMidYMid meet" version="1.0"><defs><clipPath id="1291a68df1"><path d="M 0 0 L 37.007812 0 L 37.007812 37.007812 L 0 37.007812 Z M 0 0 " clip-rule="nonzero"/></clipPath><clipPath id="ef7608a61e"><path d="M 4 7 L 35.894531 7 L 35.894531 19 L 4 19 Z M 4 7 " clip-rule="nonzero"/></clipPath><clipPath id="30458aaebb"><path d="M 1.109375 18 L 33 18 L 33 31 L 1.109375 31 Z M 1.109375 18 " clip-rule="nonzero"/></clipPath><clipPath id="9984d12717"><path d="M 1.109375 12 L 35.894531 12 L 35.894531 25 L 1.109375 25 Z M 1.109375 12 " clip-rule="nonzero"/></clipPath><clipPath id="14802ee4b5"><path d="M 1.109375 18 L 19 18 L 19 25 L 1.109375 25 Z M 1.109375 18 " clip-rule="nonzero"/></clipPath></defs><g clip-path="url(#1291a68df1)"><path fill="#ffffff" d="M 0 0 L 37.007812 0 L 37.007812 37.007812 L 0 37.007812 Z M 0 0 " fill-opacity="1" fill-rule="nonzero"/><path fill="#ffffff" d="M 0 0 L 37.007812 0 L 37.007812 37.007812 L 0 37.007812 Z M 0 0 " fill-opacity="1" fill-rule="nonzero"/></g><g clip-path="url(#ef7608a61e)"><path fill="#088bf5" d="M 16.34375 12.9375 L 4.589844 12.9375 L 4.589844 10.15625 C 4.589844 9.785156 4.660156 9.429688 4.800781 9.089844 C 4.941406 8.75 5.144531 8.449219 5.402344 8.1875 C 5.664062 7.925781 5.964844 7.726562 6.308594 7.582031 C 6.648438 7.441406 7.003906 7.371094 7.371094 7.371094 L 18.390625 7.371094 L 23.5 12.9375 L 33.113281 12.9375 C 33.484375 12.9375 33.835938 13.007812 34.179688 13.148438 C 34.519531 13.289062 34.820312 13.492188 35.082031 13.753906 C 35.34375 14.011719 35.542969 14.316406 35.683594 14.65625 C 35.824219 14.996094 35.894531 15.351562 35.894531 15.71875 L 35.894531 18.503906 L 21.457031 18.503906 Z M 16.34375 12.9375 " fill-opacity="1" fill-rule="evenodd"/></g><g clip-path="url(#30458aaebb)"><path fill="#7e84ff" d="M 12.777344 24.070312 L 1.109375 24.070312 L 1.109375 21.285156 C 1.109375 20.917969 1.179688 20.5625 1.320312 20.222656 C 1.464844 19.878906 1.664062 19.578125 1.925781 19.320312 C 2.1875 19.058594 2.488281 18.855469 2.828125 18.714844 C 3.167969 18.574219 3.523438 18.503906 3.894531 18.503906 L 15 18.503906 L 20.109375 24.765625 L 29.636719 24.765625 C 30.003906 24.765625 30.359375 24.835938 30.699219 24.976562 C 31.039062 25.117188 31.339844 25.320312 31.601562 25.578125 C 31.863281 25.839844 32.066406 26.140625 32.207031 26.484375 C 32.347656 26.824219 32.417969 27.179688 32.417969 27.546875 L 32.417969 30.332031 L 17.890625 30.332031 Z M 12.777344 24.070312 " fill-opacity="1" fill-rule="evenodd"/></g><g clip-path="url(#9984d12717)"><path fill="#2ebcfa" d="M 22.835938 18.503906 L 35.894531 18.503906 L 35.894531 15.71875 C 35.894531 15.351562 35.824219 14.996094 35.683594 14.65625 C 35.542969 14.316406 35.34375 14.011719 35.082031 13.753906 C 34.820312 13.492188 34.519531 13.289062 34.179688 13.148438 C 33.835938 13.007812 33.484375 12.9375 33.113281 12.9375 L 20.5625 12.9375 L 14.882812 18.503906 L 3.894531 18.503906 C 3.523438 18.503906 3.167969 18.574219 2.828125 18.714844 C 2.488281 18.855469 2.1875 19.058594 1.925781 19.320312 C 1.664062 19.578125 1.464844 19.878906 1.320312 20.222656 C 1.179688 20.5625 1.109375 20.917969 1.109375 21.285156 L 1.109375 24.070312 L 17.15625 24.070312 Z M 22.835938 18.503906 " fill-opacity="1" fill-rule="evenodd"/></g><g clip-path="url(#14802ee4b5)"><path fill="#5217a1" d="M 18.480469 22.769531 L 15 18.503906 L 3.894531 18.503906 C 3.523438 18.503906 3.167969 18.574219 2.828125 18.714844 C 2.488281 18.859375 2.1875 19.058594 1.925781 19.320312 C 1.664062 19.582031 1.464844 19.882812 1.324219 20.222656 C 1.179688 20.5625 1.109375 20.917969 1.109375 21.285156 L 1.109375 24.070312 L 17.15625 24.070312 Z M 18.480469 22.769531 " fill-opacity="1" fill-rule="nonzero"/></g></svg>