<svg xmlns="http://www.w3.org/2000/svg" xmlns:xlink="http://www.w3.org/1999/xlink" width="50" zoomAndPan="magnify" viewBox="0 0 37.5 37.499999" height="50" preserveAspectRatio="xMidYMid meet" version="1.0"><path fill="#5217a1" d="M 34.785156 20.722656 C 34.785156 20.117188 34.757812 19.511719 34.695312 18.910156 C 34.636719 18.308594 34.550781 17.707031 34.429688 17.113281 C 34.3125 16.519531 34.164062 15.933594 33.988281 15.351562 C 33.8125 14.773438 33.609375 14.203125 33.378906 13.644531 C 33.144531 13.082031 32.886719 12.535156 32.601562 12 C 32.316406 11.46875 32.003906 10.949219 31.667969 10.445312 C 31.332031 9.941406 30.96875 9.453125 30.585938 8.984375 C 30.203125 8.515625 29.796875 8.070312 29.367188 7.640625 C 28.9375 7.210938 28.488281 6.804688 28.019531 6.421875 C 27.554688 6.035156 27.066406 5.675781 26.5625 5.339844 C 26.058594 5.003906 25.539062 4.691406 25.003906 4.40625 C 24.472656 4.121094 23.921875 3.859375 23.363281 3.628906 C 22.804688 3.398438 22.234375 3.191406 21.652344 3.015625 C 21.074219 2.839844 20.488281 2.695312 19.894531 2.574219 C 19.296875 2.457031 18.699219 2.367188 18.097656 2.308594 C 17.492188 2.25 16.890625 2.21875 16.28125 2.21875 L 16.28125 20.722656 Z M 34.785156 20.722656 " fill-opacity="1" fill-rule="nonzero"/><path fill="#088bf5" d="M 28.863281 23.683594 C 28.863281 22.664062 28.765625 21.652344 28.566406 20.652344 C 28.367188 19.652344 28.074219 18.679688 27.683594 17.738281 C 27.292969 16.792969 26.8125 15.898438 26.246094 15.050781 C 25.679688 14.199219 25.035156 13.414062 24.3125 12.695312 C 23.589844 11.972656 22.804688 11.328125 21.957031 10.761719 C 21.109375 10.195312 20.214844 9.714844 19.269531 9.324219 C 18.328125 8.933594 17.355469 8.640625 16.355469 8.441406 C 15.355469 8.242188 14.34375 8.140625 13.324219 8.140625 L 13.324219 23.683594 Z M 28.863281 23.683594 " fill-opacity="1" fill-rule="nonzero"/><path fill="#144496" d="M 28.582031 20.722656 C 28.433594 19.96875 28.230469 19.226562 27.976562 18.5 C 27.71875 17.773438 27.410156 17.070312 27.046875 16.390625 C 26.683594 15.710938 26.277344 15.058594 25.816406 14.441406 C 25.359375 13.820312 24.859375 13.238281 24.3125 12.695312 C 23.769531 12.148438 23.1875 11.648438 22.566406 11.1875 C 21.945312 10.730469 21.296875 10.320312 20.617188 9.960938 C 19.9375 9.597656 19.234375 9.289062 18.507812 9.03125 C 17.78125 8.773438 17.039062 8.574219 16.28125 8.425781 L 16.28125 20.722656 Z M 28.582031 20.722656 " fill-opacity="1" fill-rule="nonzero"/><path fill="#2ebcfa" d="M 5.136719 21.773438 C 5.339844 20.640625 6.183594 19.683594 7.304688 19.316406 L 16.601562 16.28125 C 16.601562 16.28125 18.726562 16.527344 19.601562 17.382812 C 20.476562 18.242188 20.722656 20.320312 20.722656 20.320312 L 17.597656 29.484375 C 17.410156 30.023438 17.101562 30.480469 16.671875 30.855469 C 16.238281 31.230469 15.746094 31.476562 15.183594 31.589844 L 2.960938 34.046875 Z M 5.136719 21.773438 " fill-opacity="1" fill-rule="nonzero"/></svg>