<svg xmlns="http://www.w3.org/2000/svg" xmlns:xlink="http://www.w3.org/1999/xlink" width="50" zoomAndPan="magnify" viewBox="0 0 37.5 37.499999" height="50" preserveAspectRatio="xMidYMid meet" version="1.0"><defs><clipPath id="12b1f76fbe"><path d="M 0 0 L 37.007812 0 L 37.007812 37.007812 L 0 37.007812 Z M 0 0 " clip-rule="nonzero"/></clipPath><clipPath id="67d598c282"><path d="M 22 18 L 36.265625 18 L 36.265625 32 L 22 32 Z M 22 18 " clip-rule="nonzero"/></clipPath></defs><g clip-path="url(#12b1f76fbe)"><path fill="#ffffff" d="M 0 0 L 37.007812 0 L 37.007812 37.007812 L 0 37.007812 Z M 0 0 " fill-opacity="1" fill-rule="nonzero"/><path fill="#ffffff" d="M 0 0 L 37.007812 0 L 37.007812 37.007812 L 0 37.007812 Z M 0 0 " fill-opacity="1" fill-rule="nonzero"/></g><path fill="#7e84ff" d="M 11.558594 27.449219 C 13.722656 27.449219 15.890625 26.726562 15.890625 23.835938 C 15.890625 20.949219 14.226562 19.503906 11.558594 19.503906 C 11.558594 19.214844 11.613281 18.9375 11.722656 18.671875 C 11.832031 18.40625 11.988281 18.171875 12.191406 17.96875 C 12.394531 17.765625 12.628906 17.609375 12.894531 17.5 C 13.160156 17.390625 13.4375 17.335938 13.722656 17.335938 L 16.613281 17.335938 C 19.207031 18.273438 20.949219 20.226562 20.949219 23.835938 C 20.949219 29.613281 16.613281 31.78125 11.558594 31.78125 C 6.5 31.78125 2.890625 29.613281 2.890625 23.835938 L 7.945312 23.835938 C 7.945312 26.003906 9.390625 27.449219 11.558594 27.449219 Z M 11.558594 27.449219 " fill-opacity="1" fill-rule="nonzero"/><path fill="#2ebcfa" d="M 16.613281 17.335938 L 13 17.335938 C 12.808594 17.335938 12.625 17.300781 12.449219 17.226562 C 12.273438 17.152344 12.117188 17.046875 11.980469 16.914062 C 11.84375 16.777344 11.742188 16.621094 11.667969 16.445312 C 11.59375 16.265625 11.558594 16.082031 11.558594 15.890625 C 14.445312 15.890625 15.167969 13.722656 15.167969 12.28125 C 15.167969 10.113281 13.75 8.667969 11.558594 8.667969 C 9.390625 8.667969 7.945312 10.113281 7.945312 11.558594 L 2.890625 11.558594 C 2.890625 6.945312 7.222656 4.332031 11.558594 4.332031 C 15.890625 4.332031 20.226562 7.222656 20.226562 11.558594 C 20.226562 15.890625 16.613281 17.335938 16.613281 17.335938 Z M 16.613281 17.335938 " fill-opacity="1" fill-rule="nonzero"/><path fill="#5217a1" d="M 16.613281 17.335938 L 11.558594 19.503906 L 8.667969 19.503906 L 8.667969 18.058594 C 8.667969 16.613281 9.390625 15.890625 11.558594 15.890625 Z M 16.613281 17.335938 " fill-opacity="1" fill-rule="nonzero"/><path fill="#7e84ff" d="M 28.171875 5.296875 L 23.113281 8.667969 L 22.390625 13.003906 L 28.171875 10.113281 Z M 28.171875 5.296875 " fill-opacity="1" fill-rule="nonzero"/><path fill="#5217a1" d="M 28.171875 5.296875 L 29.613281 4.332031 L 30.335938 4.332031 C 31.78125 4.332031 33.226562 5.777344 33.226562 7.222656 L 33.226562 7.945312 L 28.171875 10.113281 Z M 28.171875 5.296875 " fill-opacity="1" fill-rule="nonzero"/><path fill="#2ebcfa" d="M 33.226562 26.726562 L 33.226562 7.945312 L 28.171875 10.113281 L 28.171875 26.726562 Z M 33.226562 26.726562 " fill-opacity="1" fill-rule="nonzero"/><g clip-path="url(#67d598c282)"><path fill="#5217a1" d="M 36.117188 24.921875 C 36.117188 25.371094 36.070312 25.816406 35.984375 26.257812 C 35.894531 26.699219 35.765625 27.128906 35.59375 27.546875 C 35.421875 27.960938 35.210938 28.359375 34.960938 28.734375 C 34.710938 29.105469 34.425781 29.453125 34.105469 29.773438 C 33.789062 30.089844 33.441406 30.375 33.066406 30.625 C 32.691406 30.875 32.296875 31.085938 31.878906 31.261719 C 31.464844 31.433594 31.035156 31.5625 30.59375 31.648438 C 30.152344 31.738281 29.703125 31.78125 29.253906 31.78125 C 28.804688 31.78125 28.355469 31.738281 27.914062 31.648438 C 27.472656 31.5625 27.042969 31.433594 26.628906 31.261719 C 26.210938 31.085938 25.816406 30.875 25.441406 30.625 C 25.066406 30.375 24.71875 30.089844 24.402344 29.773438 C 24.082031 29.453125 23.796875 29.105469 23.546875 28.734375 C 23.296875 28.359375 23.085938 27.960938 22.914062 27.546875 C 22.742188 27.128906 22.613281 26.699219 22.523438 26.257812 C 22.4375 25.816406 22.390625 25.371094 22.390625 24.921875 C 22.390625 24.46875 22.4375 24.023438 22.523438 23.582031 C 22.613281 23.140625 22.742188 22.710938 22.914062 22.292969 C 23.085938 21.878906 23.296875 21.480469 23.546875 21.109375 C 23.796875 20.734375 24.082031 20.386719 24.402344 20.066406 C 24.71875 19.75 25.066406 19.464844 25.441406 19.214844 C 25.816406 18.964844 26.210938 18.753906 26.628906 18.582031 C 27.042969 18.40625 27.472656 18.277344 27.914062 18.191406 C 28.355469 18.101562 28.804688 18.058594 29.253906 18.058594 C 29.703125 18.058594 30.152344 18.101562 30.59375 18.191406 C 31.035156 18.277344 31.464844 18.40625 31.878906 18.582031 C 32.296875 18.753906 32.691406 18.964844 33.066406 19.214844 C 33.441406 19.464844 33.789062 19.75 34.105469 20.066406 C 34.425781 20.386719 34.710938 20.734375 34.960938 21.109375 C 35.210938 21.480469 35.421875 21.878906 35.59375 22.292969 C 35.765625 22.710938 35.894531 23.140625 35.984375 23.582031 C 36.070312 24.023438 36.117188 24.46875 36.117188 24.921875 Z M 36.117188 24.921875 " fill-opacity="1" fill-rule="nonzero"/></g><path fill="#ffffff" d="M 32.957031 22.257812 L 32.207031 21.488281 L 28.515625 25.269531 L 26.300781 23 L 25.550781 23.769531 C 25.351562 23.976562 25.25 24.222656 25.25 24.511719 C 25.25 24.800781 25.351562 25.050781 25.550781 25.257812 L 28.511719 28.292969 L 32.957031 23.746094 C 33.15625 23.539062 33.257812 23.289062 33.257812 23 C 33.257812 22.710938 33.15625 22.464844 32.957031 22.257812 Z M 32.957031 22.257812 " fill-opacity="1" fill-rule="nonzero"/></svg>