<svg xmlns="http://www.w3.org/2000/svg" xmlns:xlink="http://www.w3.org/1999/xlink" width="50" zoomAndPan="magnify" viewBox="0 0 37.5 37.499999" height="50" preserveAspectRatio="xMidYMid meet" version="1.0"><defs><clipPath id="960c30cdf5"><path d="M 1.40625 9 L 36.191406 9 L 36.191406 31 L 1.40625 31 Z M 1.40625 9 " clip-rule="nonzero"/></clipPath><clipPath id="6184c4c504"><path d="M 1.40625 6 L 36.191406 6 L 36.191406 16 L 1.40625 16 Z M 1.40625 6 " clip-rule="nonzero"/></clipPath><clipPath id="75b8e1d5ec"><path d="M 1.40625 12 L 36.191406 12 L 36.191406 19 L 1.40625 19 Z M 1.40625 12 " clip-rule="nonzero"/></clipPath></defs><g clip-path="url(#960c30cdf5)"><path fill="#5217a1" d="M 1.40625 9.71875 L 36.042969 9.71875 L 36.042969 27.730469 C 36.042969 28.097656 35.972656 28.449219 35.832031 28.789062 C 35.691406 29.128906 35.492188 29.429688 35.230469 29.6875 C 34.96875 29.949219 34.671875 30.148438 34.332031 30.289062 C 33.992188 30.429688 33.636719 30.5 33.269531 30.5 L 1.40625 30.5 Z M 1.40625 9.71875 " fill-opacity="1" fill-rule="nonzero"/></g><g clip-path="url(#6184c4c504)"><path fill="#2ebcfa" d="M 4.175781 15.953125 C 3.808594 15.953125 3.457031 15.882812 3.117188 15.742188 C 2.777344 15.601562 2.476562 15.402344 2.21875 15.140625 C 1.957031 14.882812 1.757812 14.582031 1.617188 14.242188 C 1.476562 13.902344 1.40625 13.550781 1.40625 13.183594 L 1.40625 9.71875 C 1.40625 9.351562 1.476562 8.996094 1.617188 8.660156 C 1.757812 8.320312 1.957031 8.019531 2.21875 7.757812 C 2.476562 7.5 2.777344 7.300781 3.117188 7.160156 C 3.457031 7.019531 3.808594 6.949219 4.175781 6.949219 L 36.042969 6.949219 L 36.042969 13.183594 C 36.042969 13.550781 35.972656 13.902344 35.832031 14.242188 C 35.691406 14.582031 35.492188 14.882812 35.230469 15.140625 C 34.96875 15.402344 34.671875 15.601562 34.332031 15.742188 C 33.992188 15.882812 33.636719 15.953125 33.269531 15.953125 Z M 4.175781 15.953125 " fill-opacity="1" fill-rule="nonzero"/></g><g clip-path="url(#75b8e1d5ec)"><path fill="#7e84ff" d="M 1.40625 12.488281 L 36.042969 12.488281 L 36.042969 15.261719 C 36.042969 15.628906 35.972656 15.980469 35.832031 16.320312 C 35.691406 16.660156 35.492188 16.960938 35.230469 17.21875 C 34.96875 17.480469 34.671875 17.679688 34.332031 17.820312 C 33.992188 17.960938 33.636719 18.03125 33.269531 18.03125 L 4.175781 18.03125 C 3.808594 18.03125 3.457031 17.960938 3.117188 17.820312 C 2.777344 17.679688 2.476562 17.480469 2.21875 17.21875 C 1.957031 16.960938 1.757812 16.660156 1.617188 16.320312 C 1.476562 15.980469 1.40625 15.628906 1.40625 15.261719 Z M 1.40625 12.488281 " fill-opacity="1" fill-rule="nonzero"/></g></svg>