<svg xmlns="http://www.w3.org/2000/svg" xmlns:xlink="http://www.w3.org/1999/xlink" width="50" zoomAndPan="magnify" viewBox="0 0 37.5 37.499999" height="50" preserveAspectRatio="xMidYMid meet" version="1.0"><defs><clipPath id="701a7cb3e5"><path d="M 0 0 L 37.007812 0 L 37.007812 37.007812 L 0 37.007812 Z M 0 0 " clip-rule="nonzero"/></clipPath></defs><g clip-path="url(#701a7cb3e5)"><path fill="#ffffff" d="M 0 0 L 37.007812 0 L 37.007812 37.007812 L 0 37.007812 Z M 0 0 " fill-opacity="1" fill-rule="nonzero"/><path fill="#ffffff" d="M 0 0 L 37.007812 0 L 37.007812 37.007812 L 0 37.007812 Z M 0 0 " fill-opacity="1" fill-rule="nonzero"/></g><path fill="#5217a1" d="M 2.960938 18.503906 C 2.960938 9.917969 9.917969 2.960938 18.503906 2.960938 C 27.085938 2.960938 34.046875 9.917969 34.046875 18.503906 C 34.046875 27.085938 27.085938 34.046875 18.503906 34.046875 L 5.261719 34.046875 C 4.957031 34.046875 4.664062 33.988281 4.382812 33.871094 C 4.101562 33.753906 3.851562 33.585938 3.636719 33.371094 C 3.417969 33.15625 3.253906 32.90625 3.136719 32.625 C 3.019531 32.34375 2.960938 32.050781 2.960938 31.742188 Z M 2.960938 18.503906 " fill-opacity="1" fill-rule="nonzero"/><path fill="#7e84ff" d="M 4.269531 33.820312 C 17.726562 32.089844 28.125 20.589844 28.125 6.660156 C 28.125 6.539062 28.125 6.417969 28.121094 6.292969 C 26.753906 5.210938 25.242188 4.386719 23.59375 3.8125 C 21.945312 3.242188 20.25 2.957031 18.503906 2.960938 C 9.917969 2.960938 2.960938 9.917969 2.960938 18.503906 L 2.960938 31.742188 C 2.960938 32.660156 3.496094 33.449219 4.269531 33.820312 Z M 4.269531 33.820312 " fill-opacity="1" fill-rule="nonzero"/></svg>