<svg xmlns="http://www.w3.org/2000/svg" xmlns:xlink="http://www.w3.org/1999/xlink" width="50" zoomAndPan="magnify" viewBox="0 0 37.5 37.499999" height="50" preserveAspectRatio="xMidYMid meet" version="1.0"><path fill="#2ebcfa" d="M 20.734375 11.496094 C 20.734375 15.746094 17.285156 19.195312 13.035156 19.195312 C 8.785156 19.195312 5.339844 15.746094 5.339844 11.496094 C 5.339844 7.246094 8.785156 3.796875 13.035156 3.796875 C 17.285156 3.796875 20.734375 7.246094 20.734375 11.496094 Z M 20.734375 11.496094 " fill-opacity="1" fill-rule="nonzero"/><path fill="#144496" d="M 32.277344 17.652344 C 32.277344 18.164062 32.179688 18.65625 31.984375 19.125 C 31.789062 19.597656 31.511719 20.015625 31.152344 20.375 C 30.789062 20.734375 30.375 21.015625 29.902344 21.210938 C 29.429688 21.40625 28.941406 21.503906 28.429688 21.503906 C 27.921875 21.503906 27.429688 21.40625 26.957031 21.210938 C 26.484375 21.015625 26.070312 20.734375 25.707031 20.375 C 25.347656 20.015625 25.070312 19.597656 24.875 19.125 C 24.679688 18.65625 24.582031 18.164062 24.582031 17.652344 C 24.582031 17.144531 24.679688 16.652344 24.875 16.179688 C 25.070312 15.710938 25.347656 15.292969 25.707031 14.933594 C 26.070312 14.570312 26.484375 14.292969 26.957031 14.097656 C 27.429688 13.902344 27.921875 13.804688 28.429688 13.804688 C 28.941406 13.804688 29.429688 13.902344 29.902344 14.097656 C 30.375 14.292969 30.789062 14.570312 31.152344 14.933594 C 31.511719 15.292969 31.789062 15.710938 31.984375 16.179688 C 32.179688 16.652344 32.277344 17.144531 32.277344 17.652344 Z M 11.496094 23.042969 L 31.507812 23.042969 C 31.917969 23.042969 32.308594 23.121094 32.6875 23.277344 C 33.066406 23.433594 33.398438 23.65625 33.6875 23.945312 C 33.976562 24.234375 34.199219 24.566406 34.355469 24.941406 C 34.511719 25.320312 34.589844 25.710938 34.589844 26.121094 L 34.589844 29.96875 C 34.589844 30.378906 34.511719 30.769531 34.355469 31.148438 C 34.199219 31.523438 33.976562 31.859375 33.6875 32.148438 C 33.398438 32.4375 33.066406 32.65625 32.6875 32.8125 C 32.308594 32.96875 31.917969 33.046875 31.507812 33.046875 L 14.574219 33.046875 C 14.167969 33.046875 13.773438 32.96875 13.398438 32.8125 C 13.019531 32.65625 12.6875 32.4375 12.398438 32.148438 C 12.109375 31.859375 11.886719 31.523438 11.730469 31.148438 C 11.574219 30.769531 11.496094 30.378906 11.496094 29.96875 Z M 11.496094 23.042969 " fill-opacity="1" fill-rule="nonzero"/><path fill="#2ebcfa" d="M 2.257812 23.042969 L 14.574219 23.042969 C 20.101562 23.042969 24.582031 27.523438 24.582031 33.046875 L 12.265625 33.046875 C 6.738281 33.046875 2.257812 28.570312 2.257812 23.042969 Z M 2.257812 23.042969 " fill-opacity="1" fill-rule="nonzero"/><path fill="#ffffff" d="M 12.742188 16.113281 L 13.347656 16.113281 L 13.347656 15.238281 C 15.003906 15.136719 16.113281 14.320312 16.113281 12.960938 L 16.113281 12.953125 C 16.113281 11.753906 15.347656 11.15625 13.835938 10.824219 L 13.347656 10.722656 L 13.347656 9.175781 C 13.878906 9.261719 14.226562 9.554688 14.300781 10.050781 L 14.308594 10.0625 L 15.992188 10.058594 L 15.996094 10.050781 C 15.9375 8.753906 14.96875 7.886719 13.347656 7.773438 L 13.347656 6.878906 L 12.742188 6.878906 L 12.742188 7.769531 C 11.164062 7.84375 10.03125 8.65625 10.03125 9.992188 L 10.03125 10.003906 C 10.03125 11.207031 10.824219 11.851562 12.257812 12.167969 L 12.742188 12.269531 L 12.742188 13.847656 C 12.113281 13.789062 11.746094 13.527344 11.664062 13.058594 L 11.65625 13.046875 L 9.96875 13.054688 L 9.957031 13.058594 C 10 14.425781 11.105469 15.179688 12.742188 15.242188 Z M 11.828125 9.859375 L 11.828125 9.847656 C 11.828125 9.464844 12.140625 9.21875 12.742188 9.164062 L 12.742188 10.585938 C 12.117188 10.417969 11.828125 10.210938 11.828125 9.859375 Z M 14.316406 13.15625 L 14.316406 13.164062 C 14.316406 13.578125 13.96875 13.796875 13.347656 13.847656 L 13.347656 12.402344 C 14.042969 12.578125 14.316406 12.757812 14.316406 13.15625 Z M 14.316406 13.15625 " fill-opacity="1" fill-rule="nonzero"/></svg>