<svg xmlns="http://www.w3.org/2000/svg" xmlns:xlink="http://www.w3.org/1999/xlink" width="50" zoomAndPan="magnify" viewBox="0 0 37.5 37.499999" height="50" preserveAspectRatio="xMidYMid meet" version="1.0"><path fill="#5cc0ff" d="M 22.628906 11.03125 C 22.910156 10.753906 23.230469 10.539062 23.597656 10.386719 C 23.960938 10.234375 24.34375 10.160156 24.738281 10.160156 C 25.132812 10.160156 25.515625 10.234375 25.878906 10.386719 C 26.246094 10.539062 26.566406 10.753906 26.847656 11.03125 L 33.171875 17.359375 C 33.453125 17.636719 33.667969 17.960938 33.820312 18.324219 C 33.96875 18.691406 34.046875 19.070312 34.046875 19.46875 C 34.046875 19.863281 33.96875 20.242188 33.820312 20.609375 C 33.667969 20.972656 33.453125 21.296875 33.171875 21.574219 L 21.574219 33.171875 C 21.296875 33.453125 20.972656 33.667969 20.609375 33.820312 C 20.242188 33.972656 19.863281 34.046875 19.46875 34.046875 C 19.070312 34.046875 18.691406 33.972656 18.324219 33.820312 C 17.960938 33.667969 17.636719 33.453125 17.359375 33.171875 L 11.03125 26.847656 C 10.753906 26.566406 10.539062 26.246094 10.386719 25.878906 C 10.234375 25.515625 10.160156 25.132812 10.160156 24.738281 C 10.160156 24.34375 10.234375 23.964844 10.386719 23.597656 C 10.539062 23.230469 10.753906 22.910156 11.03125 22.628906 Z M 22.628906 11.03125 " fill-opacity="1" fill-rule="nonzero"/><path fill="#7e84ff" d="M 13.855469 6.695312 C 14.007812 6.332031 14.222656 6.007812 14.503906 5.730469 C 14.78125 5.449219 15.105469 5.234375 15.46875 5.082031 C 15.835938 4.929688 16.214844 4.855469 16.609375 4.855469 C 17.007812 4.855469 17.386719 4.929688 17.753906 5.082031 L 26.015625 8.503906 C 26.382812 8.65625 26.703125 8.871094 26.984375 9.152344 C 27.265625 9.433594 27.480469 9.753906 27.628906 10.121094 C 27.78125 10.484375 27.859375 10.863281 27.859375 11.261719 C 27.859375 11.65625 27.78125 12.035156 27.628906 12.402344 L 21.355469 27.554688 C 21.203125 27.917969 20.988281 28.242188 20.707031 28.519531 C 20.429688 28.800781 20.105469 29.015625 19.742188 29.167969 C 19.375 29.320312 18.996094 29.394531 18.601562 29.394531 C 18.203125 29.394531 17.824219 29.320312 17.457031 29.167969 L 9.195312 25.742188 C 8.828125 25.59375 8.507812 25.378906 8.226562 25.097656 C 7.945312 24.816406 7.730469 24.496094 7.582031 24.128906 C 7.429688 23.765625 7.351562 23.382812 7.351562 22.988281 C 7.351562 22.59375 7.429688 22.214844 7.582031 21.847656 Z M 13.855469 6.695312 " fill-opacity="1" fill-rule="nonzero"/><path fill="#5217a1" d="M 27.773438 11.960938 C 27.738281 12.109375 27.691406 12.257812 27.632812 12.402344 L 21.355469 27.554688 C 21.203125 27.917969 20.988281 28.242188 20.707031 28.519531 C 20.429688 28.800781 20.105469 29.015625 19.742188 29.167969 C 19.375 29.320312 18.996094 29.394531 18.597656 29.394531 C 18.203125 29.394531 17.824219 29.320312 17.457031 29.167969 L 10.621094 26.335938 C 10.441406 26.050781 10.3125 25.742188 10.234375 25.410156 C 10.160156 25.082031 10.140625 24.746094 10.175781 24.410156 C 10.214844 24.074219 10.308594 23.753906 10.453125 23.449219 C 10.601562 23.140625 10.792969 22.871094 11.03125 22.628906 L 22.628906 11.03125 C 22.910156 10.753906 23.230469 10.539062 23.597656 10.386719 C 23.960938 10.234375 24.34375 10.160156 24.738281 10.160156 C 25.132812 10.160156 25.515625 10.234375 25.878906 10.386719 C 26.246094 10.539062 26.566406 10.753906 26.847656 11.03125 Z M 27.773438 11.960938 " fill-opacity="1" fill-rule="nonzero"/><path fill="#2ebcfa" d="M 2.960938 5.941406 C 2.960938 5.546875 3.035156 5.167969 3.1875 4.800781 C 3.339844 4.4375 3.554688 4.113281 3.832031 3.832031 C 4.113281 3.554688 4.4375 3.339844 4.800781 3.1875 C 5.167969 3.035156 5.546875 2.960938 5.941406 2.960938 L 14.886719 2.960938 C 15.285156 2.960938 15.664062 3.035156 16.03125 3.1875 C 16.394531 3.339844 16.71875 3.554688 16.996094 3.832031 C 17.277344 4.113281 17.492188 4.4375 17.644531 4.800781 C 17.792969 5.167969 17.871094 5.546875 17.871094 5.941406 L 17.871094 22.34375 C 17.871094 22.738281 17.792969 23.121094 17.644531 23.484375 C 17.492188 23.851562 17.277344 24.171875 16.996094 24.453125 C 16.71875 24.730469 16.394531 24.945312 16.027344 25.097656 C 15.664062 25.25 15.28125 25.324219 14.886719 25.324219 L 5.941406 25.324219 C 5.546875 25.324219 5.167969 25.25 4.800781 25.097656 C 4.4375 24.945312 4.113281 24.730469 3.835938 24.453125 C 3.554688 24.171875 3.339844 23.851562 3.1875 23.484375 C 3.035156 23.117188 2.960938 22.738281 2.960938 22.34375 Z M 2.960938 5.941406 " fill-opacity="1" fill-rule="nonzero"/><path fill="#2d6388" d="M 17.742188 5.078125 C 17.824219 5.351562 17.871094 5.640625 17.871094 5.941406 L 17.871094 22.34375 C 17.871094 22.738281 17.792969 23.121094 17.644531 23.484375 C 17.492188 23.851562 17.277344 24.171875 16.996094 24.453125 C 16.71875 24.730469 16.394531 24.949219 16.03125 25.097656 C 15.664062 25.25 15.285156 25.324219 14.886719 25.324219 L 8.480469 25.324219 C 8.226562 25.125 8.011719 24.886719 7.835938 24.617188 C 7.65625 24.34375 7.527344 24.050781 7.449219 23.738281 C 7.367188 23.425781 7.335938 23.105469 7.359375 22.78125 C 7.382812 22.457031 7.457031 22.148438 7.578125 21.847656 L 13.855469 6.695312 C 14.007812 6.332031 14.222656 6.007812 14.5 5.730469 C 14.78125 5.449219 15.101562 5.234375 15.464844 5.082031 C 15.828125 4.933594 16.210938 4.855469 16.605469 4.855469 C 17 4.855469 17.378906 4.929688 17.742188 5.078125 Z M 17.742188 5.078125 " fill-opacity="1" fill-rule="nonzero"/></svg>