<svg xmlns="http://www.w3.org/2000/svg" xmlns:xlink="http://www.w3.org/1999/xlink" width="50" zoomAndPan="magnify" viewBox="0 0 37.5 37.499999" height="50" preserveAspectRatio="xMidYMid meet" version="1.0"><defs><clipPath id="0b32fda39a"><path d="M 1.035156 4 L 35.824219 4 L 35.824219 22 L 1.035156 22 Z M 1.035156 4 " clip-rule="nonzero"/></clipPath></defs><path fill="#7e84ff" d="M 30.03125 21.8125 C 30.03125 28.125 24.886719 33.242188 18.539062 33.242188 C 12.191406 33.242188 7.046875 28.125 7.046875 21.8125 C 7.046875 15.496094 12.191406 10.378906 18.539062 10.378906 C 24.886719 10.378906 30.03125 15.496094 30.03125 21.8125 Z M 30.03125 21.8125 " fill-opacity="1" fill-rule="nonzero"/><g clip-path="url(#0b32fda39a)"><path fill="#088bf5" d="M 16.882812 4.921875 C 17.40625 4.664062 17.957031 4.535156 18.539062 4.535156 C 19.121094 4.535156 19.671875 4.664062 20.195312 4.921875 L 36.042969 12.882812 L 20.195312 20.839844 C 19.671875 21.097656 19.121094 21.226562 18.539062 21.226562 C 17.957031 21.226562 17.40625 21.097656 16.882812 20.839844 L 1.035156 12.882812 Z M 16.882812 4.921875 " fill-opacity="1" fill-rule="nonzero"/></g><path fill="#5217a1" d="M 28.742188 16.546875 L 20.195312 20.839844 C 19.671875 21.097656 19.121094 21.226562 18.539062 21.226562 C 17.957031 21.226562 17.40625 21.097656 16.886719 20.839844 L 8.335938 16.546875 C 8.824219 15.617188 9.425781 14.765625 10.144531 14 C 10.867188 13.234375 11.675781 12.582031 12.574219 12.035156 C 13.476562 11.492188 14.429688 11.082031 15.445312 10.796875 C 16.457031 10.515625 17.488281 10.378906 18.539062 10.378906 C 19.589844 10.378906 20.621094 10.515625 21.636719 10.796875 C 22.648438 11.082031 23.605469 11.492188 24.503906 12.035156 C 25.402344 12.582031 26.210938 13.234375 26.933594 14 C 27.652344 14.769531 28.253906 15.617188 28.742188 16.546875 Z M 28.742188 16.546875 " fill-opacity="1" fill-rule="nonzero"/></svg>