<svg xmlns="http://www.w3.org/2000/svg" xmlns:xlink="http://www.w3.org/1999/xlink" width="50" zoomAndPan="magnify" viewBox="0 0 37.5 37.499999" height="50" preserveAspectRatio="xMidYMid meet" version="1.0"><path fill="#2ebcfa" d="M 31.671875 1.777344 L 2.363281 20.996094 C 0.890625 21.960938 1.203125 24.160156 2.886719 24.703125 L 32.195312 34.097656 C 33.574219 34.539062 34.992188 33.535156 34.992188 32.117188 L 34.992188 3.507812 C 34.992188 1.839844 33.089844 0.851562 31.671875 1.777344 Z M 31.671875 1.777344 " fill-opacity="1" fill-rule="nonzero"/><path fill="#7e84ff" d="M 33.929688 1.699219 L 19.421875 30.003906 L 33.59375 34.546875 C 34.285156 34.765625 34.996094 34.265625 34.996094 33.554688 L 34.992188 3.246094 C 34.992188 3.246094 34.898438 2.695312 34.617188 2.304688 C 34.363281 1.949219 33.929688 1.699219 33.929688 1.699219 Z M 33.929688 1.699219 " fill-opacity="1" fill-rule="nonzero"/><path fill="#144496" d="M 9.324219 26.707031 L 33.929688 1.695312 L 16.867188 34.992188 Z M 9.324219 26.707031 " fill-opacity="1" fill-rule="nonzero"/></svg>