<svg xmlns="http://www.w3.org/2000/svg" xmlns:xlink="http://www.w3.org/1999/xlink" width="50" zoomAndPan="magnify" viewBox="0 0 37.5 37.499999" height="50" preserveAspectRatio="xMidYMid meet" version="1.0"><defs><clipPath id="a4c209cf09"><path d="M 1.183594 22 L 19 22 L 19 31 L 1.183594 31 Z M 1.183594 22 " clip-rule="nonzero"/></clipPath><clipPath id="8884012fab"><path d="M 18 22 L 35.96875 22 L 35.96875 31 L 18 31 Z M 18 22 " clip-rule="nonzero"/></clipPath></defs><path fill="#5217a1" d="M 24.933594 13.058594 C 24.933594 13.472656 24.894531 13.878906 24.8125 14.285156 C 24.730469 14.691406 24.613281 15.082031 24.453125 15.464844 C 24.296875 15.847656 24.101562 16.207031 23.875 16.550781 C 23.644531 16.894531 23.382812 17.210938 23.09375 17.503906 C 22.800781 17.796875 22.484375 18.054688 22.140625 18.285156 C 21.796875 18.515625 21.433594 18.707031 21.050781 18.867188 C 20.671875 19.023438 20.277344 19.144531 19.875 19.222656 C 19.46875 19.304688 19.058594 19.34375 18.648438 19.34375 C 18.234375 19.34375 17.824219 19.304688 17.421875 19.222656 C 17.015625 19.144531 16.621094 19.023438 16.242188 18.867188 C 15.859375 18.707031 15.496094 18.515625 15.152344 18.285156 C 14.8125 18.054688 14.492188 17.796875 14.203125 17.503906 C 13.910156 17.210938 13.648438 16.894531 13.417969 16.550781 C 13.191406 16.207031 12.996094 15.847656 12.839844 15.464844 C 12.679688 15.082031 12.5625 14.691406 12.480469 14.285156 C 12.402344 13.878906 12.359375 13.472656 12.359375 13.058594 C 12.359375 12.644531 12.402344 12.238281 12.480469 11.832031 C 12.5625 11.425781 12.679688 11.035156 12.839844 10.652344 C 12.996094 10.273438 13.191406 9.910156 13.417969 9.566406 C 13.648438 9.222656 13.910156 8.90625 14.203125 8.613281 C 14.492188 8.320312 14.8125 8.0625 15.152344 7.832031 C 15.496094 7.601562 15.859375 7.410156 16.242188 7.25 C 16.621094 7.09375 17.015625 6.972656 17.421875 6.894531 C 17.824219 6.8125 18.234375 6.773438 18.648438 6.773438 C 19.058594 6.773438 19.46875 6.8125 19.875 6.894531 C 20.277344 6.972656 20.671875 7.09375 21.050781 7.25 C 21.433594 7.410156 21.796875 7.601562 22.140625 7.832031 C 22.484375 8.0625 22.800781 8.320312 23.09375 8.613281 C 23.382812 8.90625 23.644531 9.222656 23.875 9.566406 C 24.101562 9.910156 24.296875 10.273438 24.453125 10.652344 C 24.613281 11.035156 24.730469 11.425781 24.8125 11.832031 C 24.894531 12.238281 24.933594 12.644531 24.933594 13.058594 Z M 24.933594 13.058594 " fill-opacity="1" fill-rule="nonzero"/><path fill="#5cc0ff" d="M 9.566406 17.949219 C 9.566406 18.320312 9.496094 18.675781 9.355469 19.015625 C 9.210938 19.359375 9.011719 19.660156 8.746094 19.925781 C 8.484375 20.1875 8.183594 20.386719 7.839844 20.53125 C 7.5 20.671875 7.144531 20.742188 6.773438 20.742188 C 6.402344 20.742188 6.046875 20.671875 5.703125 20.53125 C 5.359375 20.386719 5.058594 20.1875 4.796875 19.925781 C 4.535156 19.660156 4.332031 19.359375 4.191406 19.015625 C 4.050781 18.675781 3.976562 18.320312 3.976562 17.949219 C 3.976562 17.578125 4.050781 17.222656 4.191406 16.878906 C 4.332031 16.535156 4.535156 16.234375 4.796875 15.972656 C 5.058594 15.710938 5.359375 15.507812 5.703125 15.367188 C 6.046875 15.226562 6.402344 15.152344 6.773438 15.152344 C 7.144531 15.152344 7.5 15.226562 7.839844 15.367188 C 8.183594 15.507812 8.484375 15.710938 8.746094 15.972656 C 9.011719 16.234375 9.210938 16.535156 9.355469 16.878906 C 9.496094 17.222656 9.566406 17.578125 9.566406 17.949219 Z M 9.566406 17.949219 " fill-opacity="1" fill-rule="nonzero"/><path fill="#7e84ff" d="M 33.316406 17.949219 C 33.316406 18.320312 33.246094 18.675781 33.101562 19.015625 C 32.960938 19.359375 32.757812 19.660156 32.496094 19.925781 C 32.234375 20.1875 31.933594 20.386719 31.589844 20.53125 C 31.25 20.671875 30.890625 20.742188 30.519531 20.742188 C 30.152344 20.742188 29.792969 20.671875 29.453125 20.53125 C 29.109375 20.386719 28.808594 20.1875 28.546875 19.925781 C 28.285156 19.660156 28.082031 19.359375 27.941406 19.015625 C 27.796875 18.675781 27.726562 18.320312 27.726562 17.949219 C 27.726562 17.578125 27.796875 17.222656 27.941406 16.878906 C 28.082031 16.535156 28.285156 16.234375 28.546875 15.972656 C 28.808594 15.710938 29.109375 15.507812 29.453125 15.367188 C 29.792969 15.226562 30.152344 15.152344 30.519531 15.152344 C 30.890625 15.152344 31.25 15.226562 31.589844 15.367188 C 31.933594 15.507812 32.234375 15.710938 32.496094 15.972656 C 32.757812 16.234375 32.960938 16.535156 33.101562 16.878906 C 33.246094 17.222656 33.316406 17.578125 33.316406 17.949219 Z M 33.316406 17.949219 " fill-opacity="1" fill-rule="nonzero"/><g clip-path="url(#a4c209cf09)"><path fill="#5cc0ff" d="M 18.648438 22.140625 L 3.976562 22.140625 C 3.609375 22.140625 3.25 22.210938 2.910156 22.351562 C 2.566406 22.492188 2.265625 22.695312 2.003906 22.957031 C 1.742188 23.21875 1.539062 23.523438 1.398438 23.863281 C 1.253906 24.207031 1.183594 24.5625 1.183594 24.933594 L 1.183594 27.726562 C 1.183594 28.097656 1.253906 28.453125 1.398438 28.796875 C 1.539062 29.140625 1.742188 29.441406 2.003906 29.703125 C 2.265625 29.964844 2.566406 30.167969 2.910156 30.308594 C 3.25 30.449219 3.609375 30.519531 3.976562 30.519531 L 18.648438 30.519531 Z M 18.648438 22.140625 " fill-opacity="1" fill-rule="nonzero"/></g><g clip-path="url(#8884012fab)"><path fill="#7e84ff" d="M 33.316406 22.140625 L 18.648438 22.140625 L 18.648438 30.519531 L 33.316406 30.519531 C 33.6875 30.519531 34.042969 30.449219 34.382812 30.308594 C 34.726562 30.167969 35.027344 29.964844 35.289062 29.703125 C 35.554688 29.441406 35.753906 29.140625 35.894531 28.796875 C 36.039062 28.453125 36.109375 28.097656 36.109375 27.726562 L 36.109375 24.933594 C 36.109375 24.5625 36.039062 24.207031 35.894531 23.863281 C 35.753906 23.523438 35.554688 23.21875 35.289062 22.957031 C 35.027344 22.695312 34.726562 22.492188 34.382812 22.351562 C 34.042969 22.210938 33.6875 22.140625 33.316406 22.140625 Z M 33.316406 22.140625 " fill-opacity="1" fill-rule="nonzero"/></g><path fill="#5217a1" d="M 9.566406 22.140625 L 19.34375 22.140625 C 23.972656 22.140625 27.726562 25.890625 27.726562 30.519531 L 17.949219 30.519531 C 13.320312 30.519531 9.566406 26.769531 9.566406 22.140625 Z M 9.566406 22.140625 " fill-opacity="1" fill-rule="nonzero"/></svg>