<svg xmlns="http://www.w3.org/2000/svg" xmlns:xlink="http://www.w3.org/1999/xlink" width="50" zoomAndPan="magnify" viewBox="0 0 37.5 37.499999" height="50" preserveAspectRatio="xMidYMid meet" version="1.0"><defs><clipPath id="5b14a820cf"><path d="M 0 0 L 37.007812 0 L 37.007812 37.007812 L 0 37.007812 Z M 0 0 " clip-rule="nonzero"/></clipPath><clipPath id="0f88f9df02"><path d="M 1.183594 6 L 12 6 L 12 18 L 1.183594 18 Z M 1.183594 6 " clip-rule="nonzero"/></clipPath><clipPath id="a91731bf67"><path d="M 14 6 L 35.96875 6 L 35.96875 18 L 14 18 Z M 14 6 " clip-rule="nonzero"/></clipPath><clipPath id="669914fd75"><path d="M 1.183594 19 L 12 19 L 12 31 L 1.183594 31 Z M 1.183594 19 " clip-rule="nonzero"/></clipPath></defs><g clip-path="url(#5b14a820cf)"><path fill="#ffffff" d="M 0 0 L 37.007812 0 L 37.007812 37.007812 L 0 37.007812 Z M 0 0 " fill-opacity="1" fill-rule="nonzero"/><path fill="#ffffff" d="M 0 0 L 37.007812 0 L 37.007812 37.007812 L 0 37.007812 Z M 0 0 " fill-opacity="1" fill-rule="nonzero"/></g><g clip-path="url(#0f88f9df02)"><path fill="#088bf5" d="M 11.507812 11.851562 C 11.507812 12.191406 11.476562 12.527344 11.410156 12.859375 C 11.34375 13.191406 11.246094 13.515625 11.117188 13.828125 C 10.988281 14.140625 10.828125 14.4375 10.640625 14.722656 C 10.449219 15.003906 10.238281 15.265625 9.996094 15.503906 C 9.757812 15.742188 9.496094 15.957031 9.214844 16.144531 C 8.933594 16.332031 8.636719 16.492188 8.320312 16.621094 C 8.007812 16.753906 7.6875 16.851562 7.355469 16.917969 C 7.019531 16.984375 6.6875 17.015625 6.347656 17.015625 C 6.007812 17.015625 5.671875 16.984375 5.339844 16.917969 C 5.007812 16.851562 4.683594 16.753906 4.371094 16.621094 C 4.058594 16.492188 3.761719 16.332031 3.480469 16.144531 C 3.195312 15.957031 2.9375 15.742188 2.695312 15.503906 C 2.457031 15.265625 2.242188 15.003906 2.054688 14.722656 C 1.867188 14.4375 1.707031 14.140625 1.578125 13.828125 C 1.449219 13.515625 1.347656 13.191406 1.285156 12.859375 C 1.21875 12.527344 1.183594 12.191406 1.183594 11.851562 C 1.183594 11.515625 1.21875 11.179688 1.285156 10.847656 C 1.347656 10.511719 1.449219 10.191406 1.578125 9.878906 C 1.707031 9.566406 1.867188 9.265625 2.054688 8.984375 C 2.242188 8.703125 2.457031 8.441406 2.695312 8.203125 C 2.9375 7.964844 3.195312 7.75 3.480469 7.5625 C 3.761719 7.371094 4.058594 7.214844 4.371094 7.082031 C 4.683594 6.953125 5.007812 6.855469 5.339844 6.789062 C 5.671875 6.722656 6.007812 6.691406 6.347656 6.691406 C 6.6875 6.691406 7.019531 6.722656 7.355469 6.789062 C 7.6875 6.855469 8.007812 6.953125 8.320312 7.082031 C 8.636719 7.214844 8.933594 7.371094 9.214844 7.5625 C 9.496094 7.75 9.757812 7.964844 9.996094 8.203125 C 10.238281 8.441406 10.449219 8.703125 10.640625 8.984375 C 10.828125 9.265625 10.988281 9.566406 11.117188 9.878906 C 11.246094 10.191406 11.34375 10.511719 11.410156 10.847656 C 11.476562 11.179688 11.507812 11.515625 11.507812 11.851562 Z M 11.507812 11.851562 " fill-opacity="1" fill-rule="nonzero"/></g><g clip-path="url(#a91731bf67)"><path fill="#2ebcfa" d="M 14.261719 9.445312 C 14.261719 9.078125 14.332031 8.726562 14.472656 8.390625 C 14.613281 8.054688 14.8125 7.753906 15.070312 7.496094 C 15.328125 7.238281 15.625 7.039062 15.960938 6.898438 C 16.300781 6.761719 16.652344 6.691406 17.015625 6.691406 L 35.601562 6.691406 L 35.601562 14.261719 C 35.601562 14.628906 35.53125 14.980469 35.390625 15.316406 C 35.25 15.652344 35.050781 15.949219 34.792969 16.210938 C 34.535156 16.46875 34.238281 16.667969 33.902344 16.804688 C 33.5625 16.945312 33.210938 17.015625 32.847656 17.015625 L 14.261719 17.015625 Z M 14.261719 9.445312 " fill-opacity="1" fill-rule="nonzero"/></g><g clip-path="url(#669914fd75)"><path fill="#5217a1" d="M 1.183594 24.929688 C 1.183594 24.59375 1.21875 24.257812 1.285156 23.925781 C 1.347656 23.589844 1.449219 23.269531 1.578125 22.957031 C 1.707031 22.644531 1.867188 22.34375 2.054688 22.0625 C 2.242188 21.78125 2.457031 21.519531 2.695312 21.28125 C 2.9375 21.042969 3.195312 20.828125 3.480469 20.640625 C 3.761719 20.449219 4.058594 20.292969 4.371094 20.160156 C 4.683594 20.03125 5.007812 19.933594 5.339844 19.867188 C 5.671875 19.800781 6.007812 19.769531 6.347656 19.769531 C 6.6875 19.769531 7.019531 19.800781 7.355469 19.867188 C 7.6875 19.933594 8.007812 20.03125 8.320312 20.160156 C 8.636719 20.292969 8.933594 20.449219 9.214844 20.640625 C 9.496094 20.828125 9.757812 21.042969 9.996094 21.28125 C 10.238281 21.519531 10.449219 21.78125 10.640625 22.0625 C 10.828125 22.34375 10.988281 22.644531 11.117188 22.957031 C 11.246094 23.269531 11.34375 23.589844 11.410156 23.925781 C 11.476562 24.257812 11.507812 24.59375 11.507812 24.929688 C 11.507812 25.269531 11.476562 25.605469 11.410156 25.9375 C 11.34375 26.269531 11.246094 26.59375 11.117188 26.90625 C 10.988281 27.21875 10.828125 27.515625 10.640625 27.800781 C 10.449219 28.082031 10.238281 28.34375 9.996094 28.582031 C 9.757812 28.820312 9.496094 29.035156 9.214844 29.222656 C 8.933594 29.410156 8.636719 29.570312 8.320312 29.699219 C 8.007812 29.832031 7.6875 29.929688 7.355469 29.996094 C 7.019531 30.0625 6.6875 30.09375 6.347656 30.09375 C 6.007812 30.09375 5.671875 30.0625 5.339844 29.996094 C 5.007812 29.929688 4.683594 29.832031 4.371094 29.699219 C 4.058594 29.570312 3.761719 29.410156 3.480469 29.222656 C 3.195312 29.035156 2.9375 28.820312 2.695312 28.582031 C 2.457031 28.34375 2.242188 28.082031 2.054688 27.800781 C 1.867188 27.515625 1.707031 27.21875 1.578125 26.90625 C 1.449219 26.59375 1.347656 26.269531 1.285156 25.9375 C 1.21875 25.605469 1.183594 25.269531 1.183594 24.929688 Z M 1.183594 24.929688 " fill-opacity="1" fill-rule="nonzero"/></g><path fill="#7e84ff" d="M 14.261719 30.09375 L 27.339844 30.09375 C 27.707031 30.09375 28.058594 30.023438 28.394531 29.882812 C 28.730469 29.746094 29.027344 29.546875 29.289062 29.289062 C 29.546875 29.027344 29.746094 28.730469 29.882812 28.394531 C 30.023438 28.058594 30.09375 27.707031 30.09375 27.339844 L 30.09375 19.769531 L 17.015625 19.769531 C 16.652344 19.769531 16.300781 19.839844 15.960938 19.976562 C 15.625 20.117188 15.328125 20.316406 15.070312 20.574219 C 14.8125 20.832031 14.613281 21.132812 14.472656 21.46875 C 14.332031 21.804688 14.261719 22.15625 14.261719 22.523438 Z M 14.261719 30.09375 " fill-opacity="1" fill-rule="nonzero"/></svg>