<svg xmlns="http://www.w3.org/2000/svg" xmlns:xlink="http://www.w3.org/1999/xlink" width="50" zoomAndPan="magnify" viewBox="0 0 37.5 37.499999" height="50" preserveAspectRatio="xMidYMid meet" version="1.0"><path fill="#2ebcfa" d="M 20.980469 11.511719 C 20.980469 15.871094 17.449219 19.402344 13.089844 19.402344 C 8.734375 19.402344 5.203125 15.871094 5.203125 11.511719 C 5.203125 7.15625 8.734375 3.625 13.089844 3.625 C 17.449219 3.625 20.980469 7.15625 20.980469 11.511719 Z M 20.980469 11.511719 " fill-opacity="1" fill-rule="nonzero"/><path fill="#005e7a" d="M 32.8125 17.824219 C 32.8125 18.082031 32.789062 18.339844 32.738281 18.59375 C 32.6875 18.847656 32.613281 19.09375 32.515625 19.332031 C 32.414062 19.574219 32.292969 19.800781 32.148438 20.015625 C 32.003906 20.230469 31.839844 20.429688 31.660156 20.613281 C 31.476562 20.796875 31.277344 20.960938 31.0625 21.105469 C 30.84375 21.246094 30.617188 21.371094 30.378906 21.46875 C 30.140625 21.566406 29.894531 21.640625 29.640625 21.691406 C 29.386719 21.742188 29.128906 21.769531 28.871094 21.769531 C 28.609375 21.769531 28.355469 21.742188 28.101562 21.691406 C 27.84375 21.640625 27.597656 21.566406 27.359375 21.46875 C 27.121094 21.371094 26.894531 21.246094 26.679688 21.105469 C 26.460938 20.960938 26.261719 20.796875 26.078125 20.613281 C 25.898438 20.429688 25.734375 20.230469 25.589844 20.015625 C 25.445312 19.800781 25.324219 19.574219 25.226562 19.332031 C 25.125 19.09375 25.050781 18.847656 25 18.59375 C 24.949219 18.339844 24.925781 18.082031 24.925781 17.824219 C 24.925781 17.566406 24.949219 17.308594 25 17.054688 C 25.050781 16.800781 25.125 16.554688 25.226562 16.316406 C 25.324219 16.074219 25.445312 15.847656 25.589844 15.632812 C 25.734375 15.417969 25.898438 15.21875 26.078125 15.035156 C 26.261719 14.851562 26.460938 14.6875 26.679688 14.542969 C 26.894531 14.402344 27.121094 14.277344 27.359375 14.179688 C 27.597656 14.082031 27.84375 14.007812 28.101562 13.957031 C 28.355469 13.90625 28.609375 13.878906 28.871094 13.878906 C 29.128906 13.878906 29.386719 13.90625 29.640625 13.957031 C 29.894531 14.007812 30.140625 14.082031 30.378906 14.179688 C 30.617188 14.277344 30.84375 14.402344 31.0625 14.542969 C 31.277344 14.6875 31.476562 14.851562 31.660156 15.035156 C 31.839844 15.21875 32.003906 15.417969 32.148438 15.632812 C 32.292969 15.847656 32.414062 16.074219 32.515625 16.316406 C 32.613281 16.554688 32.6875 16.800781 32.738281 17.054688 C 32.789062 17.308594 32.8125 17.566406 32.8125 17.824219 Z M 11.511719 23.347656 L 32.023438 23.347656 C 32.445312 23.347656 32.847656 23.425781 33.234375 23.585938 C 33.621094 23.746094 33.960938 23.976562 34.257812 24.269531 C 34.550781 24.566406 34.78125 24.910156 34.941406 25.292969 C 35.101562 25.679688 35.179688 26.085938 35.179688 26.503906 L 35.179688 30.445312 C 35.179688 30.867188 35.101562 31.269531 34.941406 31.65625 C 34.78125 32.042969 34.550781 32.382812 34.257812 32.679688 C 33.960938 32.972656 33.621094 33.203125 33.234375 33.363281 C 32.847656 33.523438 32.445312 33.601562 32.023438 33.601562 L 11.511719 33.601562 Z M 11.511719 23.347656 " fill-opacity="1" fill-rule="nonzero"/><path fill="#2ebcfa" d="M 2.046875 23.347656 L 14.667969 23.347656 C 20.332031 23.347656 24.925781 27.9375 24.925781 33.601562 L 12.300781 33.601562 C 6.636719 33.601562 2.046875 29.011719 2.046875 23.347656 Z M 2.046875 23.347656 " fill-opacity="1" fill-rule="nonzero"/><path fill="#ffffff" d="M 17.46875 8.457031 L 16.582031 7.566406 L 12.21875 11.953125 L 9.597656 9.320312 L 8.710938 10.210938 C 8.597656 10.324219 8.511719 10.457031 8.449219 10.605469 C 8.386719 10.757812 8.355469 10.914062 8.355469 11.074219 C 8.355469 11.234375 8.386719 11.390625 8.449219 11.539062 C 8.511719 11.691406 8.597656 11.824219 8.710938 11.9375 L 12.214844 15.457031 L 17.46875 10.183594 C 17.582031 10.070312 17.671875 9.9375 17.730469 9.789062 C 17.792969 9.636719 17.824219 9.480469 17.824219 9.320312 C 17.824219 9.160156 17.792969 9.003906 17.730469 8.855469 C 17.671875 8.703125 17.582031 8.574219 17.46875 8.457031 Z M 17.46875 8.457031 " fill-opacity="1" fill-rule="nonzero"/></svg>