<svg xmlns="http://www.w3.org/2000/svg" xmlns:xlink="http://www.w3.org/1999/xlink" width="50" zoomAndPan="magnify" viewBox="0 0 37.5 37.499999" height="50" preserveAspectRatio="xMidYMid meet" version="1.0"><defs><clipPath id="fcaf9685b5"><path d="M 0 0 L 37.007812 0 L 37.007812 37.007812 L 0 37.007812 Z M 0 0 " clip-rule="nonzero"/></clipPath><clipPath id="dcb0b2cef6"><path d="M 10 6 L 36.453125 6 L 36.453125 29 L 10 29 Z M 10 6 " clip-rule="nonzero"/></clipPath><clipPath id="893e9acadb"><path d="M 20 26 L 36.453125 26 L 36.453125 31 L 20 31 Z M 20 26 " clip-rule="nonzero"/></clipPath><clipPath id="0b5a0acebb"><path d="M 0.925781 6 L 27 6 L 27 29 L 0.925781 29 Z M 0.925781 6 " clip-rule="nonzero"/></clipPath><clipPath id="df65bcac7f"><path d="M 0.925781 26 L 17 26 L 17 31 L 0.925781 31 Z M 0.925781 26 " clip-rule="nonzero"/></clipPath></defs><g clip-path="url(#fcaf9685b5)"><path fill="#ffffff" d="M 0 0 L 37.007812 0 L 37.007812 37.007812 L 0 37.007812 Z M 0 0 " fill-opacity="1" fill-rule="nonzero"/><path fill="#ffffff" d="M 0 0 L 37.007812 0 L 37.007812 37.007812 L 0 37.007812 Z M 0 0 " fill-opacity="1" fill-rule="nonzero"/></g><g clip-path="url(#dcb0b2cef6)"><path fill="#7e84ff" d="M 10.234375 9 C 10.152344 8.847656 10.097656 8.6875 10.078125 8.515625 C 10.054688 8.347656 10.066406 8.179688 10.109375 8.011719 C 10.152344 7.84375 10.222656 7.691406 10.324219 7.554688 C 10.425781 7.414062 10.546875 7.296875 10.691406 7.207031 C 11.679688 6.566406 12.75 6.339844 13.632812 6.773438 C 13.773438 6.84375 13.898438 6.945312 14.011719 7.050781 L 35.5625 27.183594 C 35.894531 27.484375 36.082031 27.90625 36.082031 28.347656 L 20.613281 28.347656 Z M 10.234375 9 " fill-opacity="1" fill-rule="nonzero"/></g><g clip-path="url(#893e9acadb)"><path fill="#5217a1" d="M 36.082031 28.347656 C 36.082031 29.511719 32.617188 30.457031 28.347656 30.457031 C 24.074219 30.457031 20.613281 29.511719 20.613281 28.347656 C 20.613281 27.183594 24.074219 26.238281 28.347656 26.238281 C 32.617188 26.238281 36.082031 27.183594 36.082031 28.347656 Z M 36.082031 28.347656 " fill-opacity="1" fill-rule="nonzero"/></g><g clip-path="url(#0b5a0acebb)"><path fill="#2ebcfa" d="M 26.773438 9 C 26.855469 8.847656 26.90625 8.6875 26.929688 8.515625 C 26.949219 8.347656 26.941406 8.179688 26.898438 8.011719 C 26.855469 7.84375 26.78125 7.691406 26.683594 7.554688 C 26.582031 7.414062 26.457031 7.296875 26.3125 7.207031 C 25.328125 6.566406 24.253906 6.339844 23.375 6.773438 C 23.234375 6.84375 23.109375 6.945312 22.996094 7.050781 L 1.445312 27.183594 C 1.097656 27.496094 0.925781 27.882812 0.925781 28.347656 L 16.394531 28.347656 Z M 26.773438 9 " fill-opacity="1" fill-rule="nonzero"/></g><path fill="#476cb1" d="M 23.210938 15.640625 L 18.503906 11.246094 L 13.796875 15.644531 L 18.503906 24.414062 Z M 23.210938 15.640625 " fill-opacity="1" fill-rule="nonzero"/><g clip-path="url(#df65bcac7f)"><path fill="#144496" d="M 0.925781 28.347656 C 0.925781 29.511719 4.386719 30.457031 8.660156 30.457031 C 12.929688 30.457031 16.394531 29.511719 16.394531 28.347656 C 16.394531 27.183594 12.929688 26.238281 8.660156 26.238281 C 4.386719 26.238281 0.925781 27.183594 0.925781 28.347656 Z M 0.925781 28.347656 " fill-opacity="1" fill-rule="nonzero"/></g></svg>