<svg xmlns="http://www.w3.org/2000/svg" xmlns:xlink="http://www.w3.org/1999/xlink" width="50" zoomAndPan="magnify" viewBox="0 0 37.5 37.499999" height="50" preserveAspectRatio="xMidYMid meet" version="1.0"><path fill="#2ebcfa" d="M 28.125 34.046875 L 8.882812 34.046875 C 5.613281 34.046875 2.960938 31.457031 2.960938 28.261719 L 2.960938 2.960938 L 25.164062 2.960938 C 26.800781 2.960938 28.125 4.253906 28.125 5.851562 Z M 28.125 34.046875 " fill-opacity="1" fill-rule="nonzero"/><path fill="#144496" d="M 8.882812 34.046875 L 28.125 34.046875 C 28.515625 34.046875 28.898438 34.007812 29.28125 33.933594 C 29.660156 33.855469 30.03125 33.746094 30.390625 33.59375 C 30.75 33.445312 31.089844 33.265625 31.414062 33.046875 C 31.738281 32.832031 32.039062 32.585938 32.3125 32.3125 C 32.585938 32.039062 32.832031 31.738281 33.046875 31.414062 C 33.265625 31.089844 33.445312 30.75 33.59375 30.390625 C 33.746094 30.03125 33.855469 29.660156 33.933594 29.28125 C 34.007812 28.898438 34.046875 28.515625 34.046875 28.125 L 14.800781 28.125 C 14.800781 28.515625 14.765625 28.898438 14.6875 29.28125 C 14.613281 29.660156 14.5 30.03125 14.351562 30.390625 C 14.203125 30.75 14.019531 31.089844 13.804688 31.414062 C 13.589844 31.738281 13.34375 32.035156 13.070312 32.3125 C 12.792969 32.585938 12.496094 32.832031 12.171875 33.046875 C 11.847656 33.265625 11.507812 33.445312 11.148438 33.59375 C 10.789062 33.742188 10.417969 33.855469 10.035156 33.933594 C 9.65625 34.007812 9.269531 34.046875 8.882812 34.046875 Z M 8.882812 34.046875 " fill-opacity="1" fill-rule="nonzero"/><path fill="#088bf5" d="M 28.125 5.921875 C 17.324219 5.921875 7.910156 11.851562 2.960938 20.636719 L 2.960938 2.960938 L 25.164062 2.960938 C 25.558594 2.960938 25.933594 3.035156 26.296875 3.1875 C 26.660156 3.335938 26.980469 3.550781 27.257812 3.828125 C 27.535156 4.105469 27.75 4.425781 27.898438 4.789062 C 28.050781 5.152344 28.125 5.527344 28.125 5.921875 Z M 28.125 5.921875 " fill-opacity="1" fill-rule="nonzero"/><path fill="#ffffff" d="M 15.117188 25.164062 L 15.992188 25.164062 L 15.992188 23.902344 C 18.382812 23.753906 19.984375 22.574219 19.984375 20.617188 L 19.984375 20.601562 C 19.984375 18.878906 18.878906 18.015625 16.695312 17.535156 L 15.992188 17.390625 L 15.992188 15.15625 C 16.757812 15.277344 17.261719 15.703125 17.367188 16.417969 L 17.375 16.433594 L 19.804688 16.425781 L 19.8125 16.417969 C 19.726562 14.546875 18.328125 13.296875 15.992188 13.136719 L 15.992188 11.84375 L 15.117188 11.84375 L 15.117188 13.128906 C 12.84375 13.238281 11.210938 14.40625 11.210938 16.332031 L 11.210938 16.347656 C 11.210938 18.082031 12.355469 19.015625 14.421875 19.46875 L 15.117188 19.617188 L 15.117188 21.898438 C 14.210938 21.8125 13.6875 21.433594 13.5625 20.757812 L 13.554688 20.742188 L 11.117188 20.75 L 11.101562 20.757812 C 11.164062 22.730469 12.757812 23.816406 15.117188 23.910156 Z M 13.800781 16.140625 L 13.800781 16.125 C 13.800781 15.570312 14.25 15.21875 15.117188 15.140625 L 15.117188 17.191406 C 14.21875 16.949219 13.800781 16.648438 13.800781 16.140625 Z M 17.390625 20.894531 L 17.390625 20.910156 C 17.390625 21.503906 16.886719 21.820312 15.992188 21.898438 L 15.992188 19.808594 C 16.996094 20.0625 17.390625 20.324219 17.390625 20.894531 Z M 17.390625 20.894531 " fill-opacity="1" fill-rule="nonzero"/></svg>