<svg xmlns="http://www.w3.org/2000/svg" xmlns:xlink="http://www.w3.org/1999/xlink" width="50" zoomAndPan="magnify" viewBox="0 0 37.5 37.499999" height="50" preserveAspectRatio="xMidYMid meet" version="1.0"><defs><clipPath id="5d851d0f29"><path d="M 0 0 L 37.007812 0 L 37.007812 37.007812 L 0 37.007812 Z M 0 0 " clip-rule="nonzero"/></clipPath><clipPath id="3c93cfabf9"><path d="M 1.332031 1.332031 L 35.378906 1.332031 L 35.378906 35.378906 L 1.332031 35.378906 Z M 1.332031 1.332031 " clip-rule="nonzero"/></clipPath></defs><g clip-path="url(#5d851d0f29)"><path fill="#ffffff" d="M 0 0 L 37.007812 0 L 37.007812 37.007812 L 0 37.007812 Z M 0 0 " fill-opacity="1" fill-rule="nonzero"/><path fill="#ffffff" d="M 0 0 L 37.007812 0 L 37.007812 37.007812 L 0 37.007812 Z M 0 0 " fill-opacity="1" fill-rule="nonzero"/></g><path fill="#2ebcfa" d="M 21.890625 18.464844 C 21.890625 18.917969 21.804688 19.355469 21.632812 19.777344 C 21.457031 20.195312 21.210938 20.566406 20.886719 20.886719 C 20.566406 21.210938 20.195312 21.457031 19.777344 21.632812 C 19.355469 21.804688 18.917969 21.890625 18.464844 21.890625 C 18.011719 21.890625 17.574219 21.804688 17.152344 21.632812 C 16.734375 21.457031 16.363281 21.210938 16.042969 20.886719 C 15.722656 20.566406 15.472656 20.195312 15.300781 19.777344 C 15.125 19.355469 15.039062 18.917969 15.039062 18.464844 C 15.039062 18.011719 15.125 17.574219 15.300781 17.152344 C 15.472656 16.734375 15.722656 16.363281 16.042969 16.042969 C 16.363281 15.722656 16.734375 15.472656 17.152344 15.300781 C 17.574219 15.125 18.011719 15.039062 18.464844 15.039062 C 18.917969 15.039062 19.355469 15.125 19.777344 15.300781 C 20.195312 15.472656 20.566406 15.722656 20.886719 16.042969 C 21.210938 16.363281 21.457031 16.734375 21.632812 17.152344 C 21.804688 17.574219 21.890625 18.011719 21.890625 18.464844 Z M 21.890625 18.464844 " fill-opacity="1" fill-rule="nonzero"/><g clip-path="url(#3c93cfabf9)"><path fill="#7e84ff" d="M 35.597656 18.464844 C 35.597656 27.925781 27.925781 35.597656 18.464844 35.597656 C 9.003906 35.597656 1.332031 27.925781 1.332031 18.464844 C 1.332031 9.003906 9.003906 1.332031 18.464844 1.332031 C 27.925781 1.332031 35.597656 9.003906 35.597656 18.464844 Z M 14.75 30.949219 C 15.515625 28.839844 16.410156 25.707031 16.410156 22.578125 L 20.519531 22.578125 C 20.519531 25.707031 21.414062 28.839844 22.179688 30.949219 C 23.21875 30.636719 24.203125 30.207031 25.128906 29.652344 C 26.058594 29.097656 26.90625 28.4375 27.671875 27.671875 C 28.4375 26.90625 29.097656 26.058594 29.652344 25.128906 C 30.207031 24.203125 30.636719 23.21875 30.949219 22.179688 C 28.839844 21.414062 25.707031 20.519531 22.578125 20.519531 L 22.578125 16.410156 C 25.707031 16.410156 28.839844 15.515625 30.949219 14.75 C 29.347656 9.367188 24.363281 5.445312 18.464844 5.445312 C 12.566406 5.445312 7.582031 9.367188 5.980469 14.75 C 8.09375 15.515625 11.222656 16.410156 14.351562 16.410156 L 14.351562 20.519531 C 11.222656 20.519531 8.09375 21.414062 5.980469 22.179688 C 6.292969 23.21875 6.722656 24.203125 7.277344 25.128906 C 7.832031 26.058594 8.492188 26.90625 9.257812 27.671875 C 10.023438 28.4375 10.871094 29.097656 11.800781 29.652344 C 12.730469 30.207031 13.710938 30.636719 14.75 30.949219 Z M 14.75 30.949219 " fill-opacity="1" fill-rule="evenodd"/></g><path fill="#5217a1" d="M 18.464844 24.632812 C 18.871094 24.632812 19.269531 24.59375 19.667969 24.515625 C 20.066406 24.433594 20.453125 24.320312 20.824219 24.164062 C 21.199219 24.007812 21.554688 23.820312 21.890625 23.59375 C 22.230469 23.367188 22.539062 23.113281 22.828125 22.828125 C 23.113281 22.539062 23.367188 22.230469 23.59375 21.890625 C 23.820312 21.554688 24.007812 21.199219 24.164062 20.824219 C 24.320312 20.453125 24.433594 20.066406 24.515625 19.667969 C 24.59375 19.269531 24.632812 18.871094 24.632812 18.464844 C 24.632812 18.058594 24.59375 17.660156 24.515625 17.261719 C 24.433594 16.863281 24.320312 16.480469 24.164062 16.105469 C 24.007812 15.730469 23.820312 15.375 23.59375 15.039062 C 23.367188 14.703125 23.113281 14.390625 22.828125 14.105469 C 22.539062 13.816406 22.230469 13.5625 21.890625 13.335938 C 21.554688 13.113281 21.199219 12.921875 20.824219 12.765625 C 20.453125 12.613281 20.066406 12.496094 19.667969 12.414062 C 19.269531 12.335938 18.871094 12.296875 18.464844 12.296875 C 18.058594 12.296875 17.660156 12.335938 17.261719 12.414062 C 16.863281 12.496094 16.480469 12.613281 16.105469 12.765625 C 15.730469 12.921875 15.375 13.113281 15.039062 13.335938 C 14.703125 13.5625 14.390625 13.816406 14.105469 14.105469 C 13.816406 14.390625 13.5625 14.703125 13.335938 15.039062 C 13.113281 15.375 12.921875 15.730469 12.765625 16.105469 C 12.613281 16.480469 12.496094 16.863281 12.414062 17.261719 C 12.335938 17.660156 12.296875 18.058594 12.296875 18.464844 C 12.296875 18.871094 12.335938 19.269531 12.414062 19.667969 C 12.496094 20.066406 12.613281 20.453125 12.765625 20.824219 C 12.921875 21.199219 13.113281 21.554688 13.335938 21.890625 C 13.5625 22.230469 13.816406 22.539062 14.105469 22.828125 C 14.390625 23.113281 14.703125 23.367188 15.039062 23.59375 C 15.375 23.820312 15.730469 24.007812 16.105469 24.164062 C 16.480469 24.320312 16.863281 24.433594 17.261719 24.515625 C 17.660156 24.59375 18.058594 24.632812 18.464844 24.632812 Z M 18.464844 21.890625 C 18.917969 21.890625 19.355469 21.804688 19.777344 21.632812 C 20.195312 21.457031 20.566406 21.210938 20.886719 20.886719 C 21.210938 20.566406 21.457031 20.195312 21.632812 19.777344 C 21.804688 19.355469 21.890625 18.917969 21.890625 18.464844 C 21.890625 18.011719 21.804688 17.574219 21.632812 17.152344 C 21.457031 16.734375 21.210938 16.363281 20.886719 16.042969 C 20.566406 15.722656 20.195312 15.472656 19.777344 15.300781 C 19.355469 15.125 18.917969 15.039062 18.464844 15.039062 C 18.011719 15.039062 17.574219 15.125 17.152344 15.300781 C 16.734375 15.472656 16.363281 15.722656 16.042969 16.042969 C 15.722656 16.363281 15.472656 16.734375 15.300781 17.152344 C 15.125 17.574219 15.039062 18.011719 15.039062 18.464844 C 15.039062 18.917969 15.125 19.355469 15.300781 19.777344 C 15.472656 20.195312 15.722656 20.566406 16.042969 20.886719 C 16.363281 21.210938 16.734375 21.457031 17.152344 21.632812 C 17.574219 21.804688 18.011719 21.890625 18.464844 21.890625 Z M 18.464844 21.890625 " fill-opacity="1" fill-rule="evenodd"/></svg>