<svg xmlns="http://www.w3.org/2000/svg" xmlns:xlink="http://www.w3.org/1999/xlink" width="50" zoomAndPan="magnify" viewBox="0 0 37.5 37.499999" height="50" preserveAspectRatio="xMidYMid meet" version="1.0"><defs><clipPath id="2c7651a7d0"><path d="M 2 20 L 35 20 L 35 36.117188 L 2 36.117188 Z M 2 20 " clip-rule="nonzero"/></clipPath><clipPath id="1cf07f9b57"><path d="M 3 1.332031 L 36 1.332031 L 36 18 L 3 18 Z M 3 1.332031 " clip-rule="nonzero"/></clipPath></defs><path fill="#144496" d="M 19.421875 25.335938 C 19.421875 25.335938 18.84375 23.941406 18.726562 23.828125 C 32.992188 16.980469 35.089844 21.363281 35.382812 23.164062 C 35.429688 23.453125 35.386719 23.75 35.296875 24.03125 C 34.96875 25.058594 34.546875 26.046875 34.03125 26.996094 C 32.988281 28.042969 27.074219 28.117188 27.074219 28.117188 Z M 19.421875 25.335938 " fill-opacity="1" fill-rule="nonzero"/><path fill="#5217a1" d="M 15.941406 11.074219 L 18.726562 13.625 C 4.464844 20.46875 2.367188 16.085938 2.074219 14.289062 C 2.023438 13.996094 2.070312 13.703125 2.160156 13.421875 C 2.425781 12.582031 2.757812 11.765625 3.152344 10.976562 C 6.003906 5.257812 11.421875 8.984375 11.421875 8.984375 Z M 15.941406 11.074219 " fill-opacity="1" fill-rule="nonzero"/><g clip-path="url(#2c7651a7d0)"><path fill="#088bf5" d="M 2.15625 24.03125 C 2.066406 23.75 2.023438 23.453125 2.070312 23.164062 C 2.367188 21.363281 4.464844 16.980469 18.726562 23.828125 C 28.605469 28.570312 32.648438 27.925781 34.300781 26.484375 C 31.449219 32.195312 25.546875 36.117188 18.726562 36.117188 C 10.972656 36.117188 4.402344 31.042969 2.15625 24.03125 Z M 2.15625 24.03125 " fill-opacity="1" fill-rule="nonzero"/></g><g clip-path="url(#1cf07f9b57)"><path fill="#7e84ff" d="M 35.296875 13.421875 C 35.386719 13.703125 35.429688 13.996094 35.382812 14.289062 C 35.089844 16.085938 32.992188 20.46875 18.726562 13.625 C 8.851562 8.882812 4.804688 9.527344 3.15625 10.96875 C 6.007812 5.257812 11.910156 1.332031 18.726562 1.332031 C 26.484375 1.332031 33.054688 6.410156 35.296875 13.421875 Z M 35.296875 13.421875 " fill-opacity="1" fill-rule="nonzero"/></g></svg>