<svg xmlns="http://www.w3.org/2000/svg" xmlns:xlink="http://www.w3.org/1999/xlink" width="50" zoomAndPan="magnify" viewBox="0 0 37.5 37.499999" height="50" preserveAspectRatio="xMidYMid meet" version="1.0"><defs><clipPath id="9513c4e7bd"><path d="M 0 0 L 37.007812 0 L 37.007812 37.007812 L 0 37.007812 Z M 0 0 " clip-rule="nonzero"/></clipPath><clipPath id="20acf64886"><path d="M 1.257812 6 L 36.042969 6 L 36.042969 31 L 1.257812 31 Z M 1.257812 6 " clip-rule="nonzero"/></clipPath></defs><g clip-path="url(#9513c4e7bd)"><path fill="#ffffff" d="M 0 0 L 37.007812 0 L 37.007812 37.007812 L 0 37.007812 Z M 0 0 " fill-opacity="1" fill-rule="nonzero"/><path fill="#ffffff" d="M 0 0 L 37.007812 0 L 37.007812 37.007812 L 0 37.007812 Z M 0 0 " fill-opacity="1" fill-rule="nonzero"/></g><g clip-path="url(#20acf64886)"><path fill="#2ebcfa" d="M 35.164062 16.125 C 36.351562 15.003906 36.363281 13.179688 35.046875 12.195312 C 33.105469 10.753906 31.007812 9.589844 28.75 8.714844 C 25.503906 7.453125 22.136719 6.820312 18.652344 6.824219 C 15.167969 6.820312 11.800781 7.453125 8.550781 8.714844 C 6.296875 9.589844 4.199219 10.753906 2.257812 12.195312 C 0.941406 13.179688 0.949219 15.003906 2.136719 16.125 L 16.5 29.640625 C 17.6875 30.757812 19.613281 30.757812 20.800781 29.640625 Z M 35.164062 16.125 " fill-opacity="1" fill-rule="nonzero"/></g><path fill="#088bf5" d="M 32.226562 18.890625 C 24.726562 11.835938 12.574219 11.835938 5.078125 18.890625 L 10.167969 23.679688 C 14.851562 19.269531 22.449219 19.269531 27.136719 23.679688 Z M 32.226562 18.890625 " fill-opacity="1" fill-rule="nonzero"/><path fill="#144496" d="M 27.136719 23.679688 C 22.449219 19.269531 14.851562 19.269531 10.167969 23.679688 L 16.5 29.640625 C 17.6875 30.757812 19.613281 30.757812 20.800781 29.640625 Z M 27.136719 23.679688 " fill-opacity="1" fill-rule="nonzero"/></svg>