<svg xmlns="http://www.w3.org/2000/svg" xmlns:xlink="http://www.w3.org/1999/xlink" width="50" zoomAndPan="magnify" viewBox="0 0 37.5 37.499999" height="50" preserveAspectRatio="xMidYMid meet" version="1.0"><path fill="#2ebcfa" d="M 20.304688 12.683594 L 5.546875 27.445312 C 5.261719 27.722656 5.039062 28.046875 4.886719 28.410156 C 4.730469 28.777344 4.652344 29.160156 4.648438 29.558594 C 4.644531 29.957031 4.71875 30.339844 4.871094 30.710938 C 5.023438 31.078125 5.238281 31.402344 5.519531 31.683594 C 5.804688 31.964844 6.128906 32.183594 6.496094 32.335938 C 6.863281 32.484375 7.25 32.5625 7.648438 32.558594 C 8.046875 32.554688 8.425781 32.476562 8.792969 32.320312 C 9.160156 32.167969 9.484375 31.945312 9.761719 31.660156 L 24.523438 16.902344 C 24.808594 16.625 25.027344 16.300781 25.183594 15.933594 C 25.339844 15.566406 25.417969 15.183594 25.417969 14.785156 C 25.421875 14.386719 25.347656 14.003906 25.195312 13.636719 C 25.042969 13.265625 24.828125 12.941406 24.546875 12.660156 C 24.265625 12.378906 23.941406 12.164062 23.570312 12.011719 C 23.203125 11.859375 22.820312 11.785156 22.421875 11.789062 C 22.023438 11.789062 21.640625 11.867188 21.273438 12.023438 C 20.90625 12.179688 20.585938 12.398438 20.304688 12.683594 Z M 20.304688 12.683594 " fill-opacity="1" fill-rule="nonzero"/><path fill="#2ebcfa" d="M 20.304688 12.683594 L 5.546875 27.445312 C 5.261719 27.722656 5.039062 28.046875 4.886719 28.410156 C 4.730469 28.777344 4.652344 29.160156 4.648438 29.558594 C 4.644531 29.957031 4.71875 30.339844 4.871094 30.710938 C 5.023438 31.078125 5.238281 31.402344 5.519531 31.683594 C 5.804688 31.964844 6.128906 32.183594 6.496094 32.335938 C 6.863281 32.484375 7.25 32.5625 7.648438 32.558594 C 8.046875 32.554688 8.425781 32.476562 8.792969 32.320312 C 9.160156 32.167969 9.484375 31.945312 9.761719 31.660156 L 24.523438 16.902344 C 24.808594 16.625 25.027344 16.300781 25.183594 15.933594 C 25.339844 15.566406 25.417969 15.183594 25.417969 14.785156 C 25.421875 14.386719 25.347656 14.003906 25.195312 13.636719 C 25.042969 13.265625 24.828125 12.941406 24.546875 12.660156 C 24.265625 12.378906 23.941406 12.164062 23.570312 12.011719 C 23.203125 11.859375 22.820312 11.785156 22.421875 11.789062 C 22.023438 11.789062 21.640625 11.867188 21.273438 12.023438 C 20.90625 12.179688 20.585938 12.398438 20.304688 12.683594 Z M 20.304688 12.683594 " fill-opacity="1" fill-rule="nonzero"/><path fill="#7e84ff" d="M 16.617188 7.941406 C 16.339844 8.21875 16.089844 8.519531 15.875 8.84375 C 15.65625 9.171875 15.472656 9.515625 15.324219 9.875 C 15.171875 10.238281 15.058594 10.609375 14.984375 10.996094 C 14.90625 11.378906 14.867188 11.765625 14.867188 12.15625 C 14.867188 12.550781 14.90625 12.9375 14.984375 13.320312 C 15.058594 13.707031 15.171875 14.078125 15.324219 14.441406 C 15.472656 14.800781 15.65625 15.144531 15.875 15.472656 C 16.089844 15.796875 16.339844 16.097656 16.617188 16.375 L 20.832031 20.59375 C 21.109375 20.867188 21.410156 21.117188 21.738281 21.332031 C 22.0625 21.550781 22.40625 21.734375 22.769531 21.882812 C 23.128906 22.035156 23.503906 22.148438 23.886719 22.222656 C 24.269531 22.300781 24.660156 22.339844 25.050781 22.339844 C 25.441406 22.339844 25.828125 22.300781 26.214844 22.222656 C 26.597656 22.148438 26.96875 22.035156 27.332031 21.882812 C 27.695312 21.734375 28.039062 21.550781 28.363281 21.332031 C 28.6875 21.117188 28.988281 20.867188 29.265625 20.59375 L 34.011719 15.847656 C 34.289062 15.570312 34.535156 15.269531 34.753906 14.945312 C 34.96875 14.617188 35.152344 14.273438 35.304688 13.914062 C 35.453125 13.550781 35.566406 13.179688 35.644531 12.792969 C 35.71875 12.410156 35.757812 12.023438 35.757812 11.628906 C 35.757812 11.238281 35.71875 10.851562 35.644531 10.46875 C 35.566406 10.082031 35.453125 9.710938 35.304688 9.347656 C 35.152344 8.988281 34.96875 8.644531 34.753906 8.316406 C 34.535156 7.992188 34.289062 7.691406 34.011719 7.414062 L 29.792969 3.195312 C 29.515625 2.917969 29.214844 2.671875 28.890625 2.453125 C 28.566406 2.238281 28.222656 2.054688 27.859375 1.902344 C 27.496094 1.753906 27.125 1.640625 26.742188 1.566406 C 26.355469 1.488281 25.96875 1.449219 25.578125 1.449219 C 25.183594 1.449219 24.796875 1.488281 24.414062 1.566406 C 24.03125 1.640625 23.65625 1.753906 23.296875 1.902344 C 22.933594 2.054688 22.589844 2.238281 22.265625 2.453125 C 21.9375 2.671875 21.636719 2.917969 21.359375 3.195312 Z M 29.792969 10.578125 C 30.011719 10.367188 30.179688 10.125 30.296875 9.851562 C 30.414062 9.574219 30.476562 9.285156 30.480469 8.988281 C 30.480469 8.6875 30.425781 8.398438 30.3125 8.121094 C 30.199219 7.839844 30.035156 7.597656 29.824219 7.382812 C 29.613281 7.171875 29.367188 7.007812 29.089844 6.894531 C 28.8125 6.78125 28.523438 6.726562 28.222656 6.730469 C 27.921875 6.730469 27.632812 6.792969 27.359375 6.910156 C 27.082031 7.03125 26.839844 7.199219 26.632812 7.414062 C 26.429688 7.625 26.273438 7.867188 26.164062 8.140625 C 26.054688 8.410156 26.003906 8.695312 26.003906 8.988281 C 26.007812 9.28125 26.066406 9.5625 26.179688 9.832031 C 26.292969 10.101562 26.453125 10.339844 26.660156 10.546875 C 26.867188 10.753906 27.105469 10.914062 27.375 11.027344 C 27.648438 11.140625 27.929688 11.199219 28.222656 11.203125 C 28.515625 11.203125 28.796875 11.152344 29.070312 11.042969 C 29.339844 10.933594 29.582031 10.78125 29.792969 10.578125 Z M 29.792969 10.578125 " fill-opacity="1" fill-rule="evenodd"/><path fill="#5217a1" d="M 20.832031 20.59375 L 24.523438 16.902344 C 24.792969 16.621094 25 16.296875 25.144531 15.9375 C 25.289062 15.574219 25.359375 15.195312 25.351562 14.808594 C 25.347656 14.417969 25.273438 14.042969 25.121094 13.683594 C 24.96875 13.324219 24.753906 13.003906 24.480469 12.730469 C 24.203125 12.453125 23.886719 12.238281 23.527344 12.089844 C 23.167969 11.9375 22.792969 11.859375 22.402344 11.855469 C 22.011719 11.851562 21.636719 11.921875 21.273438 12.066406 C 20.910156 12.207031 20.589844 12.414062 20.308594 12.683594 L 16.617188 16.375 Z M 20.832031 20.59375 " fill-opacity="1" fill-rule="nonzero"/></svg>