<svg xmlns="http://www.w3.org/2000/svg" xmlns:xlink="http://www.w3.org/1999/xlink" width="50" zoomAndPan="magnify" viewBox="0 0 37.5 37.499999" height="50" preserveAspectRatio="xMidYMid meet" version="1.0"><path fill="#2ebcfa" d="M 8.777344 18.03125 C 8.777344 18.03125 13.488281 16.039062 14.765625 14.765625 C 16.039062 13.488281 18.03125 8.777344 18.03125 8.777344 L 28.371094 19.117188 C 28.371094 19.117188 23.675781 21.089844 22.382812 22.382812 C 21.089844 23.675781 19.117188 28.371094 19.117188 28.371094 Z M 8.777344 18.03125 " fill-opacity="1" fill-rule="nonzero"/><path fill="#088bf5" d="M 32.179688 16.941406 C 35.488281 13.632812 35.488281 8.273438 32.179688 4.96875 C 28.875 1.660156 23.515625 1.660156 20.207031 4.96875 C 16.898438 8.273438 16.898438 13.632812 20.207031 16.941406 C 23.511719 20.246094 28.875 20.246094 32.179688 16.941406 Z M 28.914062 13.675781 C 29.277344 13.316406 29.558594 12.898438 29.757812 12.425781 C 29.953125 11.953125 30.054688 11.460938 30.054688 10.949219 C 30.054688 10.4375 29.957031 9.945312 29.761719 9.472656 C 29.566406 9 29.289062 8.582031 28.925781 8.222656 C 28.566406 7.859375 28.148438 7.582031 27.675781 7.386719 C 27.203125 7.191406 26.710938 7.09375 26.199219 7.09375 C 25.6875 7.09375 25.195312 7.195312 24.722656 7.390625 C 24.25 7.589844 23.832031 7.867188 23.472656 8.230469 C 23.121094 8.59375 22.847656 9.011719 22.660156 9.480469 C 22.46875 9.949219 22.375 10.4375 22.378906 10.941406 C 22.382812 11.449219 22.480469 11.9375 22.675781 12.402344 C 22.871094 12.871094 23.148438 13.28125 23.507812 13.640625 C 23.863281 14 24.277344 14.273438 24.742188 14.46875 C 25.210938 14.664062 25.699219 14.765625 26.203125 14.769531 C 26.710938 14.769531 27.199219 14.679688 27.667969 14.488281 C 28.136719 14.300781 28.550781 14.027344 28.914062 13.675781 Z M 16.941406 32.179688 C 20.246094 28.875 20.246094 23.515625 16.941406 20.207031 C 13.632812 16.898438 8.273438 16.898438 4.96875 20.207031 C 1.660156 23.511719 1.660156 28.875 4.96875 32.179688 C 8.273438 35.488281 13.632812 35.488281 16.941406 32.179688 Z M 13.675781 28.914062 C 13.859375 28.738281 14.019531 28.542969 14.164062 28.332031 C 14.308594 28.121094 14.429688 27.898438 14.53125 27.664062 C 14.628906 27.429688 14.707031 27.1875 14.757812 26.941406 C 14.808594 26.691406 14.835938 26.4375 14.835938 26.183594 C 14.839844 25.929688 14.816406 25.675781 14.765625 25.425781 C 14.71875 25.175781 14.644531 24.933594 14.550781 24.699219 C 14.453125 24.460938 14.332031 24.238281 14.191406 24.027344 C 14.050781 23.8125 13.890625 23.617188 13.710938 23.4375 C 13.53125 23.257812 13.332031 23.097656 13.121094 22.957031 C 12.910156 22.816406 12.6875 22.695312 12.449219 22.597656 C 12.214844 22.503906 11.972656 22.429688 11.722656 22.382812 C 11.472656 22.332031 11.21875 22.308594 10.964844 22.3125 C 10.710938 22.3125 10.457031 22.339844 10.207031 22.390625 C 9.957031 22.441406 9.714844 22.519531 9.480469 22.617188 C 9.246094 22.71875 9.023438 22.839844 8.816406 22.984375 C 8.605469 23.128906 8.410156 23.289062 8.234375 23.472656 C 7.882812 23.835938 7.613281 24.25 7.425781 24.71875 C 7.238281 25.1875 7.148438 25.675781 7.152344 26.179688 C 7.15625 26.683594 7.257812 27.167969 7.453125 27.636719 C 7.648438 28.101562 7.921875 28.511719 8.28125 28.867188 C 8.636719 29.226562 9.046875 29.5 9.511719 29.695312 C 9.976562 29.890625 10.464844 29.992188 10.96875 29.996094 C 11.472656 30 11.957031 29.910156 12.425781 29.722656 C 12.894531 29.535156 13.3125 29.265625 13.675781 28.914062 Z M 13.675781 28.914062 " fill-opacity="1" fill-rule="evenodd"/></svg>