<svg xmlns="http://www.w3.org/2000/svg" xmlns:xlink="http://www.w3.org/1999/xlink" width="50" zoomAndPan="magnify" viewBox="0 0 37.5 37.499999" height="50" preserveAspectRatio="xMidYMid meet" version="1.0"><defs><clipPath id="0aad064d97"><path d="M 1.332031 6 L 24 6 L 24 31 L 1.332031 31 Z M 1.332031 6 " clip-rule="nonzero"/></clipPath></defs><path fill="#088bf5" d="M 35.886719 14.480469 C 35.886719 13.972656 35.378906 13.628906 34.921875 13.832031 L 15.570312 22.402344 C 15.292969 22.527344 15.152344 22.746094 15.152344 23.050781 L 15.152344 29.652344 C 15.152344 30.042969 15.464844 30.359375 15.84375 30.359375 L 33.121094 30.359375 C 34.648438 30.359375 35.886719 29.09375 35.886719 27.53125 Z M 35.886719 14.480469 " fill-opacity="1" fill-rule="nonzero"/><path fill="#7e84ff" d="M 30.359375 11.019531 C 30.359375 10.519531 29.863281 10.179688 29.40625 10.367188 L 8.675781 18.933594 C 8.386719 19.054688 8.242188 19.273438 8.242188 19.585938 L 8.242188 29.65625 C 8.242188 30.042969 8.554688 30.359375 8.933594 30.359375 L 27.59375 30.359375 C 29.121094 30.359375 30.359375 29.101562 30.359375 27.546875 Z M 30.359375 11.019531 " fill-opacity="1" fill-rule="nonzero"/><path fill="#5217a1" d="M 30.359375 15.851562 L 15.570312 22.402344 C 15.316406 22.515625 15.152344 22.769531 15.152344 23.050781 L 15.152344 29.652344 C 15.152344 30.042969 15.464844 30.359375 15.84375 30.359375 L 27.59375 30.359375 C 29.121094 30.359375 30.359375 29.097656 30.359375 27.546875 Z M 30.359375 15.851562 " fill-opacity="1" fill-rule="nonzero"/><g clip-path="url(#0aad064d97)"><path fill="#2ebcfa" d="M 23.449219 7.5625 C 23.449219 7.066406 22.949219 6.726562 22.496094 6.914062 L 1.761719 15.457031 C 1.476562 15.578125 1.332031 15.792969 1.332031 16.105469 L 1.332031 29.65625 C 1.332031 30.042969 1.640625 30.359375 2.023438 30.359375 L 20.683594 30.359375 C 22.210938 30.359375 23.449219 29.101562 23.449219 27.554688 Z M 23.449219 7.5625 " fill-opacity="1" fill-rule="nonzero"/></g><path fill="#144496" d="M 23.449219 12.832031 L 8.675781 18.933594 C 8.386719 19.054688 8.242188 19.273438 8.242188 19.585938 L 8.242188 29.65625 C 8.242188 30.042969 8.554688 30.359375 8.933594 30.359375 L 20.683594 30.359375 C 22.210938 30.359375 23.449219 29.101562 23.449219 27.554688 Z M 23.449219 12.832031 " fill-opacity="1" fill-rule="nonzero"/></svg>