<svg xmlns="http://www.w3.org/2000/svg" xmlns:xlink="http://www.w3.org/1999/xlink" width="50" zoomAndPan="magnify" viewBox="0 0 37.5 37.499999" height="50" preserveAspectRatio="xMidYMid meet" version="1.0"><defs><clipPath id="68d6bb60d5"><path d="M 0 0 L 37.007812 0 L 37.007812 37.007812 L 0 37.007812 Z M 0 0 " clip-rule="nonzero"/></clipPath><clipPath id="2d7c03c4c7"><path d="M 0.8125 6 L 19 6 L 19 31 L 0.8125 31 Z M 0.8125 6 " clip-rule="nonzero"/></clipPath><clipPath id="8e10a39c1b"><path d="M 18 6 L 35.601562 6 L 35.601562 31 L 18 31 Z M 18 6 " clip-rule="nonzero"/></clipPath></defs><g clip-path="url(#68d6bb60d5)"><path fill="#ffffff" d="M 0 0 L 37.007812 0 L 37.007812 37.007812 L 0 37.007812 Z M 0 0 " fill-opacity="1" fill-rule="nonzero"/><path fill="#ffffff" d="M 0 0 L 37.007812 0 L 37.007812 37.007812 L 0 37.007812 Z M 0 0 " fill-opacity="1" fill-rule="nonzero"/></g><path fill="#ffffff" d="M 4.292969 12.640625 L 32.121094 12.640625 L 32.121094 23.773438 L 4.292969 23.773438 Z M 4.292969 12.640625 " fill-opacity="1" fill-rule="nonzero"/><g clip-path="url(#2d7c03c4c7)"><path fill="#7e84ff" d="M 3.597656 6.429688 C 3.226562 6.429688 2.871094 6.503906 2.53125 6.644531 C 2.191406 6.785156 1.890625 6.984375 1.628906 7.246094 C 1.367188 7.507812 1.167969 7.808594 1.027344 8.148438 C 0.882812 8.492188 0.8125 8.84375 0.8125 9.214844 L 0.8125 27.304688 C 0.8125 27.671875 0.882812 28.027344 1.027344 28.367188 C 1.167969 28.710938 1.367188 29.011719 1.628906 29.269531 C 1.890625 29.53125 2.191406 29.734375 2.53125 29.875 C 2.871094 30.015625 3.226562 30.085938 3.597656 30.085938 L 18.207031 30.085938 L 18.207031 6.429688 Z M 5.5625 19.464844 C 4.636719 18.929688 4.636719 17.589844 5.5625 17.054688 L 11.855469 13.421875 C 12.785156 12.886719 13.941406 13.554688 13.941406 14.625 L 13.941406 21.890625 C 13.941406 22.964844 12.785156 23.632812 11.855469 23.097656 Z M 5.5625 19.464844 " fill-opacity="1" fill-rule="evenodd"/></g><g clip-path="url(#8e10a39c1b)"><path fill="#2ebcfa" d="M 32.816406 6.429688 L 18.207031 6.429688 L 18.207031 30.085938 L 32.816406 30.085938 C 33.1875 30.085938 33.542969 30.015625 33.882812 29.875 C 34.222656 29.734375 34.523438 29.53125 34.785156 29.269531 C 35.046875 29.011719 35.246094 28.710938 35.386719 28.367188 C 35.53125 28.027344 35.601562 27.671875 35.601562 27.304688 L 35.601562 9.214844 C 35.601562 8.84375 35.53125 8.492188 35.386719 8.148438 C 35.246094 7.808594 35.046875 7.507812 34.785156 7.246094 C 34.523438 6.984375 34.222656 6.785156 33.882812 6.644531 C 33.542969 6.503906 33.1875 6.429688 32.816406 6.429688 Z M 30.851562 19.464844 C 31.78125 18.929688 31.78125 17.589844 30.851562 17.054688 L 24.558594 13.421875 C 23.632812 12.886719 22.472656 13.554688 22.472656 14.625 L 22.472656 21.890625 C 22.472656 22.964844 23.632812 23.632812 24.558594 23.097656 Z M 30.851562 19.464844 " fill-opacity="1" fill-rule="evenodd"/></g><path fill="#5217a1" d="M 16.816406 5.054688 C 16.816406 4.25 17.4375 3.597656 18.207031 3.597656 C 18.976562 3.597656 19.597656 4.25 19.597656 5.054688 L 19.597656 31.359375 C 19.597656 32.164062 18.976562 32.816406 18.207031 32.816406 C 17.4375 32.816406 16.816406 32.164062 16.816406 31.359375 Z M 16.816406 5.054688 " fill-opacity="1" fill-rule="nonzero"/></svg>