<svg xmlns="http://www.w3.org/2000/svg" xmlns:xlink="http://www.w3.org/1999/xlink" width="50" zoomAndPan="magnify" viewBox="0 0 37.5 37.499999" height="50" preserveAspectRatio="xMidYMid meet" version="1.0"><defs><clipPath id="09c4feeeba"><path d="M 0.8125 6 L 16 6 L 16 31 L 0.8125 31 Z M 0.8125 6 " clip-rule="nonzero"/></clipPath><clipPath id="a3b5d2ebd0"><path d="M 22 6 L 36.339844 6 L 36.339844 31 L 22 31 Z M 22 6 " clip-rule="nonzero"/></clipPath></defs><g clip-path="url(#09c4feeeba)"><path fill="#7e84ff" d="M 0.8125 6.5 C 2.679688 6.5 4.527344 6.8125 6.253906 7.417969 C 7.976562 8.023438 9.542969 8.914062 10.863281 10.035156 C 12.183594 11.15625 13.226562 12.488281 13.941406 13.953125 C 14.660156 15.410156 15.019531 16.953125 15.023438 18.578125 C 15.023438 20.164062 14.65625 21.734375 13.941406 23.199219 C 13.226562 24.664062 12.183594 25.996094 10.863281 27.117188 C 9.542969 28.238281 7.976562 29.128906 6.253906 29.738281 C 4.492188 30.351562 2.679688 30.660156 0.8125 30.65625 Z M 0.8125 6.5 " fill-opacity="1" fill-rule="nonzero"/></g><path fill="#2ebcfa" d="M 11.472656 6.5 C 13.335938 6.5 15.1875 6.8125 16.910156 7.417969 C 18.632812 8.023438 20.199219 8.914062 21.519531 10.035156 C 22.839844 11.15625 23.886719 12.488281 24.601562 13.953125 C 25.316406 15.410156 25.679688 16.953125 25.683594 18.578125 C 25.683594 20.164062 25.316406 21.734375 24.601562 23.199219 C 23.886719 24.664062 22.839844 25.996094 21.519531 27.117188 C 20.199219 28.238281 18.632812 29.128906 16.910156 29.738281 C 15.148438 30.351562 13.335938 30.660156 11.472656 30.65625 Z M 11.472656 6.5 " fill-opacity="1" fill-rule="nonzero"/><path fill="#144496" d="M 11.472656 10.589844 C 12.507812 11.585938 13.34375 12.722656 13.941406 13.957031 C 14.660156 15.414062 15.019531 16.953125 15.023438 18.578125 C 15.023438 20.164062 14.65625 21.734375 13.941406 23.199219 C 13.34375 24.433594 12.507812 25.570312 11.472656 26.566406 L 11.472656 10.585938 Z M 11.472656 10.589844 " fill-opacity="1" fill-rule="nonzero"/><g clip-path="url(#a3b5d2ebd0)"><path fill="#5217a1" d="M 22.128906 6.5 C 23.996094 6.5 25.84375 6.8125 27.566406 7.417969 C 29.292969 8.023438 30.859375 8.914062 32.179688 10.035156 C 33.496094 11.15625 34.542969 12.488281 35.257812 13.953125 C 35.976562 15.410156 36.335938 16.953125 36.339844 18.578125 C 36.339844 20.164062 35.972656 21.734375 35.257812 23.199219 C 34.542969 24.664062 33.496094 25.996094 32.179688 27.117188 C 30.859375 28.238281 29.292969 29.128906 27.566406 29.738281 C 25.808594 30.351562 23.996094 30.660156 22.128906 30.65625 Z M 22.128906 6.5 " fill-opacity="1" fill-rule="nonzero"/></g><path fill="#144496" d="M 22.128906 10.589844 C 23.164062 11.585938 24 12.722656 24.601562 13.957031 C 25.316406 15.414062 25.679688 16.953125 25.683594 18.578125 C 25.683594 20.164062 25.316406 21.734375 24.601562 23.199219 C 24 24.433594 23.164062 25.570312 22.128906 26.566406 L 22.128906 10.585938 Z M 22.128906 10.589844 " fill-opacity="1" fill-rule="nonzero"/></svg>