<svg xmlns="http://www.w3.org/2000/svg" xmlns:xlink="http://www.w3.org/1999/xlink" width="50" zoomAndPan="magnify" viewBox="0 0 37.5 37.499999" height="50" preserveAspectRatio="xMidYMid meet" version="1.0"><defs><clipPath id="ca8f865752"><path d="M 4 6 L 36.265625 6 L 36.265625 31 L 4 31 Z M 4 6 " clip-rule="nonzero"/></clipPath><clipPath id="5e5ce9f59c"><path d="M 0.738281 6 L 27 6 L 27 31 L 0.738281 31 Z M 0.738281 6 " clip-rule="nonzero"/></clipPath><clipPath id="c83719c64c"><path d="M 0.738281 26 L 27 26 L 27 31 L 0.738281 31 Z M 0.738281 26 " clip-rule="nonzero"/></clipPath><clipPath id="2ec0ee3415"><path d="M 9 26 L 36.265625 26 L 36.265625 31 L 9 31 Z M 9 26 " clip-rule="nonzero"/></clipPath></defs><g clip-path="url(#ca8f865752)"><path fill="#7e84ff" d="M 7.445312 6.386719 L 4.976562 26.152344 L 9.222656 26.152344 C 9.269531 26.730469 9.417969 27.277344 9.667969 27.796875 C 9.917969 28.320312 10.257812 28.773438 10.679688 29.167969 C 11.105469 29.5625 11.585938 29.863281 12.125 30.074219 C 12.664062 30.285156 13.222656 30.390625 13.800781 30.390625 C 14.378906 30.390625 14.9375 30.285156 15.472656 30.074219 C 16.011719 29.863281 16.492188 29.5625 16.917969 29.167969 C 17.339844 28.773438 17.679688 28.320312 17.929688 27.796875 C 18.183594 27.277344 18.328125 26.730469 18.375 26.152344 L 18.386719 26.152344 C 18.386719 26.429688 18.414062 26.707031 18.46875 26.980469 C 18.523438 27.25 18.605469 27.515625 18.710938 27.773438 C 18.816406 28.03125 18.945312 28.273438 19.101562 28.503906 C 19.257812 28.738281 19.429688 28.949219 19.628906 29.148438 C 19.824219 29.34375 20.039062 29.519531 20.269531 29.675781 C 20.5 29.828125 20.746094 29.960938 21.003906 30.066406 C 21.257812 30.171875 21.523438 30.253906 21.796875 30.304688 C 22.070312 30.359375 22.34375 30.386719 22.621094 30.386719 C 22.902344 30.386719 23.175781 30.359375 23.449219 30.304688 C 23.722656 30.253906 23.988281 30.171875 24.242188 30.066406 C 24.5 29.960938 24.746094 29.828125 24.976562 29.675781 C 25.207031 29.519531 25.421875 29.34375 25.617188 29.148438 C 25.816406 28.949219 25.988281 28.738281 26.144531 28.503906 C 26.300781 28.273438 26.429688 28.03125 26.535156 27.773438 C 26.640625 27.515625 26.722656 27.25 26.777344 26.980469 C 26.832031 26.707031 26.859375 26.429688 26.859375 26.152344 L 26.871094 26.152344 C 26.917969 26.730469 27.0625 27.277344 27.316406 27.796875 C 27.566406 28.320312 27.90625 28.773438 28.328125 29.167969 C 28.753906 29.5625 29.234375 29.863281 29.773438 30.074219 C 30.308594 30.285156 30.867188 30.390625 31.445312 30.390625 C 32.023438 30.390625 32.582031 30.285156 33.121094 30.074219 C 33.660156 29.863281 34.140625 29.5625 34.566406 29.167969 C 34.988281 28.773438 35.328125 28.320312 35.578125 27.796875 C 35.828125 27.277344 35.976562 26.730469 36.023438 26.152344 L 36.035156 26.152344 L 36.035156 25.445312 L 36.003906 25.253906 C 35.992188 25.164062 35.980469 25.070312 35.960938 24.980469 L 35.945312 24.898438 L 35.933594 24.828125 L 33.25 8.746094 C 33.195312 8.417969 33.085938 8.105469 32.921875 7.816406 C 32.757812 7.527344 32.546875 7.273438 32.292969 7.058594 C 32.035156 6.839844 31.753906 6.675781 31.4375 6.558594 C 31.125 6.445312 30.800781 6.386719 30.46875 6.386719 Z M 7.445312 6.386719 " fill-opacity="1" fill-rule="nonzero"/></g><g clip-path="url(#5e5ce9f59c)"><path fill="#5cc0ff" d="M 10.621094 6.386719 L 9.210938 26.152344 C 9.210938 26.429688 9.183594 26.707031 9.128906 26.980469 C 9.074219 27.25 8.996094 27.515625 8.886719 27.773438 C 8.78125 28.03125 8.652344 28.273438 8.496094 28.503906 C 8.34375 28.738281 8.167969 28.949219 7.96875 29.148438 C 7.773438 29.34375 7.558594 29.519531 7.328125 29.675781 C 7.097656 29.828125 6.851562 29.960938 6.597656 30.066406 C 6.339844 30.171875 6.074219 30.253906 5.800781 30.304688 C 5.527344 30.359375 5.253906 30.386719 4.976562 30.386719 C 4.699219 30.386719 4.421875 30.359375 4.148438 30.304688 C 3.875 30.253906 3.613281 30.171875 3.355469 30.066406 C 3.097656 29.960938 2.855469 29.828125 2.621094 29.675781 C 2.390625 29.519531 2.175781 29.34375 1.980469 29.148438 C 1.785156 28.949219 1.609375 28.738281 1.453125 28.503906 C 1.300781 28.273438 1.167969 28.03125 1.0625 27.773438 C 0.957031 27.515625 0.875 27.25 0.820312 26.980469 C 0.765625 26.707031 0.738281 26.429688 0.738281 26.152344 L 0.738281 25.445312 L 3.207031 8.796875 C 3.257812 8.460938 3.363281 8.148438 3.527344 7.851562 C 3.6875 7.554688 3.898438 7.292969 4.15625 7.074219 C 4.410156 6.851562 4.699219 6.683594 5.015625 6.5625 C 5.332031 6.445312 5.660156 6.386719 6 6.386719 Z M 25.445312 6.386719 L 26.859375 26.152344 C 26.859375 26.429688 26.832031 26.707031 26.777344 26.980469 C 26.722656 27.25 26.640625 27.515625 26.535156 27.773438 C 26.429688 28.03125 26.300781 28.273438 26.144531 28.503906 C 25.988281 28.738281 25.816406 28.949219 25.617188 29.148438 C 25.421875 29.34375 25.207031 29.519531 24.976562 29.675781 C 24.746094 29.828125 24.5 29.960938 24.242188 30.066406 C 23.988281 30.171875 23.722656 30.253906 23.449219 30.304688 C 23.175781 30.359375 22.902344 30.386719 22.621094 30.386719 C 22.34375 30.386719 22.070312 30.359375 21.796875 30.304688 C 21.523438 30.253906 21.257812 30.171875 21.003906 30.066406 C 20.746094 29.960938 20.5 29.828125 20.269531 29.675781 C 20.039062 29.519531 19.824219 29.34375 19.628906 29.148438 C 19.429688 28.949219 19.257812 28.738281 19.101562 28.503906 C 18.945312 28.273438 18.816406 28.03125 18.710938 27.773438 C 18.605469 27.515625 18.523438 27.25 18.46875 26.980469 C 18.414062 26.707031 18.386719 26.429688 18.386719 26.152344 L 18.386719 6.386719 Z M 25.445312 6.386719 " fill-opacity="1" fill-rule="nonzero"/></g><g clip-path="url(#c83719c64c)"><path fill="#088bf5" d="M 9.210938 26.152344 C 9.210938 26.429688 9.183594 26.707031 9.128906 26.980469 C 9.074219 27.25 8.996094 27.515625 8.886719 27.773438 C 8.78125 28.03125 8.652344 28.273438 8.496094 28.503906 C 8.34375 28.738281 8.167969 28.949219 7.96875 29.148438 C 7.773438 29.34375 7.558594 29.519531 7.328125 29.675781 C 7.097656 29.828125 6.851562 29.960938 6.597656 30.066406 C 6.339844 30.171875 6.074219 30.253906 5.800781 30.304688 C 5.527344 30.359375 5.253906 30.386719 4.976562 30.386719 C 4.699219 30.386719 4.421875 30.359375 4.148438 30.304688 C 3.875 30.253906 3.613281 30.171875 3.355469 30.066406 C 3.097656 29.960938 2.855469 29.828125 2.621094 29.675781 C 2.390625 29.519531 2.175781 29.34375 1.980469 29.148438 C 1.785156 28.949219 1.609375 28.738281 1.453125 28.503906 C 1.300781 28.273438 1.167969 28.03125 1.0625 27.773438 C 0.957031 27.515625 0.875 27.25 0.820312 26.980469 C 0.765625 26.707031 0.738281 26.429688 0.738281 26.152344 Z M 26.859375 26.152344 C 26.859375 26.429688 26.832031 26.707031 26.777344 26.980469 C 26.722656 27.25 26.640625 27.515625 26.535156 27.773438 C 26.429688 28.03125 26.300781 28.273438 26.144531 28.503906 C 25.988281 28.738281 25.816406 28.949219 25.617188 29.148438 C 25.421875 29.34375 25.207031 29.519531 24.976562 29.675781 C 24.746094 29.828125 24.5 29.960938 24.242188 30.066406 C 23.988281 30.171875 23.722656 30.253906 23.449219 30.304688 C 23.175781 30.359375 22.902344 30.386719 22.621094 30.386719 C 22.34375 30.386719 22.070312 30.359375 21.796875 30.304688 C 21.523438 30.253906 21.257812 30.171875 21.003906 30.066406 C 20.746094 29.960938 20.5 29.828125 20.269531 29.675781 C 20.039062 29.519531 19.824219 29.34375 19.628906 29.148438 C 19.429688 28.949219 19.257812 28.738281 19.101562 28.503906 C 18.945312 28.273438 18.816406 28.03125 18.710938 27.773438 C 18.605469 27.515625 18.523438 27.25 18.46875 26.980469 C 18.414062 26.707031 18.386719 26.429688 18.386719 26.152344 Z M 26.859375 26.152344 " fill-opacity="1" fill-rule="nonzero"/></g><g clip-path="url(#2ec0ee3415)"><path fill="#5217a1" d="M 9.226562 26.152344 C 9.269531 26.730469 9.417969 27.277344 9.667969 27.796875 C 9.921875 28.316406 10.257812 28.773438 10.683594 29.164062 C 11.105469 29.558594 11.589844 29.859375 12.125 30.070312 C 12.664062 30.28125 13.222656 30.386719 13.800781 30.386719 C 14.378906 30.386719 14.933594 30.28125 15.472656 30.070312 C 16.011719 29.859375 16.492188 29.558594 16.914062 29.164062 C 17.339844 28.773438 17.679688 28.316406 17.929688 27.796875 C 18.179688 27.277344 18.328125 26.730469 18.375 26.152344 Z M 26.871094 26.152344 C 26.917969 26.730469 27.066406 27.277344 27.316406 27.796875 C 27.570312 28.316406 27.90625 28.773438 28.332031 29.164062 C 28.753906 29.558594 29.234375 29.859375 29.773438 30.070312 C 30.3125 30.28125 30.871094 30.386719 31.445312 30.386719 C 32.023438 30.386719 32.582031 30.28125 33.121094 30.070312 C 33.660156 29.859375 34.140625 29.558594 34.5625 29.164062 C 34.988281 28.773438 35.324219 28.316406 35.578125 27.796875 C 35.828125 27.277344 35.976562 26.730469 36.023438 26.152344 Z M 26.871094 26.152344 " fill-opacity="1" fill-rule="nonzero"/></g></svg>