<svg xmlns="http://www.w3.org/2000/svg" xmlns:xlink="http://www.w3.org/1999/xlink" width="50" zoomAndPan="magnify" viewBox="0 0 37.5 37.499999" height="50" preserveAspectRatio="xMidYMid meet" version="1.0"><path fill="#2ebcfa" d="M 2.546875 5.707031 C 2.546875 5.289062 2.625 4.882812 2.785156 4.496094 C 2.945312 4.109375 3.175781 3.769531 3.472656 3.472656 C 3.769531 3.175781 4.109375 2.945312 4.496094 2.785156 C 4.882812 2.625 5.289062 2.546875 5.707031 2.546875 L 20.722656 2.546875 L 20.722656 20.722656 L 2.546875 20.722656 Z M 2.546875 5.707031 " fill-opacity="1" fill-rule="nonzero"/><path fill="#2ebcfa" d="M 15.980469 16.769531 L 24.675781 16.769531 L 24.675781 21.117188 C 24.675781 21.402344 24.648438 21.6875 24.589844 21.964844 C 24.535156 22.246094 24.453125 22.519531 24.34375 22.78125 C 24.234375 23.046875 24.101562 23.296875 23.941406 23.53125 C 23.785156 23.769531 23.601562 23.988281 23.402344 24.191406 C 23.199219 24.394531 22.980469 24.574219 22.742188 24.730469 C 22.503906 24.890625 22.253906 25.023438 21.992188 25.132812 C 21.726562 25.242188 21.457031 25.324219 21.175781 25.382812 C 20.894531 25.4375 20.613281 25.464844 20.328125 25.464844 L 15.980469 25.464844 Z M 15.980469 16.769531 " fill-opacity="1" fill-rule="nonzero"/><path fill="#7e84ff" d="M 23.09375 32.578125 C 24.851562 32.578125 26.5 32.097656 27.910156 31.265625 L 31.335938 34.6875 C 32.585938 33.707031 33.707031 32.585938 34.6875 31.335938 L 31.265625 27.910156 C 32.144531 26.425781 32.582031 24.820312 32.578125 23.09375 C 32.578125 17.855469 28.332031 13.609375 23.09375 13.609375 C 17.855469 13.609375 13.609375 17.855469 13.609375 23.09375 C 13.609375 28.332031 17.855469 32.578125 23.09375 32.578125 Z M 23.09375 28.625 C 23.457031 28.625 23.816406 28.589844 24.171875 28.519531 C 24.527344 28.449219 24.875 28.34375 25.210938 28.203125 C 25.546875 28.066406 25.867188 27.894531 26.167969 27.695312 C 26.46875 27.492188 26.75 27.261719 27.003906 27.003906 C 27.261719 26.75 27.492188 26.46875 27.695312 26.167969 C 27.894531 25.863281 28.066406 25.546875 28.203125 25.210938 C 28.34375 24.875 28.449219 24.527344 28.519531 24.171875 C 28.589844 23.816406 28.625 23.457031 28.625 23.09375 C 28.625 22.730469 28.589844 22.371094 28.519531 22.015625 C 28.449219 21.65625 28.34375 21.3125 28.203125 20.976562 C 28.066406 20.640625 27.894531 20.320312 27.695312 20.019531 C 27.492188 19.71875 27.261719 19.4375 27.003906 19.183594 C 26.75 18.925781 26.46875 18.695312 26.167969 18.492188 C 25.867188 18.292969 25.546875 18.121094 25.210938 17.984375 C 24.875 17.84375 24.527344 17.738281 24.171875 17.667969 C 23.816406 17.597656 23.457031 17.5625 23.09375 17.5625 C 22.730469 17.5625 22.371094 17.597656 22.015625 17.667969 C 21.65625 17.738281 21.3125 17.84375 20.976562 17.984375 C 20.640625 18.121094 20.320312 18.292969 20.019531 18.492188 C 19.71875 18.695312 19.4375 18.925781 19.183594 19.183594 C 18.925781 19.4375 18.695312 19.71875 18.492188 20.019531 C 18.292969 20.320312 18.121094 20.640625 17.984375 20.976562 C 17.84375 21.3125 17.738281 21.65625 17.667969 22.015625 C 17.597656 22.371094 17.5625 22.730469 17.5625 23.09375 C 17.5625 23.457031 17.597656 23.816406 17.667969 24.171875 C 17.738281 24.527344 17.84375 24.875 17.984375 25.210938 C 18.121094 25.546875 18.292969 25.863281 18.492188 26.167969 C 18.695312 26.46875 18.925781 26.75 19.183594 27.003906 C 19.4375 27.261719 19.71875 27.492188 20.019531 27.695312 C 20.320312 27.894531 20.640625 28.066406 20.976562 28.203125 C 21.3125 28.34375 21.65625 28.449219 22.015625 28.519531 C 22.371094 28.589844 22.730469 28.625 23.09375 28.625 Z M 23.09375 28.625 " fill-opacity="1" fill-rule="evenodd"/><path fill="#144496" d="M 13.910156 25.464844 C 13.707031 24.6875 13.609375 23.898438 13.609375 23.09375 C 13.609375 17.855469 17.855469 13.609375 23.09375 13.609375 C 23.632812 13.609375 24.160156 13.65625 24.675781 13.742188 L 24.675781 17.789062 C 24.160156 17.636719 23.636719 17.5625 23.101562 17.558594 C 22.570312 17.558594 22.042969 17.632812 21.53125 17.785156 C 21.019531 17.933594 20.535156 18.15625 20.085938 18.445312 C 19.640625 18.734375 19.238281 19.085938 18.890625 19.492188 C 18.542969 19.898438 18.261719 20.34375 18.042969 20.832031 C 17.824219 21.320312 17.679688 21.828125 17.609375 22.359375 C 17.539062 22.890625 17.542969 23.417969 17.625 23.949219 C 17.707031 24.476562 17.863281 24.980469 18.09375 25.464844 Z M 13.910156 25.464844 " fill-opacity="1" fill-rule="nonzero"/></svg>