<svg xmlns="http://www.w3.org/2000/svg" xmlns:xlink="http://www.w3.org/1999/xlink" width="50" zoomAndPan="magnify" viewBox="0 0 37.5 37.499999" height="50" preserveAspectRatio="xMidYMid meet" version="1.0"><defs><clipPath id="6dae7d6dfb"><path d="M 6 6 L 35.96875 6 L 35.96875 35.96875 L 6 35.96875 Z M 6 6 " clip-rule="nonzero"/></clipPath><clipPath id="84bc29f475"><path d="M 1.183594 1.183594 L 31 1.183594 L 31 31 L 1.183594 31 Z M 1.183594 1.183594 " clip-rule="nonzero"/></clipPath></defs><g clip-path="url(#6dae7d6dfb)"><path fill="#5217a1" d="M 30.746094 6.257812 C 31.148438 6.65625 31.53125 7.078125 31.890625 7.515625 C 32.25 7.953125 32.585938 8.410156 32.902344 8.878906 C 33.21875 9.351562 33.507812 9.839844 33.777344 10.339844 C 34.042969 10.839844 34.285156 11.351562 34.503906 11.875 C 34.71875 12.398438 34.910156 12.933594 35.074219 13.476562 C 35.238281 14.019531 35.378906 14.566406 35.488281 15.125 C 35.597656 15.679688 35.679688 16.238281 35.738281 16.804688 C 35.792969 17.367188 35.820312 17.933594 35.820312 18.503906 C 35.820312 19.070312 35.792969 19.636719 35.738281 20.199219 C 35.679688 20.765625 35.597656 21.324219 35.488281 21.878906 C 35.378906 22.4375 35.238281 22.988281 35.074219 23.53125 C 34.910156 24.070312 34.71875 24.605469 34.503906 25.128906 C 34.285156 25.652344 34.042969 26.164062 33.777344 26.664062 C 33.507812 27.167969 33.21875 27.652344 32.902344 28.125 C 32.585938 28.59375 32.25 29.050781 31.890625 29.488281 C 31.53125 29.925781 31.148438 30.347656 30.746094 30.746094 C 30.347656 31.148438 29.925781 31.53125 29.488281 31.890625 C 29.050781 32.25 28.59375 32.585938 28.125 32.902344 C 27.652344 33.21875 27.167969 33.507812 26.664062 33.777344 C 26.164062 34.042969 25.652344 34.285156 25.128906 34.503906 C 24.605469 34.71875 24.070312 34.910156 23.53125 35.074219 C 22.988281 35.238281 22.4375 35.378906 21.878906 35.488281 C 21.324219 35.597656 20.765625 35.679688 20.199219 35.738281 C 19.636719 35.792969 19.070312 35.820312 18.503906 35.820312 C 17.933594 35.820312 17.367188 35.792969 16.804688 35.738281 C 16.238281 35.679688 15.679688 35.597656 15.125 35.488281 C 14.566406 35.378906 14.019531 35.238281 13.476562 35.074219 C 12.933594 34.910156 12.398438 34.71875 11.875 34.503906 C 11.351562 34.285156 10.839844 34.042969 10.339844 33.777344 C 9.839844 33.507812 9.351562 33.21875 8.878906 32.902344 C 8.410156 32.585938 7.953125 32.25 7.515625 31.890625 C 7.078125 31.53125 6.65625 31.148438 6.257812 30.746094 Z M 30.746094 6.257812 " fill-opacity="1" fill-rule="nonzero"/></g><g clip-path="url(#84bc29f475)"><path fill="#7e84ff" d="M 6.257812 30.746094 C 5.855469 30.347656 5.476562 29.925781 5.113281 29.488281 C 4.753906 29.050781 4.417969 28.59375 4.101562 28.125 C 3.789062 27.652344 3.496094 27.167969 3.230469 26.664062 C 2.960938 26.164062 2.71875 25.652344 2.503906 25.128906 C 2.285156 24.605469 2.09375 24.070312 1.929688 23.53125 C 1.765625 22.988281 1.628906 22.4375 1.515625 21.878906 C 1.40625 21.324219 1.324219 20.765625 1.265625 20.199219 C 1.210938 19.636719 1.183594 19.070312 1.183594 18.503906 C 1.183594 17.933594 1.210938 17.367188 1.265625 16.804688 C 1.324219 16.238281 1.40625 15.679688 1.515625 15.125 C 1.628906 14.566406 1.765625 14.019531 1.929688 13.476562 C 2.09375 12.933594 2.285156 12.398438 2.503906 11.875 C 2.71875 11.351562 2.960938 10.839844 3.230469 10.339844 C 3.496094 9.839844 3.789062 9.351562 4.101562 8.878906 C 4.417969 8.410156 4.753906 7.953125 5.113281 7.515625 C 5.476562 7.078125 5.855469 6.65625 6.257812 6.257812 C 6.65625 5.855469 7.078125 5.476562 7.515625 5.113281 C 7.953125 4.753906 8.410156 4.417969 8.878906 4.101562 C 9.351562 3.789062 9.839844 3.496094 10.339844 3.230469 C 10.839844 2.960938 11.351562 2.71875 11.875 2.503906 C 12.398438 2.285156 12.933594 2.09375 13.476562 1.929688 C 14.019531 1.765625 14.566406 1.628906 15.125 1.515625 C 15.679688 1.40625 16.238281 1.324219 16.804688 1.265625 C 17.367188 1.210938 17.933594 1.183594 18.503906 1.183594 C 19.070312 1.183594 19.636719 1.210938 20.199219 1.265625 C 20.765625 1.324219 21.324219 1.40625 21.878906 1.515625 C 22.4375 1.628906 22.988281 1.765625 23.53125 1.929688 C 24.070312 2.09375 24.605469 2.285156 25.128906 2.503906 C 25.652344 2.71875 26.164062 2.960938 26.664062 3.230469 C 27.167969 3.496094 27.652344 3.789062 28.125 4.101562 C 28.59375 4.417969 29.050781 4.753906 29.488281 5.113281 C 29.925781 5.476562 30.347656 5.855469 30.746094 6.257812 Z M 6.257812 30.746094 " fill-opacity="1" fill-rule="nonzero"/></g><path fill="#ffffff" d="M 33.050781 18.503906 C 33.050781 26.535156 26.535156 33.050781 18.503906 33.050781 C 10.46875 33.050781 3.957031 26.535156 3.957031 18.503906 C 3.957031 10.46875 10.46875 3.953125 18.503906 3.953125 C 26.535156 3.953125 33.050781 10.46875 33.050781 18.503906 Z M 33.050781 18.503906 " fill-opacity="1" fill-rule="nonzero"/><path fill="#7e84ff" d="M 10.175781 26.828125 C 9.617188 26.285156 9.121094 25.691406 8.679688 25.046875 C 8.242188 24.402344 7.871094 23.722656 7.566406 23.007812 C 7.261719 22.289062 7.03125 21.550781 6.871094 20.785156 C 6.714844 20.023438 6.632812 19.253906 6.628906 18.472656 C 6.625 17.695312 6.695312 16.921875 6.84375 16.160156 C 6.992188 15.394531 7.214844 14.652344 7.511719 13.929688 C 7.808594 13.210938 8.171875 12.523438 8.605469 11.878906 C 9.035156 11.230469 9.527344 10.628906 10.078125 10.078125 C 10.628906 9.527344 11.230469 9.035156 11.878906 8.605469 C 12.523438 8.171875 13.210938 7.808594 13.929688 7.511719 C 14.652344 7.214844 15.394531 6.992188 16.160156 6.84375 C 16.921875 6.695312 17.695312 6.625 18.472656 6.628906 C 19.253906 6.632812 20.023438 6.714844 20.785156 6.871094 C 21.550781 7.03125 22.289062 7.261719 23.007812 7.566406 C 23.722656 7.871094 24.402344 8.242188 25.046875 8.679688 C 25.691406 9.121094 26.285156 9.617188 26.828125 10.175781 Z M 10.175781 26.828125 " fill-opacity="1" fill-rule="nonzero"/><path fill="#5217a1" d="M 26.828125 10.175781 C 27.308594 10.652344 27.742188 11.167969 28.132812 11.722656 C 28.519531 12.273438 28.859375 12.855469 29.148438 13.46875 C 29.4375 14.078125 29.671875 14.710938 29.855469 15.363281 C 30.035156 16.011719 30.15625 16.675781 30.222656 17.347656 C 30.289062 18.023438 30.300781 18.695312 30.25 19.371094 C 30.199219 20.042969 30.09375 20.710938 29.929688 21.363281 C 29.765625 22.019531 29.546875 22.65625 29.273438 23.277344 C 28.996094 23.894531 28.671875 24.484375 28.296875 25.046875 C 27.921875 25.609375 27.5 26.136719 27.035156 26.625 C 26.566406 27.113281 26.0625 27.558594 25.519531 27.964844 C 24.976562 28.367188 24.402344 28.71875 23.800781 29.023438 C 23.195312 29.328125 22.570312 29.578125 21.921875 29.773438 C 21.277344 29.96875 20.617188 30.109375 19.945312 30.191406 C 19.273438 30.273438 18.601562 30.300781 17.925781 30.265625 C 17.25 30.234375 16.582031 30.140625 15.921875 29.992188 C 15.261719 29.84375 14.621094 29.640625 13.996094 29.382812 C 12.554688 28.785156 11.28125 27.933594 10.175781 26.828125 Z M 26.828125 10.175781 " fill-opacity="1" fill-rule="nonzero"/><path fill="#ffffff" d="M 17.445312 11.523438 C 17.550781 11.328125 17.695312 11.171875 17.882812 11.054688 C 18.074219 10.941406 18.28125 10.882812 18.503906 10.882812 C 18.722656 10.882812 18.929688 10.941406 19.121094 11.054688 C 19.308594 11.171875 19.457031 11.328125 19.558594 11.523438 L 20.921875 14.046875 C 21.09375 14.363281 21.390625 14.589844 21.734375 14.660156 L 24.457031 15.234375 C 25.382812 15.429688 25.746094 16.601562 25.109375 17.324219 L 23.230469 19.457031 C 22.992188 19.726562 22.878906 20.089844 22.917969 20.453125 L 23.238281 23.328125 C 23.34375 24.304688 22.386719 25.027344 21.53125 24.621094 L 19.003906 23.417969 C 18.671875 23.253906 18.335938 23.253906 18 23.417969 L 15.472656 24.621094 C 14.617188 25.027344 13.660156 24.304688 13.765625 23.328125 L 14.085938 20.453125 C 14.128906 20.074219 14.023438 19.742188 13.773438 19.457031 L 11.894531 17.324219 C 11.257812 16.601562 11.621094 15.429688 12.546875 15.234375 L 15.269531 14.660156 C 15.613281 14.589844 15.910156 14.363281 16.082031 14.042969 Z M 17.445312 11.523438 " fill-opacity="1" fill-rule="nonzero"/></svg>