<svg xmlns="http://www.w3.org/2000/svg" xmlns:xlink="http://www.w3.org/1999/xlink" width="50" zoomAndPan="magnify" viewBox="0 0 37.5 37.499999" height="50" preserveAspectRatio="xMidYMid meet" version="1.0"><path fill="#7e84ff" d="M 33.636719 17.1875 C 33.636719 16.828125 33.625 16.46875 33.601562 16.113281 C 33.578125 15.753906 33.542969 15.398438 33.496094 15.039062 C 33.449219 14.683594 33.390625 14.332031 33.320312 13.980469 C 33.25 13.625 33.167969 13.277344 33.074219 12.929688 C 32.980469 12.582031 32.878906 12.242188 32.761719 11.902344 C 32.648438 11.5625 32.519531 11.226562 32.382812 10.894531 C 32.246094 10.5625 32.097656 10.234375 31.9375 9.914062 C 31.78125 9.589844 31.609375 9.273438 31.429688 8.964844 C 31.253906 8.652344 31.0625 8.347656 30.863281 8.050781 C 30.664062 7.75 30.453125 7.460938 30.234375 7.175781 C 30.019531 6.890625 29.789062 6.613281 29.554688 6.34375 C 29.316406 6.074219 29.070312 5.8125 28.816406 5.558594 C 28.5625 5.304688 28.300781 5.058594 28.03125 4.824219 C 27.761719 4.585938 27.484375 4.359375 27.199219 4.140625 C 26.914062 3.921875 26.625 3.710938 26.324219 3.511719 C 26.027344 3.3125 25.722656 3.125 25.410156 2.945312 C 25.101562 2.765625 24.785156 2.597656 24.460938 2.4375 C 24.140625 2.277344 23.8125 2.128906 23.480469 1.992188 C 23.148438 1.855469 22.816406 1.730469 22.476562 1.613281 C 22.136719 1.5 21.792969 1.394531 21.445312 1.300781 C 21.097656 1.207031 20.75 1.128906 20.398438 1.058594 C 20.042969 0.988281 19.691406 0.929688 19.335938 0.882812 C 18.980469 0.835938 18.621094 0.800781 18.265625 0.777344 C 17.90625 0.753906 17.546875 0.742188 17.1875 0.742188 C 16.828125 0.742188 16.46875 0.753906 16.113281 0.777344 C 15.753906 0.800781 15.398438 0.835938 15.042969 0.882812 C 14.683594 0.929688 14.332031 0.988281 13.980469 1.058594 C 13.628906 1.128906 13.277344 1.207031 12.929688 1.300781 C 12.585938 1.394531 12.242188 1.5 11.902344 1.613281 C 11.5625 1.730469 11.226562 1.855469 10.894531 1.992188 C 10.5625 2.128906 10.234375 2.277344 9.914062 2.4375 C 9.59375 2.597656 9.277344 2.765625 8.964844 2.945312 C 8.652344 3.125 8.347656 3.3125 8.050781 3.511719 C 7.753906 3.710938 7.460938 3.921875 7.175781 4.140625 C 6.890625 4.359375 6.613281 4.585938 6.34375 4.824219 C 6.074219 5.058594 5.8125 5.304688 5.558594 5.558594 C 5.304688 5.8125 5.058594 6.074219 4.824219 6.34375 C 4.585938 6.613281 4.359375 6.890625 4.140625 7.175781 C 3.921875 7.460938 3.710938 7.75 3.511719 8.050781 C 3.3125 8.347656 3.125 8.652344 2.945312 8.964844 C 2.765625 9.273438 2.597656 9.589844 2.4375 9.914062 C 2.277344 10.234375 2.128906 10.5625 1.992188 10.894531 C 1.855469 11.226562 1.730469 11.5625 1.613281 11.902344 C 1.5 12.242188 1.394531 12.582031 1.300781 12.929688 C 1.207031 13.277344 1.128906 13.625 1.058594 13.980469 C 0.988281 14.332031 0.929688 14.683594 0.882812 15.039062 C 0.835938 15.394531 0.800781 15.753906 0.777344 16.113281 C 0.753906 16.46875 0.742188 16.828125 0.742188 17.1875 C 0.742188 17.546875 0.753906 17.90625 0.777344 18.261719 C 0.800781 18.621094 0.835938 18.976562 0.882812 19.335938 C 0.929688 19.691406 0.988281 20.042969 1.058594 20.394531 C 1.125 20.746094 1.207031 21.097656 1.300781 21.445312 C 1.394531 21.789062 1.496094 22.132812 1.613281 22.472656 C 1.730469 22.8125 1.855469 23.148438 1.992188 23.480469 C 2.128906 23.8125 2.277344 24.140625 2.4375 24.460938 C 2.59375 24.785156 2.765625 25.101562 2.945312 25.410156 C 3.125 25.722656 3.3125 26.027344 3.511719 26.324219 C 3.710938 26.625 3.921875 26.914062 4.140625 27.199219 C 4.355469 27.484375 4.585938 27.761719 4.820312 28.03125 C 5.058594 28.300781 5.304688 28.5625 5.558594 28.816406 C 5.8125 29.070312 6.074219 29.316406 6.34375 29.554688 C 6.613281 29.789062 6.890625 30.015625 7.175781 30.234375 C 7.460938 30.453125 7.75 30.664062 8.050781 30.863281 C 8.347656 31.0625 8.652344 31.25 8.964844 31.429688 L 17.1875 17.1875 Z M 33.636719 17.1875 " fill-opacity="1" fill-rule="nonzero"/><path fill="#2ebcfa" d="M 3.933594 24.078125 C 4.105469 24.726562 4.320312 25.363281 4.574219 25.988281 C 4.824219 26.613281 5.117188 27.21875 5.441406 27.808594 C 5.769531 28.398438 6.132812 28.964844 6.527344 29.507812 C 6.925781 30.054688 7.355469 30.570312 7.816406 31.0625 C 8.277344 31.554688 8.765625 32.015625 9.28125 32.449219 C 9.800781 32.878906 10.339844 33.277344 10.90625 33.640625 C 11.472656 34.007812 12.058594 34.335938 12.664062 34.628906 C 13.273438 34.921875 13.894531 35.175781 14.53125 35.394531 C 15.171875 35.609375 15.820312 35.785156 16.480469 35.921875 C 17.136719 36.058594 17.804688 36.15625 18.476562 36.210938 C 19.148438 36.265625 19.820312 36.28125 20.492188 36.253906 C 21.164062 36.226562 21.832031 36.15625 22.5 36.046875 C 23.164062 35.9375 23.820312 35.785156 24.464844 35.597656 C 25.109375 35.40625 25.742188 35.175781 26.359375 34.910156 C 26.980469 34.640625 27.578125 34.335938 28.160156 33.996094 C 28.738281 33.652344 29.296875 33.277344 29.832031 32.867188 C 30.367188 32.457031 30.875 32.015625 31.351562 31.542969 C 31.832031 31.070312 32.28125 30.570312 32.703125 30.042969 C 33.121094 29.515625 33.503906 28.964844 33.855469 28.390625 C 34.207031 27.816406 34.523438 27.21875 34.800781 26.605469 C 35.078125 25.992188 35.316406 25.363281 35.519531 24.722656 C 35.71875 24.078125 35.878906 23.425781 36 22.761719 C 36.121094 22.101562 36.199219 21.433594 36.238281 20.761719 C 36.277344 20.085938 36.273438 19.414062 36.230469 18.742188 C 36.1875 18.070312 36.101562 17.402344 35.976562 16.742188 C 35.851562 16.082031 35.683594 15.429688 35.476562 14.789062 C 35.273438 14.148438 35.027344 13.519531 34.742188 12.910156 C 34.460938 12.296875 34.140625 11.707031 33.785156 11.132812 C 33.429688 10.5625 33.039062 10.015625 32.617188 9.488281 C 32.195312 8.964844 31.742188 8.46875 31.257812 8 C 30.773438 7.53125 30.261719 7.09375 29.722656 6.6875 C 29.1875 6.285156 28.625 5.914062 28.042969 5.574219 L 19.820312 19.820312 Z M 3.933594 24.078125 " fill-opacity="1" fill-rule="nonzero"/><path fill="#5217a1" d="M 17.1875 33.632812 C 26.269531 33.632812 33.632812 26.269531 33.632812 17.1875 C 33.632812 13.316406 32.296875 9.757812 30.058594 6.945312 C 28.605469 5.785156 27 4.898438 25.242188 4.285156 C 23.488281 3.671875 21.679688 3.367188 19.820312 3.371094 C 10.734375 3.371094 3.371094 10.734375 3.371094 19.820312 C 3.371094 23.6875 4.707031 27.25 6.945312 30.058594 C 8.402344 31.21875 10.007812 32.105469 11.761719 32.71875 C 13.519531 33.332031 15.328125 33.636719 17.1875 33.632812 Z M 17.1875 33.632812 " fill-opacity="1" fill-rule="nonzero"/><path fill="#ffffff" d="M 5.714844 5.40625 C 6.191406 4.9375 6.699219 4.503906 7.230469 4.097656 C 7.398438 4.136719 7.558594 4.214844 7.703125 4.332031 L 19.671875 13.910156 C 21.019531 14.988281 21.113281 17.015625 19.890625 18.234375 C 18.671875 19.453125 16.644531 19.359375 15.566406 18.015625 L 5.976562 6.054688 C 5.824219 5.863281 5.734375 5.648438 5.714844 5.40625 Z M 5.714844 5.40625 " fill-opacity="1" fill-rule="nonzero"/></svg>