<svg xmlns="http://www.w3.org/2000/svg" xmlns:xlink="http://www.w3.org/1999/xlink" width="50" zoomAndPan="magnify" viewBox="0 0 37.5 37.499999" height="50" preserveAspectRatio="xMidYMid meet" version="1.0"><defs><clipPath id="4689676f01"><path d="M 0 0 L 37.007812 0 L 37.007812 37.007812 L 0 37.007812 Z M 0 0 " clip-rule="nonzero"/></clipPath><clipPath id="3745f0f286"><path d="M 6 0.925781 L 28 0.925781 L 28 23 L 6 23 Z M 6 0.925781 " clip-rule="nonzero"/></clipPath><clipPath id="27825a2d26"><path d="M 9 14 L 31 14 L 31 36.453125 L 9 36.453125 Z M 9 14 " clip-rule="nonzero"/></clipPath></defs><g clip-path="url(#4689676f01)"><path fill="#ffffff" d="M 0 0 L 37.007812 0 L 37.007812 37.007812 L 0 37.007812 Z M 0 0 " fill-opacity="1" fill-rule="nonzero"/><path fill="#ffffff" d="M 0 0 L 37.007812 0 L 37.007812 37.007812 L 0 37.007812 Z M 0 0 " fill-opacity="1" fill-rule="nonzero"/></g><g clip-path="url(#3745f0f286)"><path fill="#7e84ff" d="M 22.816406 21.207031 L 27.839844 1.792969 C 28.015625 1.136719 27.339844 0.660156 26.804688 1.089844 L 6.796875 17.257812 C 6.351562 17.617188 6.539062 18.15625 7.101562 18.304688 L 21.066406 22.183594 C 21.835938 22.386719 22.617188 21.949219 22.816406 21.207031 Z M 22.816406 21.207031 " fill-opacity="1" fill-rule="nonzero"/></g><g clip-path="url(#27825a2d26)"><path fill="#2ebcfa" d="M 14.191406 15.796875 L 9.167969 35.214844 C 8.992188 35.871094 9.667969 36.347656 10.203125 35.914062 L 30.210938 19.746094 C 30.652344 19.386719 30.46875 18.851562 29.90625 18.699219 L 15.941406 14.824219 C 15.171875 14.621094 14.390625 15.054688 14.191406 15.796875 Z M 14.191406 15.796875 " fill-opacity="1" fill-rule="nonzero"/></g><path fill="#5217a1" d="M 23.894531 17.03125 L 22.816406 21.207031 C 22.617188 21.949219 21.835938 22.386719 21.066406 22.179688 L 13.113281 19.972656 L 14.191406 15.796875 C 14.390625 15.054688 15.175781 14.621094 15.941406 14.824219 Z M 23.894531 17.03125 " fill-opacity="1" fill-rule="nonzero"/></svg>