<svg xmlns="http://www.w3.org/2000/svg" xmlns:xlink="http://www.w3.org/1999/xlink" width="50" zoomAndPan="magnify" viewBox="0 0 37.5 37.499999" height="50" preserveAspectRatio="xMidYMid meet" version="1.0"><path fill="#5217a1" d="M 9.621094 5.921875 C 9.621094 5.527344 9.695312 5.152344 9.847656 4.789062 C 9.996094 4.425781 10.210938 4.105469 10.488281 3.828125 C 10.765625 3.550781 11.085938 3.335938 11.449219 3.1875 C 11.8125 3.035156 12.191406 2.960938 12.582031 2.960938 L 24.425781 2.960938 C 24.816406 2.960938 25.195312 3.035156 25.558594 3.1875 C 25.921875 3.335938 26.238281 3.550781 26.519531 3.828125 C 26.796875 4.105469 27.007812 4.425781 27.160156 4.789062 C 27.308594 5.152344 27.386719 5.527344 27.386719 5.921875 L 27.386719 31.085938 C 27.386719 31.476562 27.308594 31.855469 27.160156 32.21875 C 27.007812 32.582031 26.796875 32.902344 26.519531 33.179688 C 26.238281 33.457031 25.921875 33.671875 25.558594 33.820312 C 25.195312 33.972656 24.816406 34.046875 24.425781 34.046875 L 12.582031 34.046875 C 12.191406 34.046875 11.8125 33.972656 11.449219 33.820312 C 11.085938 33.671875 10.765625 33.457031 10.488281 33.179688 C 10.210938 32.902344 9.996094 32.582031 9.847656 32.21875 C 9.695312 31.855469 9.621094 31.476562 9.621094 31.085938 Z M 9.621094 5.921875 " fill-opacity="1" fill-rule="nonzero"/><path fill="#6d60ac" d="M 27.386719 14.0625 L 27.386719 27.386719 C 26.949219 27.386719 26.515625 27.34375 26.085938 27.257812 C 25.65625 27.171875 25.238281 27.046875 24.835938 26.878906 C 24.433594 26.710938 24.046875 26.503906 23.683594 26.261719 C 23.320312 26.019531 22.984375 25.742188 22.675781 25.433594 C 22.367188 25.125 22.089844 24.789062 21.847656 24.425781 C 21.601562 24.0625 21.398438 23.675781 21.230469 23.273438 C 21.0625 22.867188 20.9375 22.453125 20.851562 22.023438 C 20.765625 21.59375 20.722656 21.160156 20.722656 20.722656 C 20.722656 20.285156 20.765625 19.851562 20.851562 19.425781 C 20.9375 18.996094 21.0625 18.578125 21.230469 18.175781 C 21.398438 17.769531 21.601562 17.386719 21.847656 17.023438 C 22.089844 16.660156 22.367188 16.324219 22.675781 16.011719 C 22.984375 15.703125 23.320312 15.429688 23.683594 15.183594 C 24.046875 14.941406 24.433594 14.738281 24.835938 14.570312 C 25.238281 14.402344 25.65625 14.277344 26.085938 14.191406 C 26.515625 14.105469 26.949219 14.0625 27.386719 14.0625 Z M 27.386719 14.0625 " fill-opacity="1" fill-rule="nonzero"/><path fill="#2d6388" d="M 9.621094 22.945312 L 9.621094 9.621094 C 10.058594 9.621094 10.492188 9.664062 10.921875 9.75 C 11.351562 9.835938 11.765625 9.960938 12.171875 10.128906 C 12.574219 10.296875 12.957031 10.5 13.324219 10.746094 C 13.6875 10.988281 14.023438 11.261719 14.332031 11.574219 C 14.640625 11.882812 14.917969 12.21875 15.160156 12.582031 C 15.402344 12.945312 15.609375 13.328125 15.777344 13.734375 C 15.941406 14.136719 16.070312 14.554688 16.15625 14.984375 C 16.238281 15.414062 16.28125 15.84375 16.28125 16.28125 C 16.28125 16.71875 16.238281 17.152344 16.15625 17.582031 C 16.070312 18.011719 15.941406 18.429688 15.777344 18.832031 C 15.609375 19.234375 15.402344 19.621094 15.160156 19.984375 C 14.917969 20.347656 14.640625 20.683594 14.332031 20.992188 C 14.023438 21.300781 13.6875 21.578125 13.324219 21.820312 C 12.957031 22.066406 12.574219 22.269531 12.171875 22.4375 C 11.765625 22.605469 11.351562 22.730469 10.921875 22.816406 C 10.492188 22.902344 10.058594 22.945312 9.621094 22.945312 Z M 9.621094 22.945312 " fill-opacity="1" fill-rule="nonzero"/><path fill="#2ebcfa" d="M 9.621094 9.621094 L 2.960938 9.621094 L 2.960938 16.28125 C 2.960938 16.71875 3.003906 17.152344 3.089844 17.582031 C 3.175781 18.011719 3.300781 18.429688 3.46875 18.832031 C 3.636719 19.234375 3.839844 19.621094 4.082031 19.984375 C 4.324219 20.347656 4.601562 20.683594 4.910156 20.992188 C 5.222656 21.300781 5.558594 21.578125 5.921875 21.820312 C 6.285156 22.066406 6.667969 22.269531 7.074219 22.4375 C 7.476562 22.605469 7.894531 22.730469 8.320312 22.816406 C 8.75 22.902344 9.183594 22.945312 9.621094 22.945312 Z M 9.621094 9.621094 " fill-opacity="1" fill-rule="nonzero"/><path fill="#7e84ff" d="M 27.386719 27.386719 L 34.046875 27.386719 L 34.046875 20.722656 C 34.046875 20.285156 34.003906 19.851562 33.917969 19.425781 C 33.832031 18.996094 33.707031 18.578125 33.539062 18.175781 C 33.371094 17.769531 33.167969 17.386719 32.921875 17.023438 C 32.679688 16.660156 32.40625 16.324219 32.09375 16.011719 C 31.785156 15.703125 31.449219 15.429688 31.085938 15.183594 C 30.722656 14.941406 30.339844 14.738281 29.933594 14.570312 C 29.53125 14.402344 29.113281 14.277344 28.683594 14.191406 C 28.253906 14.105469 27.820312 14.0625 27.386719 14.0625 Z M 27.386719 27.386719 " fill-opacity="1" fill-rule="nonzero"/></svg>