<svg xmlns="http://www.w3.org/2000/svg" xmlns:xlink="http://www.w3.org/1999/xlink" width="50" zoomAndPan="magnify" viewBox="0 0 37.5 37.499999" height="50" preserveAspectRatio="xMidYMid meet" version="1.0"><path fill="#2ebcfa" d="M 4.203125 26.675781 C 4.203125 25.167969 5.402344 23.949219 6.882812 23.949219 L 32.320312 23.949219 C 32.320312 25.457031 31.121094 26.675781 29.640625 26.675781 Z M 4.203125 26.675781 " fill-opacity="1" fill-rule="nonzero"/><path fill="#5217a1" d="M 9.820312 9.570312 C 8.554688 11.421875 7.425781 13.75 6.777344 15.324219 L 4.304688 14.277344 C 5 12.589844 6.210938 10.074219 7.625 8.015625 C 8.324219 6.992188 9.121094 6.011719 9.972656 5.3125 C 10.792969 4.636719 11.898438 4.03125 13.136719 4.25 C 15.589844 4.683594 16.742188 6.851562 17.285156 8.691406 C 17.84375 10.59375 17.925781 12.683594 17.925781 13.910156 L 17.925781 13.921875 C 17.925781 14.59375 17.925781 15.566406 17.878906 16.703125 C 18.722656 16.65625 19.449219 16.761719 20.082031 16.980469 C 20.214844 16.707031 20.371094 16.453125 20.558594 16.21875 C 21.25 15.359375 22.273438 14.839844 23.589844 14.816406 C 24.765625 14.792969 25.558594 15.496094 26.074219 15.957031 C 26.117188 15.996094 26.164062 16.035156 26.203125 16.070312 C 26.761719 16.558594 27.441406 17.132812 28.671875 17.648438 C 28.707031 17.644531 28.761719 17.636719 28.835938 17.621094 C 29.074219 17.574219 29.390625 17.476562 29.757812 17.34375 C 30.25 17.164062 30.699219 16.976562 31.117188 16.800781 C 31.367188 16.695312 31.605469 16.59375 31.832031 16.503906 L 32.800781 19.042969 C 32.679688 19.09375 32.496094 19.167969 32.28125 19.257812 C 31.746094 19.488281 31.203125 19.707031 30.65625 19.910156 C 30.238281 20.0625 29.78125 20.207031 29.355469 20.292969 C 29.003906 20.363281 28.382812 20.460938 27.808594 20.226562 C 26.105469 19.542969 25.136719 18.730469 24.460938 18.136719 C 23.761719 17.53125 23.707031 17.535156 23.652344 17.539062 L 23.640625 17.539062 C 23.050781 17.550781 22.789062 17.75 22.636719 17.941406 C 22.507812 18.101562 22.398438 18.335938 22.332031 18.621094 C 22.480469 18.8125 22.613281 19.011719 22.726562 19.214844 C 22.929688 19.574219 23.125 20.039062 23.15625 20.550781 C 23.195312 21.101562 23.042969 21.761719 22.488281 22.253906 C 22.128906 22.578125 21.714844 22.695312 21.238281 22.609375 C 20.894531 22.542969 20.601562 22.375 20.367188 22.113281 C 20.078125 21.800781 19.921875 21.40625 19.832031 21.121094 C 19.691406 20.664062 19.609375 20.199219 19.585938 19.722656 C 19.269531 19.539062 18.691406 19.328125 17.679688 19.453125 L 17.667969 19.5625 C 17.410156 21.847656 16.882812 24.445312 15.742188 26.472656 C 14.703125 28.316406 13.636719 29.828125 12.613281 30.902344 C 12.101562 31.441406 11.570312 31.898438 11.035156 32.226562 C 10.507812 32.550781 9.890625 32.804688 9.222656 32.804688 C 8.296875 32.804688 7.074219 32.488281 6.363281 31.292969 C 5.691406 30.160156 5.730469 28.644531 6.273438 26.875 C 7.359375 23.339844 9.917969 19.492188 14.058594 17.707031 C 14.421875 17.550781 14.792969 17.40625 15.171875 17.277344 C 15.246094 15.917969 15.246094 14.722656 15.246094 13.910156 C 15.246094 12.757812 15.164062 10.988281 14.71875 9.472656 C 14.253906 7.898438 13.566406 7.089844 12.675781 6.933594 C 12.574219 6.914062 12.257812 6.933594 11.65625 7.429688 C 11.082031 7.898438 10.457031 8.640625 9.820312 9.570312 Z M 14.867188 20.320312 C 11.773438 21.753906 9.726562 24.761719 8.828125 27.6875 C 8.367188 29.1875 8.574219 29.75 8.652344 29.878906 C 8.695312 29.949219 8.8125 30.078125 9.222656 30.078125 C 9.222656 30.078125 9.257812 30.078125 9.328125 30.054688 C 9.40625 30.027344 9.511719 29.980469 9.652344 29.894531 C 9.929688 29.722656 10.28125 29.4375 10.6875 29.007812 C 11.507812 28.148438 12.445312 26.84375 13.417969 25.117188 C 14.140625 23.832031 14.59375 22.117188 14.867188 20.320312 Z M 14.867188 20.320312 " fill-opacity="1" fill-rule="evenodd"/></svg>