<svg xmlns="http://www.w3.org/2000/svg" xmlns:xlink="http://www.w3.org/1999/xlink" width="50" zoomAndPan="magnify" viewBox="0 0 37.5 37.499999" height="50" preserveAspectRatio="xMidYMid meet" version="1.0"><path fill="#2ebcfa" d="M 32.953125 4.070312 C 33.261719 4.382812 33.5 4.738281 33.667969 5.144531 C 33.839844 5.550781 33.921875 5.972656 33.921875 6.414062 C 33.921875 6.851562 33.839844 7.277344 33.667969 7.683594 C 33.5 8.089844 33.261719 8.445312 32.953125 8.757812 L 7.644531 34.0625 L 2.960938 34.0625 L 2.960938 29.375 L 28.265625 4.070312 C 28.578125 3.761719 28.933594 3.519531 29.339844 3.351562 C 29.746094 3.183594 30.167969 3.101562 30.609375 3.101562 C 31.046875 3.101562 31.46875 3.183594 31.875 3.351562 C 32.28125 3.519531 32.640625 3.761719 32.953125 4.070312 Z M 32.953125 4.070312 " fill-opacity="1" fill-rule="nonzero"/><path fill="#7e84ff" d="M 8.066406 11.191406 L 3.625 6.75 C 3.351562 7.324219 3.164062 7.929688 3.0625 8.558594 C 2.960938 9.1875 2.949219 9.816406 3.027344 10.449219 C 3.105469 11.082031 3.273438 11.691406 3.527344 12.277344 C 3.78125 12.859375 4.113281 13.398438 4.523438 13.886719 C 4.929688 14.378906 5.398438 14.800781 5.929688 15.15625 C 6.457031 15.507812 7.027344 15.78125 7.632812 15.976562 C 8.242188 16.167969 8.863281 16.269531 9.503906 16.28125 C 10.140625 16.296875 10.765625 16.21875 11.382812 16.050781 L 28.40625 33.074219 C 28.71875 33.375 29.074219 33.609375 29.480469 33.769531 C 29.882812 33.929688 30.300781 34.007812 30.738281 34.003906 C 31.171875 34.003906 31.589844 33.917969 31.988281 33.75 C 32.390625 33.582031 32.742188 33.34375 33.050781 33.035156 C 33.359375 32.726562 33.597656 32.375 33.765625 31.972656 C 33.933594 31.574219 34.019531 31.15625 34.023438 30.722656 C 34.023438 30.285156 33.945312 29.867188 33.785156 29.464844 C 33.625 29.058594 33.394531 28.703125 33.089844 28.390625 L 16.066406 11.367188 C 16.234375 10.75 16.3125 10.125 16.296875 9.488281 C 16.285156 8.847656 16.183594 8.226562 15.992188 7.617188 C 15.800781 7.011719 15.527344 6.441406 15.171875 5.914062 C 14.816406 5.382812 14.394531 4.914062 13.902344 4.503906 C 13.414062 4.097656 12.875 3.765625 12.292969 3.511719 C 11.707031 3.257812 11.097656 3.089844 10.464844 3.011719 C 9.832031 2.933594 9.203125 2.945312 8.574219 3.046875 C 7.945312 3.148438 7.339844 3.335938 6.765625 3.609375 L 11.207031 8.050781 Z M 8.066406 11.191406 " fill-opacity="1" fill-rule="nonzero"/><path fill="#144496" d="M 18.519531 13.816406 L 13.832031 18.503906 L 18.519531 23.1875 L 23.203125 18.503906 Z M 18.519531 13.816406 " fill-opacity="1" fill-rule="nonzero"/></svg>