<svg xmlns="http://www.w3.org/2000/svg" xmlns:xlink="http://www.w3.org/1999/xlink" width="50" zoomAndPan="magnify" viewBox="0 0 37.5 37.499999" height="50" preserveAspectRatio="xMidYMid meet" version="1.0"><path fill="#144496" d="M 12.453125 12.3125 C 12.828125 11.9375 13.125 11.511719 13.34375 11.03125 C 13.566406 10.550781 13.695312 10.046875 13.730469 9.515625 C 13.769531 8.988281 13.714844 8.472656 13.566406 7.964844 C 13.417969 7.457031 13.183594 6.992188 12.867188 6.566406 C 12.550781 6.144531 12.171875 5.789062 11.726562 5.5 C 11.285156 5.214844 10.804688 5.015625 10.285156 4.902344 C 9.769531 4.789062 9.25 4.769531 8.726562 4.84375 C 8.203125 4.917969 7.707031 5.078125 7.242188 5.332031 C 6.777344 5.582031 6.371094 5.910156 6.023438 6.308594 C 5.675781 6.707031 5.410156 7.152344 5.222656 7.648438 C 5.035156 8.144531 4.941406 8.65625 4.941406 9.183594 C 4.9375 9.710938 5.027344 10.226562 5.210938 10.722656 C 1.765625 16.660156 2.585938 24.394531 7.671875 29.476562 L 7.703125 29.507812 L 10.613281 26.597656 L 10.582031 26.566406 C 7.046875 23.03125 6.320312 17.753906 8.394531 13.5 C 9.128906 13.660156 9.855469 13.636719 10.578125 13.425781 C 11.296875 13.214844 11.921875 12.84375 12.453125 12.3125 Z M 12.453125 12.3125 " fill-opacity="1" fill-rule="nonzero"/><path fill="#2ebcfa" d="M 7.703125 29.507812 C 12.023438 33.804688 18.242188 35.035156 23.648438 33.199219 L 20.242188 29.792969 C 19.371094 29.917969 18.496094 29.941406 17.621094 29.859375 C 16.742188 29.78125 15.886719 29.605469 15.050781 29.328125 C 14.214844 29.050781 13.425781 28.679688 12.675781 28.21875 C 11.925781 27.757812 11.238281 27.21875 10.613281 26.597656 L 7.703125 29.511719 Z M 7.703125 29.507812 " fill-opacity="1" fill-rule="nonzero"/><path fill="#5217a1" d="M 28.9375 23.410156 C 28.625 23.328125 28.308594 23.277344 27.984375 23.265625 C 27.664062 23.253906 27.34375 23.273438 27.023438 23.332031 C 26.707031 23.390625 26.398438 23.480469 26.101562 23.605469 C 25.800781 23.730469 25.519531 23.886719 25.257812 24.074219 C 24.992188 24.261719 24.753906 24.476562 24.535156 24.714844 C 24.320312 24.953125 24.132812 25.214844 23.972656 25.496094 C 23.8125 25.777344 23.6875 26.074219 23.59375 26.382812 C 23.5 26.691406 23.441406 27.007812 23.417969 27.332031 C 23.390625 27.652344 23.402344 27.972656 23.449219 28.292969 C 23.496094 28.613281 23.574219 28.925781 23.691406 29.226562 C 23.804688 29.53125 23.953125 29.816406 24.128906 30.085938 C 24.308594 30.355469 24.511719 30.601562 24.746094 30.828125 C 24.976562 31.050781 25.230469 31.25 25.507812 31.417969 C 25.785156 31.585938 26.074219 31.722656 26.378906 31.828125 C 26.6875 31.933594 27 32.003906 27.320312 32.039062 C 27.644531 32.074219 27.964844 32.074219 28.285156 32.039062 C 28.605469 32.003906 28.921875 31.933594 29.226562 31.828125 C 29.53125 31.726562 29.824219 31.589844 30.097656 31.417969 C 30.375 31.25 30.628906 31.054688 30.863281 30.828125 C 31.09375 30.605469 31.300781 30.359375 31.476562 30.089844 C 31.65625 29.820312 31.804688 29.53125 31.917969 29.230469 C 32.035156 28.929688 32.113281 28.617188 32.160156 28.296875 C 32.207031 27.976562 32.21875 27.65625 32.195312 27.335938 C 32.171875 27.011719 32.109375 26.695312 32.015625 26.386719 C 35.523438 20.449219 34.734375 12.675781 29.652344 7.558594 L 26.738281 10.472656 C 30.21875 13.980469 30.953125 19.1875 28.941406 23.410156 Z M 28.9375 23.410156 " fill-opacity="1" fill-rule="nonzero"/><path fill="#7e84ff" d="M 13.523438 3.847656 L 16.90625 7.234375 C 17.796875 7.09375 18.6875 7.0625 19.585938 7.136719 C 20.480469 7.210938 21.359375 7.390625 22.210938 7.671875 C 23.066406 7.953125 23.875 8.328125 24.640625 8.804688 C 25.40625 9.277344 26.105469 9.832031 26.738281 10.472656 L 29.652344 7.558594 L 29.621094 7.527344 C 25.265625 3.175781 18.96875 1.949219 13.523438 3.847656 Z M 13.523438 3.847656 " fill-opacity="1" fill-rule="nonzero"/></svg>