<svg xmlns="http://www.w3.org/2000/svg" xmlns:xlink="http://www.w3.org/1999/xlink" width="50" zoomAndPan="magnify" viewBox="0 0 37.5 37.499999" height="50" preserveAspectRatio="xMidYMid meet" version="1.0"><path fill="#ffffff" d="M 21.464844 15.542969 L 21.464844 8.882812 L 15.542969 8.882812 L 15.542969 15.542969 L 8.882812 15.542969 L 8.882812 21.464844 L 15.542969 21.464844 L 15.542969 28.125 L 21.464844 28.125 L 21.464844 21.464844 L 28.125 21.464844 L 28.125 15.542969 Z M 21.464844 15.542969 " fill-opacity="1" fill-rule="nonzero"/><path fill="#7e84ff" d="M 8.882812 21.464844 L 2.960938 21.464844 L 2.960938 11.84375 C 2.960938 11.449219 3.035156 11.070312 3.1875 10.710938 C 3.335938 10.347656 3.550781 10.027344 3.828125 9.75 C 4.105469 9.472656 4.425781 9.257812 4.789062 9.105469 C 5.152344 8.957031 5.527344 8.882812 5.921875 8.882812 L 15.542969 8.882812 L 15.542969 21.464844 Z M 8.882812 21.464844 L 8.882812 18.503906 C 8.882812 17.023438 10.363281 15.542969 11.84375 15.542969 L 15.542969 15.542969 L 15.542969 21.464844 Z M 28.125 15.542969 L 34.046875 15.542969 L 34.046875 25.164062 C 34.046875 25.558594 33.972656 25.933594 33.820312 26.296875 C 33.671875 26.660156 33.457031 26.980469 33.179688 27.257812 C 32.902344 27.535156 32.582031 27.75 32.21875 27.898438 C 31.855469 28.050781 31.476562 28.125 31.085938 28.125 L 21.464844 28.125 L 21.464844 15.542969 Z M 28.125 15.542969 L 28.125 18.503906 C 28.125 19.984375 26.644531 21.464844 25.164062 21.464844 L 21.464844 21.464844 L 21.464844 15.542969 Z M 28.125 15.542969 " fill-opacity="1" fill-rule="evenodd"/><path fill="#088bf5" d="M 15.542969 8.882812 L 15.542969 2.960938 L 25.164062 2.960938 C 25.558594 2.960938 25.933594 3.035156 26.296875 3.1875 C 26.660156 3.335938 26.980469 3.550781 27.257812 3.828125 C 27.535156 4.105469 27.75 4.425781 27.898438 4.789062 C 28.050781 5.152344 28.125 5.527344 28.125 5.921875 L 28.125 15.542969 L 15.542969 15.542969 Z M 15.542969 8.882812 L 18.503906 8.882812 C 19.984375 8.882812 21.464844 10.363281 21.464844 11.84375 L 21.464844 15.542969 L 15.542969 15.542969 Z M 21.464844 28.125 L 21.464844 34.046875 L 11.84375 34.046875 C 11.449219 34.046875 11.070312 33.972656 10.710938 33.820312 C 10.347656 33.671875 10.027344 33.457031 9.75 33.179688 C 9.472656 32.902344 9.257812 32.582031 9.105469 32.21875 C 8.957031 31.855469 8.882812 31.476562 8.882812 31.085938 L 8.882812 21.464844 L 21.464844 21.464844 Z M 21.464844 28.125 L 18.503906 28.125 C 17.023438 28.125 15.542969 26.644531 15.542969 25.164062 L 15.542969 21.464844 L 21.464844 21.464844 Z M 21.464844 28.125 " fill-opacity="1" fill-rule="evenodd"/></svg>