<svg xmlns="http://www.w3.org/2000/svg" xmlns:xlink="http://www.w3.org/1999/xlink" width="50" zoomAndPan="magnify" viewBox="0 0 37.5 37.499999" height="50" preserveAspectRatio="xMidYMid meet" version="1.0"><defs><clipPath id="b7ac5118fb"><path d="M 6 1.339844 L 23 1.339844 L 23 13 L 6 13 Z M 6 1.339844 " clip-rule="nonzero"/></clipPath><clipPath id="933852dd5c"><path d="M 11 1.339844 L 31 1.339844 L 31 19 L 11 19 Z M 11 1.339844 " clip-rule="nonzero"/></clipPath><clipPath id="51059edd76"><path d="M 23 13 L 35.777344 13 L 35.777344 31 L 23 31 Z M 23 13 " clip-rule="nonzero"/></clipPath></defs><path fill="#5217a1" d="M 7.238281 31.484375 C 6.863281 31.164062 6.503906 30.824219 6.15625 30.46875 C 5.65625 29.960938 5.695312 29.148438 6.199219 28.644531 L 23.996094 10.847656 L 24.964844 11.820312 C 25.09375 11.949219 25.195312 12.097656 25.261719 12.265625 C 25.332031 12.433594 25.367188 12.605469 25.367188 12.789062 C 25.367188 12.96875 25.332031 13.144531 25.261719 13.3125 C 25.195312 13.480469 25.09375 13.628906 24.964844 13.757812 Z M 7.238281 31.484375 " fill-opacity="1" fill-rule="nonzero"/><g clip-path="url(#b7ac5118fb)"><path fill="#144496" d="M 11.871094 12.183594 L 6.050781 6.363281 C 7.089844 5.324219 8.246094 4.429688 9.515625 3.6875 C 10.785156 2.945312 12.128906 2.375 13.542969 1.976562 C 14.960938 1.582031 16.402344 1.371094 17.875 1.34375 C 19.34375 1.320312 20.796875 1.480469 22.226562 1.828125 Z M 11.871094 12.183594 " fill-opacity="1" fill-rule="nonzero"/></g><g clip-path="url(#933852dd5c)"><path fill="#7e84ff" d="M 11.871094 12.183594 L 22.226562 1.828125 C 25.339844 2.582031 28.03125 4.097656 30.296875 6.363281 L 18.171875 18.484375 Z M 11.871094 12.183594 " fill-opacity="1" fill-rule="nonzero"/></g><path fill="#088bf5" d="M 23.992188 24.304688 L 18.171875 18.484375 L 30.296875 6.363281 C 32.363281 8.429688 33.804688 10.863281 34.625 13.667969 Z M 23.992188 24.304688 " fill-opacity="1" fill-rule="nonzero"/><g clip-path="url(#51059edd76)"><path fill="#2ebcfa" d="M 23.992188 24.304688 L 34.628906 13.667969 C 35.027344 15.035156 35.253906 16.425781 35.304688 17.847656 C 35.359375 19.269531 35.234375 20.675781 34.9375 22.066406 C 34.640625 23.457031 34.179688 24.789062 33.550781 26.0625 C 32.921875 27.339844 32.148438 28.519531 31.226562 29.601562 C 30.734375 30.175781 29.863281 30.175781 29.324219 29.640625 Z M 23.992188 24.304688 " fill-opacity="1" fill-rule="nonzero"/></g></svg>