<svg xmlns="http://www.w3.org/2000/svg" xmlns:xlink="http://www.w3.org/1999/xlink" width="50" zoomAndPan="magnify" viewBox="0 0 37.5 37.499999" height="50" preserveAspectRatio="xMidYMid meet" version="1.0"><path fill="#7e84ff" d="M 2.960938 18.503906 C 2.960938 18.109375 3.035156 17.734375 3.1875 17.371094 C 3.335938 17.007812 3.550781 16.6875 3.828125 16.410156 C 4.105469 16.132812 4.425781 15.917969 4.789062 15.769531 C 5.152344 15.617188 5.527344 15.542969 5.921875 15.542969 L 11.101562 15.542969 L 11.101562 34.046875 L 2.960938 34.046875 Z M 2.960938 18.503906 " fill-opacity="1" fill-rule="nonzero"/><path fill="#2ebcfa" d="M 19.242188 5.921875 C 19.242188 4.285156 20.632812 2.960938 22.34375 2.960938 L 34.046875 2.960938 L 34.046875 31.085938 C 34.046875 32.722656 32.65625 34.046875 30.945312 34.046875 L 19.242188 34.046875 Z M 19.242188 5.921875 " fill-opacity="1" fill-rule="nonzero"/><path fill="#5cc0ff" d="M 11.101562 12.632812 C 11.101562 10.96875 12.492188 9.621094 14.203125 9.621094 L 25.90625 9.621094 L 25.90625 31.035156 C 25.90625 32.699219 24.515625 34.046875 22.804688 34.046875 L 11.101562 34.046875 Z M 11.101562 12.632812 " fill-opacity="1" fill-rule="nonzero"/><path fill="#144496" d="M 19.242188 34.046875 L 22.804688 34.046875 C 24.515625 34.046875 25.90625 32.699219 25.90625 31.035156 L 25.90625 9.621094 L 19.242188 9.621094 Z M 19.242188 34.046875 " fill-opacity="1" fill-rule="nonzero"/><path fill="#5217a1" d="M 11.101562 34.046875 L 14.800781 34.042969 C 15.191406 34.042969 15.570312 33.96875 15.933594 33.820312 C 16.296875 33.667969 16.617188 33.453125 16.894531 33.175781 C 17.171875 32.898438 17.386719 32.578125 17.535156 32.214844 C 17.6875 31.851562 17.761719 31.476562 17.761719 31.082031 L 17.761719 15.542969 L 11.101562 15.542969 Z M 11.101562 34.046875 " fill-opacity="1" fill-rule="nonzero"/></svg>