<svg xmlns="http://www.w3.org/2000/svg" xmlns:xlink="http://www.w3.org/1999/xlink" width="50" zoomAndPan="magnify" viewBox="0 0 37.5 37.499999" height="50" preserveAspectRatio="xMidYMid meet" version="1.0"><path fill="#2ebcfa" d="M 33.847656 15.886719 C 34.0625 15.519531 34.097656 15.097656 33.980469 14.722656 L 18.503906 19.148438 L 28.003906 33.777344 C 28.34375 33.535156 28.585938 33.148438 28.621094 32.6875 L 28.621094 32.683594 L 29.257812 23.757812 L 29.417969 23.484375 L 29.429688 23.464844 L 33.84375 15.886719 Z M 33.847656 15.886719 " fill-opacity="1" fill-rule="nonzero"/><path fill="#7e84ff" d="M 18.074219 31.582031 L 18.082031 31.578125 L 18.503906 31.449219 L 26.738281 33.984375 C 27.195312 34.121094 27.617188 34.054688 28.003906 33.777344 L 18.503906 19.148438 L 9.003906 33.777344 C 9.394531 34.054688 9.820312 34.125 10.28125 33.980469 L 18.070312 31.582031 Z M 18.074219 31.582031 " fill-opacity="1" fill-rule="nonzero"/><path fill="#5217a1" d="M 3.023438 14.722656 C 2.902344 15.125 2.945312 15.507812 3.152344 15.875 L 7.75 23.761719 L 7.773438 24.082031 L 7.773438 24.101562 L 8.386719 32.683594 C 8.417969 33.144531 8.660156 33.535156 9.003906 33.777344 L 18.503906 19.148438 Z M 3.023438 14.722656 " fill-opacity="1" fill-rule="nonzero"/><path fill="#2ebcfa" d="M 18.503906 2.960938 L 18.503906 19.148438 L 3.023438 14.722656 C 3.136719 14.351562 3.394531 14.023438 3.769531 13.835938 L 11.589844 9.921875 L 17.417969 3.441406 C 17.710938 3.121094 18.105469 2.960938 18.503906 2.960938 Z M 18.503906 2.960938 " fill-opacity="1" fill-rule="nonzero"/><path fill="#144496" d="M 18.503906 2.960938 L 18.503906 19.148438 L 33.980469 14.722656 C 33.859375 14.316406 33.613281 14.023438 33.234375 13.835938 L 25.664062 10.046875 L 25.652344 10.039062 L 25.417969 9.921875 L 25.238281 9.722656 L 25.230469 9.714844 L 19.59375 3.445312 C 19.300781 3.121094 18.9375 2.960938 18.503906 2.960938 Z M 18.503906 2.960938 " fill-opacity="1" fill-rule="nonzero"/></svg>