<svg xmlns="http://www.w3.org/2000/svg" xmlns:xlink="http://www.w3.org/1999/xlink" width="50" zoomAndPan="magnify" viewBox="0 0 37.5 37.499999" height="50" preserveAspectRatio="xMidYMid meet" version="1.0"><defs><clipPath id="f5ff303619"><path d="M 5 1.554688 L 19 1.554688 L 19 24 L 5 24 Z M 5 1.554688 " clip-rule="nonzero"/></clipPath><clipPath id="ed638c3483"><path d="M 9 23 L 32 23 L 32 35.601562 L 9 35.601562 Z M 9 23 " clip-rule="nonzero"/></clipPath><clipPath id="b888d4b223"><path d="M 5 1.554688 L 32 1.554688 L 32 35.601562 L 5 35.601562 Z M 5 1.554688 " clip-rule="nonzero"/></clipPath><clipPath id="41cba63758"><path d="M 9 24 L 32 24 L 32 35.601562 L 9 35.601562 Z M 9 24 " clip-rule="nonzero"/></clipPath><clipPath id="5e621b5a21"><path d="M 5 1.554688 L 15 1.554688 L 15 25 L 5 25 Z M 5 1.554688 " clip-rule="nonzero"/></clipPath><clipPath id="7b06223158"><path d="M 9 24 L 32 24 L 32 35.601562 L 9 35.601562 Z M 9 24 " clip-rule="nonzero"/></clipPath></defs><g clip-path="url(#f5ff303619)"><path fill="#2ebcfa" d="M 11.242188 1.804688 C 14.242188 1.097656 18.136719 1.976562 18.65625 4.980469 C 19.066406 7.367188 18.992188 9.945312 17.917969 11.308594 C 16.445312 13.171875 13.472656 11.457031 11.664062 12.171875 C 7.695312 13.730469 7.238281 19.046875 9.335938 23.71875 C 7.28125 19.933594 5.402344 15.476562 5.757812 9.945312 C 5.972656 6.570312 7.523438 2.683594 11.242188 1.804688 Z M 11.242188 1.804688 " fill-opacity="1" fill-rule="nonzero"/></g><g clip-path="url(#ed638c3483)"><path fill="#2ebcfa" d="M 29.660156 33.628906 C 31.90625 31.21875 32.535156 27.539062 30.644531 26.15625 C 28.75 24.773438 25.46875 23.144531 24.136719 24.433594 C 22.40625 26.109375 22.378906 26.910156 20.867188 28.128906 C 17.546875 30.804688 12.703125 28.566406 9.679688 24.433594 C 11.953125 28.09375 14.890625 31.929688 19.875 34.359375 C 22.914062 35.84375 27.058594 36.425781 29.660156 33.628906 Z M 29.660156 33.628906 " fill-opacity="1" fill-rule="nonzero"/></g><g clip-path="url(#b888d4b223)"><path fill="#2ebcfa" d="M 9.652344 2.453125 C 11.167969 1.574219 12.960938 1.363281 14.859375 1.71875 C 14.863281 1.722656 14.867188 1.726562 14.867188 1.730469 C 14.097656 1.574219 13.34375 1.660156 12.699219 2.03125 C 12.675781 2.046875 12.652344 2.0625 12.628906 2.078125 C 12.601562 2.089844 12.574219 2.105469 12.550781 2.117188 C 9.511719 3.875 10.953125 12.070312 15.777344 20.421875 C 20.601562 28.773438 26.976562 34.121094 30.015625 32.363281 C 30.042969 32.351562 30.066406 32.332031 30.089844 32.316406 C 30.113281 32.304688 30.140625 32.292969 30.164062 32.277344 C 30.65625 31.996094 31.03125 31.574219 31.296875 31.0625 C 30.492188 32.816406 29.648438 33.894531 28.269531 34.691406 C 23.0625 37.699219 14.675781 32.917969 9.535156 24.015625 C 4.394531 15.113281 4.445312 5.457031 9.652344 2.453125 Z M 9.652344 2.453125 " fill-opacity="1" fill-rule="nonzero"/></g><g clip-path="url(#41cba63758)"><path fill="#2d6388" d="M 9.578125 24.085938 C 12.15625 28.515625 16.984375 30.519531 20.378906 28.558594 C 20.652344 28.398438 20.917969 28.164062 21.175781 27.878906 C 24.636719 31.636719 28.035156 33.507812 30.015625 32.363281 C 30.042969 32.347656 30.066406 32.332031 30.089844 32.316406 C 30.117188 32.304688 30.140625 32.292969 30.164062 32.277344 C 30.652344 31.996094 31.027344 31.582031 31.289062 31.074219 C 30.707031 32.339844 30.105469 33.25 29.296875 33.960938 C 29.152344 34.085938 29.003906 34.203125 28.84375 34.316406 C 28.664062 34.449219 28.472656 34.574219 28.265625 34.691406 L 28.023438 34.828125 C 22.816406 37.539062 14.640625 32.804688 9.578125 24.085938 Z M 9.578125 24.085938 " fill-opacity="1" fill-rule="nonzero"/></g><g clip-path="url(#5e621b5a21)"><path fill="#2d6388" d="M 9.652344 2.453125 C 11.167969 1.574219 12.960938 1.363281 14.859375 1.71875 C 14.859375 1.722656 14.859375 1.726562 14.863281 1.726562 C 14.863281 1.726562 14.863281 1.726562 14.867188 1.726562 L 14.867188 1.730469 C 14.09375 1.574219 13.34375 1.660156 12.699219 2.03125 C 12.675781 2.046875 12.652344 2.0625 12.625 2.078125 C 12.601562 2.089844 12.574219 2.101562 12.550781 2.117188 C 10.5625 3.265625 10.492188 7.171875 12.03125 12.070312 C 11.664062 12.152344 11.328125 12.261719 11.058594 12.417969 C 7.660156 14.382812 6.984375 19.578125 9.542969 24.027344 C 9.539062 24.023438 9.539062 24.019531 9.535156 24.015625 C 4.394531 15.113281 4.445312 5.457031 9.652344 2.453125 Z M 9.652344 2.453125 " fill-opacity="1" fill-rule="nonzero"/></g><g clip-path="url(#7b06223158)"><path fill="#2d6388" d="M 9.558594 24.054688 C 12.132812 28.507812 16.980469 30.519531 20.390625 28.550781 C 20.660156 28.394531 20.925781 28.160156 21.179688 27.882812 C 24.640625 31.636719 28.035156 33.507812 30.015625 32.363281 C 30.042969 32.351562 30.066406 32.332031 30.089844 32.316406 C 30.117188 32.304688 30.140625 32.292969 30.164062 32.277344 C 30.652344 31.996094 31.03125 31.578125 31.292969 31.066406 C 31.15625 31.363281 31.019531 31.644531 30.875 31.90625 C 30.414062 32.753906 29.917969 33.417969 29.296875 33.960938 C 29.171875 34.070312 29.042969 34.171875 28.90625 34.273438 C 28.707031 34.421875 28.496094 34.5625 28.269531 34.691406 C 28.050781 34.820312 27.824219 34.929688 27.597656 35.027344 C 27.566406 35.039062 27.539062 35.054688 27.511719 35.066406 C 27.257812 35.171875 26.996094 35.261719 26.730469 35.335938 C 26.625 35.363281 26.519531 35.390625 26.414062 35.414062 C 26.175781 35.464844 25.933594 35.507812 25.691406 35.535156 C 25.625 35.542969 25.554688 35.550781 25.488281 35.558594 C 24.964844 35.605469 24.425781 35.601562 23.875 35.542969 C 23.707031 35.527344 23.539062 35.503906 23.371094 35.476562 C 22.867188 35.398438 22.355469 35.28125 21.835938 35.121094 C 21.738281 35.089844 21.644531 35.058594 21.546875 35.027344 C 21.398438 34.980469 21.25 34.925781 21.101562 34.871094 C 20.964844 34.820312 20.828125 34.765625 20.691406 34.707031 C 20.582031 34.664062 20.472656 34.617188 20.363281 34.570312 C 19.820312 34.332031 19.273438 34.050781 18.726562 33.730469 C 17.777344 33.179688 16.828125 32.507812 15.902344 31.730469 C 15.78125 31.632812 15.664062 31.53125 15.546875 31.429688 C 15.40625 31.308594 15.269531 31.1875 15.128906 31.058594 C 14.738281 30.703125 14.347656 30.324219 13.964844 29.929688 C 13.921875 29.886719 13.878906 29.839844 13.835938 29.796875 C 13.71875 29.671875 13.597656 29.542969 13.480469 29.414062 C 13.417969 29.34375 13.351562 29.277344 13.289062 29.207031 C 12.929688 28.804688 12.574219 28.390625 12.226562 27.957031 C 12.019531 27.699219 11.816406 27.4375 11.617188 27.171875 C 11.378906 26.851562 11.144531 26.527344 10.914062 26.195312 C 10.859375 26.117188 10.804688 26.035156 10.75 25.957031 C 10.640625 25.792969 10.53125 25.628906 10.421875 25.460938 C 10.28125 25.246094 10.144531 25.027344 10.007812 24.808594 C 9.855469 24.558594 9.707031 24.308594 9.558594 24.054688 Z M 9.558594 24.054688 " fill-opacity="1" fill-rule="nonzero"/></g></svg>