<svg xmlns="http://www.w3.org/2000/svg" xmlns:xlink="http://www.w3.org/1999/xlink" width="50" zoomAndPan="magnify" viewBox="0 0 37.5 37.499999" height="50" preserveAspectRatio="xMidYMid meet" version="1.0"><path fill="#7e84ff" d="M 4.851562 7.136719 C 8.371094 3.675781 14.074219 3.675781 17.589844 7.136719 L 31.238281 20.558594 L 19.589844 32.011719 C 19.445312 32.15625 19.277344 32.265625 19.089844 32.34375 C 18.898438 32.421875 18.703125 32.460938 18.5 32.460938 C 18.296875 32.460938 18.097656 32.421875 17.910156 32.34375 C 17.722656 32.265625 17.554688 32.15625 17.410156 32.011719 L 4.851562 19.664062 C 4.433594 19.253906 4.0625 18.808594 3.734375 18.328125 C 3.40625 17.84375 3.128906 17.335938 2.902344 16.796875 C 2.675781 16.257812 2.503906 15.703125 2.386719 15.132812 C 2.273438 14.5625 2.214844 13.984375 2.214844 13.398438 C 2.214844 12.816406 2.273438 12.238281 2.386719 11.664062 C 2.503906 11.09375 2.675781 10.539062 2.902344 10 C 3.128906 9.464844 3.40625 8.953125 3.734375 8.46875 C 4.0625 7.988281 4.433594 7.542969 4.851562 7.136719 Z M 4.851562 7.136719 " fill-opacity="1" fill-rule="nonzero"/><path fill="#2ebcfa" d="M 32.148438 7.136719 C 32.5625 7.542969 32.9375 7.988281 33.265625 8.46875 C 33.59375 8.953125 33.871094 9.464844 34.097656 10 C 34.324219 10.539062 34.496094 11.09375 34.613281 11.664062 C 34.726562 12.238281 34.785156 12.816406 34.785156 13.398438 C 34.785156 13.984375 34.726562 14.5625 34.613281 15.132812 C 34.496094 15.703125 34.324219 16.257812 34.097656 16.796875 C 33.871094 17.335938 33.59375 17.84375 33.265625 18.328125 C 32.9375 18.808594 32.5625 19.253906 32.148438 19.664062 L 19.589844 32.011719 C 19.445312 32.15625 19.277344 32.265625 19.089844 32.34375 C 18.898438 32.421875 18.703125 32.460938 18.5 32.460938 C 18.296875 32.460938 18.097656 32.421875 17.910156 32.34375 C 17.722656 32.265625 17.554688 32.15625 17.410156 32.011719 L 5.761719 20.558594 L 19.410156 7.136719 C 22.925781 3.675781 28.628906 3.675781 32.148438 7.136719 Z M 32.148438 7.136719 " fill-opacity="1" fill-rule="nonzero"/><path fill="#5217a1" d="M 18.5 8.03125 L 31.238281 20.558594 L 19.589844 32.011719 C 19.445312 32.15625 19.277344 32.265625 19.089844 32.34375 C 18.898438 32.421875 18.703125 32.457031 18.5 32.457031 C 18.296875 32.457031 18.097656 32.421875 17.910156 32.34375 C 17.722656 32.265625 17.554688 32.15625 17.410156 32.011719 L 5.761719 20.558594 Z M 18.5 8.03125 " fill-opacity="1" fill-rule="nonzero"/></svg>