<svg xmlns="http://www.w3.org/2000/svg" xmlns:xlink="http://www.w3.org/1999/xlink" width="50" zoomAndPan="magnify" viewBox="0 0 37.5 37.499999" height="50" preserveAspectRatio="xMidYMid meet" version="1.0"><path fill="#7e84ff" d="M 2.960938 19.40625 C 2.960938 20.132812 3.550781 20.722656 4.277344 20.722656 L 11.84375 20.722656 C 16.746094 20.722656 20.722656 16.746094 20.722656 11.84375 C 20.722656 6.9375 16.746094 2.960938 11.84375 2.960938 C 6.9375 2.960938 2.960938 6.9375 2.960938 11.84375 Z M 2.960938 19.40625 " fill-opacity="1" fill-rule="nonzero"/><path fill="#088bf5" d="M 34.046875 4.277344 C 34.046875 3.550781 33.457031 2.960938 32.730469 2.960938 L 25.164062 2.960938 C 20.257812 2.960938 16.28125 6.9375 16.28125 11.84375 C 16.28125 16.746094 20.257812 20.722656 25.164062 20.722656 C 30.070312 20.722656 34.046875 16.746094 34.046875 11.84375 Z M 34.046875 4.277344 " fill-opacity="1" fill-rule="nonzero"/><path fill="#5217a1" d="M 18.503906 17.714844 C 19.886719 16.152344 20.722656 14.09375 20.722656 11.84375 C 20.722656 9.589844 19.886719 7.53125 18.503906 5.96875 C 17.785156 6.777344 17.238281 7.6875 16.855469 8.699219 C 16.472656 9.714844 16.28125 10.761719 16.28125 11.84375 C 16.28125 14.09375 17.121094 16.152344 18.503906 17.714844 Z M 18.503906 17.714844 " fill-opacity="1" fill-rule="nonzero"/><path fill="#7e84ff" d="M 2.960938 28.496094 C 2.960938 24.203125 6.441406 20.722656 10.730469 20.722656 C 15.023438 20.722656 18.503906 24.203125 18.503906 28.496094 L 18.503906 34.046875 L 2.960938 34.046875 Z M 2.960938 28.496094 " fill-opacity="1" fill-rule="nonzero"/><path fill="#088bf5" d="M 18.503906 28.496094 C 18.503906 24.203125 21.984375 20.722656 26.273438 20.722656 C 30.566406 20.722656 34.046875 24.203125 34.046875 28.496094 L 34.046875 34.046875 L 18.503906 34.046875 Z M 18.503906 28.496094 " fill-opacity="1" fill-rule="nonzero"/></svg>